<svg id="icons" xmlns="http://www.w3.org/2000/svg" xmlns:xlink="http://www.w3.org/1999/xlink" viewBox="0 0 712 424" width="712" height="424"><style>.c-white{fill:#fff}.c-black{fill:#333}.c-gray,.grid{fill:#ccc}.grid{opacity:0}</style><path d="M648 0h64v64h-64zm-72 0h64v64h-64zm-72 0h64v64h-64zm-72 0h64v64h-64zm-72 0h64v64h-64zm-72 0h64v64h-64zm-72 0h64v64h-64zm-72 0h64v64h-64zM72 0h64v64H72zM0 0h64v64H0zm648 72h64v64h-64zm-72 0h64v64h-64zm-72 0h64v64h-64zm-72 0h64v64h-64zm-72 0h64v64h-64zm-72 0h64v64h-64zm-72 0h64v64h-64zm-72 0h64v64h-64zm-72 0h64v64H72zM0 72h64v64H0zm216 144h64v64h-64zm-72 0h64v64h-64zm-72 0h64v64H72zm-72 0h64v64H0zm288 0h64v64h-64zm72 0h64v64h-64zm72 0h64v64h-64zm72 0h64v64h-64zm72 0h64v64h-64zm72 0h64v64h-64zm-432 72h64v64h-64zm-72 0h64v64h-64zm-72 0h64v64H72zm-72 0h64v64H0zm288 0h64v64h-64zm72 0h64v64h-64zm72 0h64v64h-64zm72 0h64v64h-64zm72 0h64v64h-64zm72 0h64v64h-64zm-432 72h64v64h-64zm-72 0h64v64h-64zm-72 0h64v64H72zm-72 0h64v64H0zm288 0h64v64h-64zm72 0h64v64h-64zm72 0h64v64h-64zm72 0h64v64h-64zm72 0h64v64h-64zm72 0h64v64h-64zm-72-216h64v64h-64zm-144 0h64v64h-64zm-144 0h64v64h-64zm-144 0h64v64h-64zM0 144h64v64H0zm648 0h64v64h-64zm-144 0h64v64h-64zm-144 0h64v64h-64zm-144 0h64v64h-64zm-144 0h64v64H72z" class="grid"/><g id="blank-b" class="c-black"><path d="M58 3.5H23.5C22.1 3.5 21 4.6 21 6v15H6c-1.4 0-2.5 1.1-2.5 2.5V58c0 1.4 1.1 2.5 2.5 2.5h34.5c1.4 0 2.5-1.1 2.5-2.5V42.9h15c1.4 0 2.5-1.1 2.5-2.5V6c0-1.4-1.1-2.5-2.5-2.5zM37 37.9l-5.1 5H38v12.6H8.5V26H21v6.4l5-5.1V8.5h29.5v29.4H37z"/><path d="M33.3 15.5v5h6.8L15.8 44.8l3.6 3.5 23.9-24v6.6h5V15.5z"/></g><g id="blank-w"><path class="c-white" d="M130 3.5H95.5C94.1 3.5 93 4.6 93 6v15H78c-1.4 0-2.5 1.1-2.5 2.5V58c0 1.4 1.1 2.5 2.5 2.5h34.5c1.4 0 2.5-1.1 2.5-2.5V42.9h15c1.4 0 2.5-1.1 2.5-2.5V6c0-1.4-1.1-2.5-2.5-2.5zm-21 34.4l-5.1 5h6.2v12.6H80.5V26H93v6.4l5-5.1V8.5h29.5v29.4H109z"/><path class="c-white" d="M105.3 15.5v5h6.8L87.8 44.8l3.6 3.5 23.9-24v6.6h5V15.5z"/></g><g id="link-b" class="c-black" stroke="#333"><path d="M152.2 41.5c-3.9 3.9-3.9 10.4 0 14.3 3.9 3.9 10.4 3.9 14.3 0L183 39.2c3.9-3.9 3.9-10.4 0-14.3l-3.5 3.5c2 2 2 5.2 0 7.2L163 52.1c-2 2-5.2 2-7.2 0s-2-5.2 0-7.2l6.5-6.5c-.8-1.9-1.2-3.9-1.2-5.9l-8.9 9z"/><path d="M199.7 22.4c3.9-3.9 3.9-10.4 0-14.3-3.9-3.9-10.4-3.9-14.3 0l-16.5 16.5c-3.9 3.9-3.9 10.4 0 14.3l3.5-3.5c-2-2-2-5.2 0-7.2L189 11.6c2-2 5.2-2 7.2 0s2 5.2 0 7.2l-6.5 6.5c.8 1.9 1.2 3.9 1.2 5.9l8.8-8.8z"/></g><g id="link-w" class="c-white" stroke="#fff"><path d="M224.2 41.5c-3.9 3.9-3.9 10.4 0 14.3 3.9 3.9 10.4 3.9 14.3 0L255 39.3c3.9-3.9 3.9-10.4 0-14.3l-3.5 3.5c2 2 2 5.2 0 7.2L235 52.2c-2 2-5.2 2-7.2 0s-2-5.2 0-7.2l6.5-6.5c-.8-1.9-1.2-3.9-1.2-5.9l-8.9 8.9z"/><path d="M271.8 22.4c3.9-3.9 3.9-10.4 0-14.3-3.9-3.9-10.4-3.9-14.3 0L241 24.6c-3.9 3.9-3.9 10.4 0 14.3l3.5-3.5c-2-2-2-5.2 0-7.2L261 11.6c2-2 5.2-2 7.2 0s2 5.2 0 7.2l-6.5 6.5c.8 1.9 1.2 3.9 1.2 5.9l8.9-8.8z"/></g><path class="c-black" d="M339.5 6h-39c-1.4 0-2.5 1.1-2.5 2.5v47c0 1.4 1.1 2.5 2.5 2.5h39c1.4 0 2.5-1.1 2.5-2.5v-47c0-1.4-1.1-2.5-2.5-2.5zM303 15h18.5v15H303V15zm34 35h-34v-5h34v5zm0-10h-34v-5h34v5zm0-10h-10.5v-5H337v5zm0-10h-10.5v-5H337v5z" id="file-b"/><path class="c-white" d="M411.5 6h-39c-1.4 0-2.5 1.1-2.5 2.5v47c0 1.4 1.1 2.5 2.5 2.5h39c1.4 0 2.5-1.1 2.5-2.5v-47c0-1.4-1.1-2.5-2.5-2.5zM375 15h18.5v15H375V15zm34 35h-34v-5h34v5zm0-10h-34v-5h34v5zm0-10h-10.5v-5H409v5zm0-10h-10.5v-5H409v5z" id="file-w"/><path class="c-black" d="M487.5 17.5h-18.8L461 10h-23v41.5c0 1.4 1.1 2.5 2.5 2.5h47c1.4 0 2.5-1.1 2.5-2.5V20c0-1.4-1.1-2.5-2.5-2.5z" id="folder-b"/><path class="c-white" d="M559.5 17.5h-18.8L533 10h-23v41.5c0 1.4 1.1 2.5 2.5 2.5h47c1.4 0 2.5-1.1 2.5-2.5V20c0-1.4-1.1-2.5-2.5-2.5z" id="folder-w"/><path class="c-black" d="M638.3 28.3c-.9-.9-2.3-.8-2.3-.8h-41.1s-.9 0-1.5.4-.9 1.1-.9 1.1l-8 22.5 3.5-26.9c.2-.9 1-2.1 2.5-2.1H634V20c0-1.4-1.1-2.5-2.5-2.5h-18.8L605 10h-23v41.5c0 1.4 1.1 2.5 2.5 2.5h47c1.4 0 2.5-1.1 2.5-2.5v-7.1l4.9-13.7s.3-1.4-.6-2.4z" id="folder-b-open"/><path class="c-white" d="M710.3 28.3c-.9-.9-2.3-.8-2.3-.8h-41.1s-.9 0-1.5.4-.9 1.1-.9 1.1l-8 22.5 3.5-26.9c.2-.9 1-2.1 2.5-2.1H706V20c0-1.4-1.1-2.5-2.5-2.5h-18.8L677 10h-23v41.5c0 1.4 1.1 2.5 2.5 2.5h47c1.4 0 2.5-1.1 2.5-2.5v-7.1l4.9-13.7s.3-1.4-.6-2.4z" id="folder-w-open"/><path d="M466 365h-3c-6.6 0-12 5.4-12 12v6h6v-6c0-3.3 2.7-6 6-6h3c3.3 0 6 2.7 6 6v6h6v-6c0-6.6-5.4-12-12-12zm19.5 21h-43c-1.4 0-2.5 1.1-2.5 2.5v27c0 1.4 1.1 2.5 2.5 2.5h43c1.4 0 2.5-1.1 2.5-2.5v-27c0-1.4-1.1-2.5-2.5-2.5zM466 404.1v7.4h-4v-7.4c-1.8-.8-3-2.5-3-4.6 0-2.8 2.2-5 5-5s5 2.2 5 5c0 2-1.2 3.8-3 4.6z" id="lock-b" class="c-black"/><g id="lock-w" class="c-white"><path d="M538 365h-3c-6.6 0-12 5.4-12 12v6h6v-6c0-3.3 2.7-6 6-6h3c3.3 0 6 2.7 6 6v6h6v-6c0-6.6-5.4-12-12-12z"/><path class="st2" d="M557.5 386h-43c-1.4 0-2.5 1.1-2.5 2.5v27c0 1.4 1.1 2.5 2.5 2.5h43c1.4 0 2.5-1.1 2.5-2.5v-27c0-1.4-1.1-2.5-2.5-2.5zM538 404.1v7.4h-4v-7.4c-1.8-.8-3-2.5-3-4.6 0-2.8 2.2-5 5-5s5 2.2 5 5c0 2-1.2 3.8-3 4.6z"/></g><g id="home-b" class="c-black"><path d="M636.3 388.6L608 364.8l-28.3 23.8 4.5 5.3 23.8-20 23.8 20z"/><path d="M608 381.2L591.5 395v20.5c0 1.4 1.1 2.5 2.5 2.5h28c1.4 0 2.5-1.1 2.5-2.5V395L608 381.2z"/></g><g id="home-w" class="c-white"><path d="M708.3 388.6L680 364.8l-28.3 23.8 4.5 5.3 23.8-20 23.8 20z"/><path d="M680 381.2L663.5 395v20.5c0 1.4 1.1 2.5 2.5 2.5h28c1.4 0 2.5-1.1 2.5-2.5V395L680 381.2z"/></g><style>.c-html{fill:#0074d9}.c-css{fill:#f012be}.c-js{fill:#3d9970}.c-php{fill:#ff851b}</style><g id="php-w"><path class="c-white" d="M562 136h-52c-3.3 0-6-2.7-6-6V78c0-3.3 2.7-6 6-6h52c3.3 0 6 2.7 6 6v52c0 3.3-2.7 6-6 6z"/><path d="M535.3 113c-1.4 0-2.7.5-3.7 1.4-1 .9-1.5 2.2-1.5 3.8 0 1.6.5 2.9 1.5 3.9s2.2 1.4 3.7 1.4c1.4 0 2.7-.5 3.7-1.4 1-1 1.5-2.3 1.5-3.9s-.5-2.8-1.5-3.8c-1.1-.9-2.3-1.4-3.7-1.4zM546 89.3c-.6-1.1-1.3-2.1-2.3-2.9-1-.8-2.2-1.4-3.6-1.8-1.4-.4-2.9-.6-4.5-.6-2.3 0-4.3.5-6.1 1.4-1.8.9-3.4 2.1-4.7 3.5l-.2.2 4 3.7.2-.2c.9-.9 1.9-1.6 2.9-2.1s2.2-.8 3.4-.8c1.5 0 2.8.4 3.6 1.2.9.8 1.3 1.8 1.3 3.1 0 .8-.2 1.5-.7 2.1-.5.7-1 1.4-1.7 2-.7.7-1.4 1.3-2.2 2-.8.7-1.5 1.5-2.1 2.3-.6.8-1.1 1.8-1.4 2.8-.3 1-.4 2.2-.2 3.6v.2h6.2v-.3c-.1-1.1 0-2 .3-2.9.4-.8.9-1.7 1.5-2.4s1.3-1.5 2.1-2.2c.8-.7 1.6-1.5 2.3-2.2.7-.8 1.3-1.7 1.8-2.6.5-1 .7-2.1.7-3.3.3-1.4 0-2.7-.6-3.8zm15.8 12.2l-12-7.4v5l7.9 4.9-7.9 4.9v5l12-7.4v-5zm-52 0v5l12 7.4v-5l-7.9-4.9 7.9-4.9v-5l-12 7.4z" class="c-black"/></g><g id="php-b"><path class="c-php" d="M490 136h-52c-3.3 0-6-2.7-6-6V78c0-3.3 2.7-6 6-6h52c3.3 0 6 2.7 6 6v52c0 3.3-2.7 6-6 6z"/><path d="M463.4 113c-1.4 0-2.7.5-3.7 1.4-1 .9-1.5 2.2-1.5 3.8 0 1.6.5 2.9 1.5 3.9s2.2 1.4 3.7 1.4c1.4 0 2.7-.5 3.7-1.4s1.5-2.3 1.5-3.9-.5-2.8-1.5-3.8-2.2-1.4-3.7-1.4zm10.8-23.8c-.6-1.1-1.3-2.1-2.3-2.9-1-.8-2.2-1.4-3.6-1.8-1.4-.4-2.9-.6-4.5-.6-2.3 0-4.3.5-6.1 1.4-1.8.9-3.4 2.1-4.7 3.5l-.2.2 4 3.7.2-.2c.9-.9 1.9-1.6 2.9-2.1s2.2-.8 3.4-.8c1.5 0 2.8.4 3.6 1.2.9.8 1.3 1.8 1.3 3.1 0 .8-.2 1.5-.7 2.1-.5.7-1 1.4-1.7 2-.7.7-1.4 1.4-2.2 2-.8.7-1.5 1.5-2.1 2.3-.6.8-1.1 1.8-1.4 2.8-.3 1-.4 2.2-.2 3.6v.2h6.2v-.3c-.1-1.1 0-2 .3-2.9.4-.9.9-1.7 1.5-2.4s1.3-1.5 2.1-2.2c.8-.7 1.6-1.5 2.3-2.2.7-.8 1.3-1.7 1.8-2.6.5-1 .7-2.1.7-3.3.2-1.3 0-2.6-.6-3.8zM438 101.5v5l12 7.4v-5l-7.9-4.9 7.9-4.9v-5l-12 7.4zm52 0l-12-7.4v5l7.9 4.9-7.9 4.9v5l12-7.4v-5z" class="c-white"/></g><g id="js-w"><path class="c-white" d="M418 136h-52c-3.3 0-6-2.7-6-6V78c0-3.3 2.7-6 6-6h52c3.3 0 6 2.7 6 6v52c0 3.3-2.7 6-6 6z"/><path d="M377.4 96.8v-5.1c.1-3.7 1.3-5.9 3.8-6.7l.5-.2-1.4-4.2-.5.1c-2.8.8-5 2.1-6.5 3.9-1.5 1.8-2.3 4.2-2.3 7.1v5c0 3.3-1.3 4.8-4 4.8h-.5v5.2h.5c2.7 0 4 1.5 4 4.8v5c.1 5.7 3.1 9.4 8.8 11l.5.1 1.4-4.2-.5-.2c-2.5-.8-3.8-3-3.8-6.7v-5c0-3.4-1.2-5.9-3.6-7.5 2.4-1.4 3.6-3.9 3.6-7.2zm12.4 13.7c0 1-.2 2.1-.5 3.1s-.9 2.2-1.8 3.6l-.3.4 3.8 2.3.3-.2c1.3-1.1 2.5-2.6 3.3-4.3.9-1.7 1.3-3.5 1.3-5.2v-4.6h-6.1v4.9zm27.3-8.9c-2.8 0-4-1.5-4-4.8v-4.7c0-3-.7-5.5-2.2-7.3-1.5-1.9-3.7-3.2-6.6-4.1l-.5-.1-1.4 4.2.5.2c2.5.8 3.8 3.1 3.9 6.8v4.9c0 3.5 1.2 6 3.7 7.5-2.5 1.5-3.7 4-3.7 7.4v4.9c-.1 3.8-1.3 6-3.9 6.8l-.5.2 1.4 4.2.5-.1c2.9-.8 5.1-2.2 6.6-4.1 1.5-1.9 2.2-4.4 2.2-7.4v-4.6c0-3.3 1.3-4.8 4-4.8h.5v-5.2h-.5zm-24.7-8.5c-1.2 0-2.1.4-2.8 1.1-.7.7-1 1.6-1 2.6s.4 1.9 1 2.6c.7.7 1.6 1 2.8 1 1.2 0 2.1-.3 2.8-1 .7-.7 1-1.5 1-2.6 0-1-.3-1.9-1-2.6-.6-.8-1.6-1.1-2.8-1.1z" class="c-black"/></g><g id="js-b"><path class="c-js" d="M346 136h-52c-3.3 0-6-2.7-6-6V78c0-3.3 2.7-6 6-6h52c3.3 0 6 2.7 6 6v52c0 3.3-2.7 6-6 6z"/><path d="M305.4 96.8v-5.1c.1-3.7 1.3-5.9 3.8-6.7.1 0 .2-.1.3-.3s.1-.3 0-.4l-1.1-3.3c-.1-.3-.3-.4-.6-.3-2.8.8-5 2.1-6.5 3.9-1.5 1.8-2.3 4.2-2.3 7.1v5c0 3.3-1.3 4.8-4 4.8-.3 0-.5.2-.5.5v4.2c0 .3.2.5.5.5 2.7 0 4 1.5 4 4.8v5c.1 5.7 3.1 9.4 8.8 11h.1c.2 0 .4-.1.5-.3l1.1-3.3v-.4l-.3-.3c-2.5-.8-3.8-3-3.8-6.7v-5c0-3.4-1.2-5.9-3.6-7.5 2.4-1.4 3.6-3.9 3.6-7.2zm18 9.3h-5.1c-.6 0-1 .4-1 1v4.4c0 1-.2 2-.5 2.9-.3 1-.9 2.1-1.8 3.5-.1.2-.2.5-.1.8.1.3.2.5.5.6l3.1 1.8c.2.1.3.1.5.1s.5-.1.6-.2c1.4-1.2 2.6-2.7 3.4-4.4.9-1.8 1.3-3.6 1.4-5.4v-4.1c0-.3-.1-.5-.3-.7-.2-.2-.4-.3-.7-.3zm21.7-4.5c-2.8 0-4-1.5-4-4.8v-4.7c0-3-.7-5.5-2.2-7.3-1.5-1.9-3.7-3.2-6.6-4.1-.3-.1-.5.1-.6.3l-1.1 3.3v.4c0 .1.2.2.3.3 2.5.8 3.8 3.1 3.9 6.8v4.9c0 3.5 1.2 6 3.7 7.5-2.5 1.5-3.7 4-3.7 7.4v4.9c-.1 3.8-1.3 6-3.9 6.8-.1 0-.2.1-.3.3-.1.1-.1.3 0 .4l1.1 3.3c.1.2.3.3.5.3h.1c2.9-.8 5.1-2.2 6.6-4.1 1.5-1.9 2.2-4.4 2.2-7.4v-4.6c0-3.3 1.3-4.8 4-4.8.3 0 .5-.2.5-.5V102c0-.2-.2-.4-.5-.4zm-24.7-10c-1.3 0-2.4.4-3.2 1.2-.8.8-1.1 1.8-1.1 3s.4 2.2 1.2 2.9c.8.8 1.8 1.2 3.1 1.2s2.4-.4 3.2-1.2c.8-.8 1.2-1.8 1.2-2.9 0-1.2-.4-2.2-1.1-3-.9-.8-1.9-1.2-3.3-1.2z" class="c-white"/></g><g id="css-w"><path class="c-white" d="M274 136h-52c-3.3 0-6-2.7-6-6V78c0-3.3 2.7-6 6-6h52c3.3 0 6 2.7 6 6v52c0 3.3-2.7 6-6 6z"/><path d="M229.5 89c-4.9 0-9 4-9 9v12.5c0 4.9 4 9 9 9 4.9 0 9-4 9-9v-.5h-5v.5c0 2.2-1.8 4-4 4s-4-1.8-4-4V97.9c0-2.2 1.8-4 4-4s4 1.8 4 4v.5h5v-.5c-.1-4.9-4.1-8.9-9-8.9zm18.5 12.7c-1.4 0-2.5-.3-3.1-1-.9-1-.9-2.5-.9-2.6v-.2c0-2.2 1.8-3.9 4-3.9s4 1.8 4 4v.5h5V98c0-4.9-4-9-9-9-4.9 0-8.9 4-9 8.9 0 .6-.1 3.8 2.2 6.2 1.6 1.7 3.9 2.6 6.8 2.6 1.4 0 2.5.3 3.1 1 .9 1 .9 2.5.9 2.6v.2c0 2.2-1.8 4-4 4s-4-1.8-4-4v-.5h-5v.5c0 4.9 4 9 9 9 4.9 0 8.9-4 9-8.9 0-.6.1-3.8-2.2-6.2-1.6-1.8-3.9-2.7-6.8-2.7zm25.3 2.6c-1.6-1.7-3.9-2.6-6.8-2.6-1.4 0-2.5-.3-3.1-1-.9-1-.9-2.5-.9-2.6v-.2c0-2.2 1.8-3.9 4-3.9s4 1.8 4 4v.5h5V98c0-4.9-4-9-9-9-4.9 0-8.9 4-9 8.9 0 .6-.1 3.8 2.2 6.2 1.6 1.7 3.9 2.6 6.8 2.6 1.4 0 2.5.3 3.1 1 .9 1 .9 2.5.9 2.6v.2c0 2.2-1.8 4-4 4s-4-1.8-4-4v-.5h-5v.5c0 4.9 4 9 9 9 4.9 0 8.9-4 9-8.9 0-.6.1-3.8-2.2-6.3z" class="c-black"/></g><g id="css-b"><path class="c-css" d="M202 136h-52a6 6 0 0 1-6-6V78a6 6 0 0 1 6-6h52a6 6 0 0 1 6 6v52a6 6 0 0 1-6 6z"/><path d="M157.464 88.954c-4.943 0-8.964 4.021-8.964 8.964v12.546c0 4.943 4.021 8.965 8.964 8.965 4.943 0 8.965-4.021 8.965-8.965v-.5h-5v.5c0 2.187-1.779 3.965-3.965 3.965s-3.964-1.778-3.964-3.965V97.918c0-2.186 1.778-3.964 3.964-3.964s3.965 1.778 3.965 3.964v.5h5v-.5c0-4.942-4.022-8.964-8.965-8.964zM176 101.691c-1.443 0-2.493-.337-3.118-1.002-.912-.972-.857-2.519-.854-2.585l.007-.187c0-2.186 1.778-3.964 3.964-3.964s3.964 1.778 3.964 3.964v.5h5v-.5c0-4.942-4.021-8.964-8.964-8.964-4.903 0-8.924 3.982-8.963 8.864-.036.613-.1 3.797 2.152 6.241 1.609 1.746 3.9 2.632 6.811 2.632 1.444 0 2.493.337 3.118 1.002.911.971.857 2.519.854 2.584l-.007.187c0 2.187-1.778 3.965-3.964 3.965s-3.964-1.778-3.964-3.965v-.5h-5v.5c0 4.943 4.021 8.965 8.964 8.965 4.903 0 8.924-3.982 8.963-8.865.036-.613.1-3.797-2.152-6.24-1.61-1.746-3.901-2.632-6.811-2.632zm25.337 2.632c-1.609-1.746-3.9-2.632-6.811-2.632-1.444 0-2.492-.337-3.117-1.002-.912-.972-.857-2.519-.854-2.585l.007-.187c0-2.186 1.778-3.964 3.964-3.964s3.965 1.778 3.965 3.964v.5h5v-.5c0-4.942-4.021-8.964-8.965-8.964-4.903 0-8.924 3.982-8.963 8.864-.036.613-.1 3.797 2.153 6.241 1.609 1.746 3.9 2.632 6.81 2.632 1.444 0 2.493.337 3.118 1.002.911.971.857 2.519.854 2.584l-.007.187c0 2.187-1.779 3.965-3.965 3.965s-3.964-1.778-3.964-3.965v-.5h-5v.5c0 4.943 4.021 8.965 8.964 8.965 4.903 0 8.925-3.982 8.963-8.865.036-.613.1-3.795-2.152-6.24z" class="c-white"/></g><g id="html-w"><path class="c-white" d="M130 72H78c-3.3 0-6 2.7-6 6v52c0 3.3 2.7 6 6 6h52c3.3 0 6-2.7 6-6V78c0-3.3-2.7-6-6-6z"/><path d="M109.7 83.5l-17.5 41h6.1l17.5-41zm-16.9 33h.1c.1 0 .1-.1.1-.2v-5c0-.1 0-.2-.1-.2l-10.6-6.5L93 98c.1 0 .1-.1.1-.2v-5c0-.1 0-.2-.1-.2h-.3l-15 9.3s-.1 0-.1.1v5.3l.1.1 15 9.3c0-.2.1-.2.1-.2zm37.3-14.5s0-.1 0 0c0-.1-.1-.1-.1-.1l-15-9.3h-.3c-.1 0-.1.1-.1.2v5c0 .1 0 .2.1.2l10.6 6.5-10.6 6.5c-.1 0-.1.1-.1.2v5c0 .1 0 .2.1.2h.2l15-9.3.1-.1v-.1l.1-4.9z" class="c-black"/></g><g id="html-b"><path class="c-html" d="M58 136H6a6 6 0 0 1-6-6V78a6 6 0 0 1 6-6h52a6 6 0 0 1 6 6v52a6 6 0 0 1-6 6z"/><path d="M38.01 83.75l-17.268 40.5h5.544l17.267-40.5zM21.5 116.294v-5a.502.502 0 0 0-.237-.426l-10.26-6.332 10.26-6.332a.502.502 0 0 0 .237-.426v-5a.5.5 0 0 0-.762-.426l-14.976 9.246-.005.001-.005.005-.014.008c-.03.018-.045.05-.07.073-.036.034-.077.063-.101.106-.031.054-.039.116-.048.178-.003.023-.018.042-.018.065v5c0 .016.01.028.012.044a.49.49 0 0 0 .055.201c.021.037.057.06.087.091.028.029.048.066.084.088l.016.01.003.003.003.001 14.978 9.246a.506.506 0 0 0 .507.011.496.496 0 0 0 .254-.435zm36.982-14.323c-.009-.062-.018-.125-.048-.178-.024-.043-.065-.072-.101-.106-.025-.023-.04-.055-.07-.073l-.014-.008-.005-.005-.005-.001-14.976-9.246a.498.498 0 1 0-.763.424v5c0 .174.09.334.237.426l10.26 6.332-10.26 6.332a.502.502 0 0 0-.237.426v5a.5.5 0 0 0 .763.426l14.978-9.246.003-.001.003-.003.016-.01c.036-.022.055-.058.084-.088.03-.031.066-.054.087-.091a.494.494 0 0 0 .055-.201c.001-.015.012-.028.012-.044v-5c-.001-.023-.016-.042-.019-.065z" class="c-white"/></g><g id="ico_zip"><defs><linearGradient id="g-zip" gradientUnits="userSpaceOnUse" x1="536" y1="195.216" x2="536" y2="155.93"><stop offset="0" stop-color="#ffcd4d"/><stop offset="1" stop-color="#ffa243"/></linearGradient></defs><path d="M508 159v34c0 1.7 1.3 3 3 3h6v-40h-6c-1.7 0-3 1.3-3 3zm53-3h-26v40h26c1.7 0 3-1.3 3-3v-34c0-1.7-1.3-3-3-3z" fill="url(#g-zip)"/><path class="c-gray" d="M520 155h12v42h-12z"/><path d="M520 152v6h6v-3h6v-3zm6 6h6v3h-6zm-6 3h6v3h-6zm6 3h6v3h-6zm-6 3h6v3h-6zm6 3h6v3h-6zm-6 3h6v3h-6zm6 3h6v3h-6zm-6 3h6v3h-6zm6 3h6v3h-6zm-6 3h6v3h-6zm6 3h6v3h-6zm-6 3h6v3h-6zm6 3v3h-6v3h12v-6z" class="c-black"/></g><path class="c-black" d="M626.3 108c.3-1.3.4-2.6.4-4 0-1.2-.1-2.3-.3-3.5 2.3-2.3 4.9-4.9 5.2-5.1.5-.5 1-1.8.3-3s-1.5-2.6-1.8-3.2c-.6-1-1.7-1.5-2.8-1.2-.6.1-3.9 1-6.9 1.9-1.8-1.6-3.9-2.9-6.3-3.7-.9-3.2-1.8-6.8-1.9-7.2-.2-.7-1-1.8-2.4-1.8h-3.6c-1.1 0-2.1.8-2.4 1.8-.2.6-1.1 4.1-1.9 7.2-2.2.8-4.2 1.9-5.9 3.4-3.3-.9-7.1-1.9-7.5-2-.7-.2-2 0-2.7 1.2-.7 1.2-1.5 2.6-1.8 3.2-.6 1-.4 2.2.4 3l5.4 5.4c-.2 1.2-.4 2.4-.4 3.6 0 1 .1 2 .3 3l-5.6 5.6c-.5.5-1 1.8-.3 3s1.5 2.6 1.8 3.2c.6 1 1.7 1.5 2.8 1.2.6-.2 4.2-1.1 7.3-2 1.7 1.5 3.7 2.7 5.8 3.6.9 3.3 1.9 7 2 7.4.2.7 1 1.8 2.4 1.8h3.6c1.1 0 2.1-.8 2.4-1.8.1-.6 1-3.9 1.9-7 2.4-.7 4.5-1.9 6.4-3.5 3.2.9 6.7 1.8 7.1 1.9.7.2 2 0 2.7-1.2.7-1.2 1.5-2.6 1.8-3.2.6-1 .4-2.2-.4-3-.5-.4-2.9-2.8-5.1-5zm-18.3 5.4c-5.2 0-9.4-4.2-9.4-9.4s4.2-9.4 9.4-9.4 9.4 4.2 9.4 9.4-4.2 9.4-9.4 9.4z" id="setting-b"/><path class="c-white" d="M698.4 108c.3-1.3.4-2.6.4-4 0-1.2-.1-2.3-.3-3.5 2.3-2.3 4.9-4.9 5.2-5.1.5-.5 1-1.8.3-3s-1.5-2.6-1.8-3.2c-.6-1-1.7-1.5-2.8-1.2-.6.1-3.9 1-6.9 1.9-1.8-1.6-3.9-2.9-6.3-3.7-.9-3.2-1.8-6.8-1.9-7.2-.2-.7-1-1.8-2.4-1.8h-3.6c-1.1 0-2.1.8-2.4 1.8-.2.6-1.1 4.1-1.9 7.2-2.2.8-4.2 1.9-5.9 3.4-3.3-.9-7.1-1.9-7.5-2-.7-.2-2 0-2.7 1.2-.7 1.2-1.5 2.6-1.8 3.2-.6 1-.4 2.2.4 3l5.4 5.4c-.2 1.2-.4 2.4-.4 3.6 0 1 .1 2 .3 3l-5.6 5.6c-.5.5-1 1.8-.3 3s1.5 2.6 1.8 3.2c.6 1 1.7 1.5 2.8 1.2.6-.2 4.2-1.1 7.3-2 1.7 1.5 3.7 2.7 5.8 3.6.9 3.3 1.9 7 2 7.4.2.7 1 1.8 2.4 1.8h3.6c1.1 0 2.1-.8 2.4-1.8.1-.6 1-3.9 1.9-7 2.4-.7 4.5-1.9 6.4-3.5 3.2.9 6.7 1.8 7.1 1.9.7.2 2 0 2.7-1.2s1.5-2.6 1.8-3.2c.6-1 .4-2.2-.4-3-.5-.4-2.9-2.8-5.1-5zm-18.3 5.4c-5.2 0-9.4-4.2-9.4-9.4s4.2-9.4 9.4-9.4 9.4 4.2 9.4 9.4-4.2 9.4-9.4 9.4z" id="setting-w"/><g id="ico_info"><defs><linearGradient id="g-info" gradientUnits="userSpaceOnUse" x1="392" y1="205.976" x2="392" y2="145.209"><stop offset="0" stop-color="#0071bc"/><stop offset="1" stop-color="#003cbc"/></linearGradient></defs><circle cx="392" cy="176" r="31" fill="url(#g-info)" id="info_base"/><g id="info_symbol"><path class="c-white" d="M387.2 172.3V194c0 1.4 1.1 2.5 2.5 2.5h4.5c1.4 0 2.5-1.1 2.5-2.5v-21.7c-1.4.7-3.1 1.1-4.8 1.1s-3.2-.4-4.7-1.1z"/><circle class="c-white" cx="392" cy="162.4" r="5"/></g></g><g id="ico_alert"><defs><linearGradient id="g-alert" gradientUnits="userSpaceOnUse" x1="464" y1="202.974" x2="464" y2="148.3"><stop offset="0" stop-color="#ffa200"/><stop offset="1" stop-color="#ff6b00"/></linearGradient></defs><path id="alert_base" d="M468.34 150.65l26.05 45.58c1.9 3.33-.5 7.48-4.34 7.48h-52.09c-3.84 0-6.25-4.15-4.34-7.48l26.05-45.58c1.91-3.35 6.75-3.35 8.67 0z" fill="url(#g-alert)"/><g id="alert_symbol"><path class="c-white" d="M464.2 183.2c1 0 2.1.2 3 .4l2-20.9c0-1.4-1.1-2.5-2.5-2.5h-5.4c-1.4 0-2.5 1.1-2.5 2.5l2 21.1c1.1-.4 2.2-.6 3.4-.6z"/><circle class="c-white" cx="464" cy="194.2" r="5"/></g></g><style>.c-chrome-red{fill:#cf4337}.c-chrome-green{fill:#179556}.c-chrome-yellow{fill:#f4c645}.chrome-highlight path{fill-opacity:.2}.chrome-center{fill:#4679bc}.c-ie{fill:#336ab3}.c-edge{fill:#3470b0}.safari-hand{fill:#e7211a}.c-rss,.c-safari{fill:#f78422}</style><g id="ico_chrome"><g id="chrome-base" clip-path="url(#chrome-mask)"><defs><circle id="circle_mask" cx="32" cy="176" r="28.5"/><clipPath id="chrome-mask"><use xlink:href="#circle_mask" overflow="visible"/></clipPath><linearGradient id="g-chrome-red" gradientUnits="userSpaceOnUse" x1="8.958" y1="857.912" x2="26.741" y2="868.301" gradientTransform="matrix(1 0 0 -1 0 1026)"><stop offset="0" stop-color="#9b2a24" stop-opacity=".6"/><stop offset=".66" stop-color="#9b2a24" stop-opacity="0"/></linearGradient><radialGradient id="g-chrome-red_shadow" cx="571.059" cy="870.021" r="25.718" gradientTransform="matrix(.9828 0 0 -.9828 -553.172 1015.896)" gradientUnits="userSpaceOnUse"><stop offset="0" stop-color="#3d2722" stop-opacity=".2"/><stop offset="1" stop-color="#3d2722" stop-opacity="0"/></radialGradient><linearGradient id="g-chrome-green" gradientUnits="userSpaceOnUse" x1="36.814" y1="827.543" x2="17.923" y2="838.61" gradientTransform="matrix(1 0 0 -1 0 1026)"><stop offset="0" stop-color="#03532d" stop-opacity=".4"/><stop offset=".33" stop-color="#03532d" stop-opacity="0"/></linearGradient><radialGradient id="g-chrome-green_shadow" cx="595.386" cy="854.312" r="28.957" gradientTransform="matrix(.9828 0 0 -.9828 -553.172 1015.896)" gradientUnits="userSpaceOnUse"><stop offset="0" stop-color="#263138" stop-opacity=".2"/><stop offset="1" stop-color="#263138" stop-opacity="0"/></radialGradient><linearGradient id="g-chrome-yellow" gradientUnits="userSpaceOnUse" x1="40.409" y1="864.701" x2="45.166" y2="843.867" gradientTransform="matrix(1 0 0 -1 0 1026)"><stop offset="0" stop-color="#dd600f" stop-opacity=".3"/><stop offset=".66" stop-color="#dd600f" stop-opacity="0"/></linearGradient><radialGradient id="g-chrome-yellow_shadow" cx="594.18" cy="867.556" r="27.708" gradientTransform="matrix(.9828 0 0 -.9828 -553.172 1015.896)" gradientUnits="userSpaceOnUse"><stop offset="0" stop-color="#3d2722" stop-opacity=".2"/><stop offset="1" stop-color="#3d2722" stop-opacity="0"/></radialGradient></defs><g id="chrome-base" clip-path="url(#chrome-mask)"><path id="red_base" class="c-chrome-red" d="M6.93 143.94v38.81H20.8L32 163.31h28.5v-19.38H6.93z"/><path id="red_gradation" d="M6.93 143.94v38.81H20.8L32 163.31h28.5v-19.38H6.93z" fill="url(#g-chrome-red)"/><path id="red_shadow" d="M8.08 160.87L26.6 179.4l-5.76 3.34-12.76-21.87z" fill="url(#g-chrome-red_shadow)"/><path id="green_base" class="c-chrome-green" d="M3.5 204.77h27.14l12.63-12.63v-9.39H20.73L3.5 153.11v51.66z"/><path id="green_gradation" d="M3.5 204.77h27.14l12.63-12.63v-9.39H20.73L3.5 153.11v51.66z" fill="url(#g-chrome-green)"/><path id="green_shadow" d="M30.64 204.77l6.8-25.36 5.76 3.34-12.56 22.02z" fill="url(#g-chrome-green_shadow)"/><path id="yellow_base" class="c-chrome-yellow" d="M32 163.31l11.21 19.43-12.5 22.02h29.8v-41.45H32z"/><path id="yellow_gradation" d="M32 163.31l11.21 19.43-12.5 22.02h29.8v-41.45H32z" fill="url(#g-chrome-yellow)"/><path id="yellow_shadow" d="M32 163.31v6.8l25.39-6.8H32z" fill="url(#g-chrome-yellow_shadow)"/></g></g><g id="chrome-highlight"><path class="c-black" d="M21 182.57L8.11 160.45l-.19.32 12.63 21.96.45-.16zm21.95.6l-.26-.13-12.25 21.43.32.01 12.26-21.44-.07.13zM32 162.99c-7.13 0-12.95 5.83-12.95 12.95v.32c0-7.13 5.83-12.95 12.95-12.95h25.39l-.17-.32H32z"/><path class="c-white" d="M43.21 182.75c-2.27 3.89-6.41 6.48-11.21 6.48s-8.97-2.59-11.21-6.48L8.02 160.86l-.1.15 12.87 22.06c2.27 3.89 6.41 6.48 11.21 6.48s8.97-2.59 11.21-6.48v-.32z"/><path class="c-black" d="M32.32 163.31h-.16c7.13.1 12.79 5.83 12.79 12.95s-5.7 12.86-12.79 12.95h.16c7.13 0 12.95-5.83 12.95-12.95s-5.82-12.95-12.95-12.95z"/><path class="c-white" d="M43.34 183.17c1.1-1.88 1.75-4.08 1.75-6.48 0-1.3-.23-2.66-.65-3.89.32 1.1.52 2.27.52 3.47 0 2.36-.65 4.53-1.75 6.48l-12.34 21.73h.32l12.21-21.25-.06-.06z"/></g><g id="chrome-center"><circle id="c-center_2" class="c-white" cx="32" cy="176.27" r="12.95"/><circle id="center_1" class="chrome-center" cx="32" cy="176.27" r="10.36"/></g></g><g id="ico_firefox"><g id="earth"><radialGradient id="g-ff_earth" cx="-8004.927" cy="8978.75" r="49.05" gradientTransform="matrix(1.225 0 0 -1.225 9921.738 11155.728)" gradientUnits="userSpaceOnUse"><stop offset="0" stop-color="#00ccda"/><stop offset=".22" stop-color="#0083ff"/><stop offset=".261" stop-color="#007af9"/><stop offset=".33" stop-color="#0060e8"/><stop offset=".333" stop-color="#005fe7"/><stop offset=".438" stop-color="#2639ad"/><stop offset=".522" stop-color="#401e84"/><stop offset=".566" stop-color="#4a1475"/></radialGradient><path d="M104.23 205.2c15.2 0 27.52-12.38 27.52-27.65s-12.32-27.65-27.5-27.65-27.5 12.38-27.5 27.65c-.04 15.29 12.29 27.65 27.48 27.65z" fill="url(#g-ff_earth)"/></g><g id="shadow"><linearGradient id="g-ff_shadow" gradientUnits="userSpaceOnUse" x1="108.11" y1="836.011" x2="96.242" y2="874.832" gradientTransform="matrix(1 0 0 -1 0 1026)"><stop offset="0" stop-color="#000f43" stop-opacity=".4"/><stop offset=".485" stop-color="#001962" stop-opacity=".173"/><stop offset="1" stop-color="#002079" stop-opacity="0"/></linearGradient><path d="M124.85 194.6c-.59.42-1.22.8-1.87 1.13a43.1 43.1 0 0 0 2.37-3.9c.59-.65 1.12-1.28 1.56-1.96.21-.34.45-.75.71-1.23 1.54-2.78 3.25-7.29 3.3-11.91v-.35c.01-1.16-.11-2.32-.35-3.46l.03.27c-.01-.07-.03-.14-.04-.21.02.13.04.25.06.37.32 2.68.09 5.29-1.03 7.22-.02.03-.04.05-.05.08.58-2.93.78-6.16.13-9.4 0 0-.26-1.57-2.19-6.35-1.11-2.75-3.09-5-4.84-6.65-1.53-1.89-2.92-3.16-3.69-3.97-1.6-1.69-2.27-2.95-2.55-3.77-.24-.12-3.29-3.09-3.54-3.2-1.33 2.07-5.53 8.53-3.53 14.58.9 2.74 3.19 5.58 5.58 7.17.11.12 1.42 1.55 2.05 4.78.65 3.34.31 5.94-1.03 9.79-1.57 3.38-5.58 6.72-9.34 7.06-8.04.73-10.98-4.04-10.98-4.04 2.87 1.15 6.05.91 7.98-.28 1.95-1.2 3.12-2.1 4.08-1.74.94.35 1.69-.67 1.02-1.72a4.85 4.85 0 0 0-4.92-2.14c-1.95.32-3.73 1.86-6.29.37-.17-.1-.33-.2-.48-.31-.17-.11.55.17.38.04-.5-.27-1.38-.86-1.6-1.07-.04-.03.39.14.35.1-2.39-1.97-2.09-3.29-2.01-4.13.06-.67.49-1.52 1.22-1.87.35.19.57.34.57.34s-.15-.31-.23-.47c.03-.01.06-.01.08-.02.29.14.93.5 1.27.72.44.31.58.58.58.58s.12-.06.03-.33c-.03-.11-.16-.46-.6-.82h.03c.26.15.51.32.74.51.12-.45.34-.91.29-1.74-.03-.58-.02-.74-.12-.96-.09-.19.05-.27.21-.07a1.88 1.88 0 0 0-.14-.46v-.02c.2-.7 4.23-2.51 4.52-2.72.48-.34.89-.78 1.19-1.29.22-.36.39-.86.43-1.62.02-.55-.23-.91-4.31-1.34-1.11-.11-1.77-.92-2.14-1.66-.07-.16-.14-.31-.21-.45-.07-.17-.12-.34-.16-.52.67-1.91 1.79-3.53 3.43-4.75.09-.08-.36.02-.27-.06.1-.1.79-.37.92-.43.16-.07-.67-.43-1.41-.34-.75.08-.91.17-1.31.34.17-.16.69-.38.57-.38-.81.12-1.81.59-2.67 1.12 0-.09.02-.18.05-.27-.4.17-1.38.85-1.67 1.43.01-.11.02-.22.02-.33-.3.25-.58.54-.82.86l-.01.01c-2.32-.93-4.35-.99-6.08-.58-.38-.38-.56-.1-1.42-1.99-.06-.11.04.11 0 0-.14-.37.09.49 0 0-1.44 1.14-3.34 2.43-4.25 3.34-.01.04 1.06-.3 0 0-.37.11-.35.33-.4 2.32-.01.15 0 .32-.01.46-.73.93-1.22 1.71-1.41 2.12-.94 1.62-1.98 4.15-2.98 8.16.44-1.08.98-2.13 1.6-3.12-.84 2.12-1.64 5.46-1.81 10.6.2-1.06.46-2.11.78-3.14-.2 4.26.54 8.52 2.15 12.46.58 1.41 1.53 3.56 3.16 5.91 5.12 5.38 12.33 8.73 20.32 8.73 8.36.02 15.85-3.63 21-9.43z" fill="url(#g-ff_shadow)"/></g><g id="fox-shadow"><radialGradient id="g-ff_fox_shadow_1" cx="-15549.928" cy="9401.182" r="27.951" fx="-15551.711" fy="9401.182" gradientTransform="matrix(.762 .034 .05 -1.12 11509.88 11218.068)" gradientUnits="userSpaceOnUse"><stop offset=".045" stop-color="#ffea00"/><stop offset=".12" stop-color="#ffde00"/><stop offset=".254" stop-color="#ffbf00"/><stop offset=".429" stop-color="#ff8e00"/><stop offset=".769" stop-color="#ff272d"/><stop offset=".872" stop-color="#e0255a"/><stop offset=".953" stop-color="#cc2477"/><stop offset="1" stop-color="#c42482"/></radialGradient><radialGradient id="g-ff_fox_shadow_2" cx="-9022.008" cy="7837.324" r="16.545" gradientTransform="matrix(1.219 .123 .123 -1.219 10169.97 10847.582)" gradientUnits="userSpaceOnUse"><stop offset=".003" stop-color="#ffea00"/><stop offset=".497" stop-color="#ff272d"/><stop offset="1" stop-color="#c42482"/></radialGradient><radialGradient id="g-ff_fox_shadow_3" cx="-9023.505" cy="7853.188" r="27.628" gradientTransform="matrix(1.219 .123 .123 -1.219 10169.97 10847.582)" gradientUnits="userSpaceOnUse"><stop offset=".003" stop-color="#ffe900"/><stop offset=".157" stop-color="#ffaf0e"/><stop offset=".316" stop-color="#ff7a1b"/><stop offset=".472" stop-color="#ff4e26"/><stop offset=".621" stop-color="#ff2c2e"/><stop offset=".762" stop-color="#ff1434"/><stop offset=".892" stop-color="#ff0538"/><stop offset="1" stop-color="#ff0039"/></radialGradient><radialGradient id="g-ff_fox_shadow_4" cx="-9019.597" cy="7827.577" r="25.352" gradientTransform="matrix(1.219 .123 .123 -1.219 10169.97 10847.582)" gradientUnits="userSpaceOnUse"><stop offset=".003" stop-color="#ff272d"/><stop offset=".497" stop-color="#c42482"/><stop offset=".986" stop-color="#620700"/></radialGradient><path d="M122.35 150.46c-1.48 1.73-2.18 5.62-.67 9.56s3.81 3.09 5.25 7.11c1.9 5.31 1.01 12.43 1.01 12.43s2.28 6.61 3.87-.41c3.52-13.18-9.46-25.44-9.46-28.69z" fill="url(#g-ff_fox_shadow_1)"/><path d="M118.68 198.51c10.1-1.17 14.57-11.57 8.83-11.78-5.19-.16-13.62 12.34-8.83 11.78z" fill="url(#g-ff_fox_shadow_2)"/><path d="M128.23 184.61c6.95-4.04 5.14-12.78 5.14-12.78s-2.68 3.11-4.5 8.08c-1.81 4.92-4.82 7.14-.64 4.7z" fill="url(#g-ff_fox_shadow_3)"/><path d="M106.18 203.68c9.68 3.09 18.01-4.54 12.88-7.09-4.67-2.29-17.48 5.63-12.88 7.09z" fill="url(#g-ff_fox_shadow_4)"/></g><g id="fox"><radialGradient id="g-ff_fox_body_1" cx="118.93" cy="856.787" r="48.489" fx="120.664" fy="855.93" gradientTransform="matrix(1 0 0 -1 0 1026)" gradientUnits="userSpaceOnUse"><stop offset=".156" stop-color="#ffea00"/><stop offset=".231" stop-color="#ffde00"/><stop offset=".365" stop-color="#ffbf00"/><stop offset=".541" stop-color="#ff8e00"/><stop offset=".763" stop-color="#ff272d"/><stop offset=".796" stop-color="#f92433"/><stop offset=".841" stop-color="#e91c45"/><stop offset=".893" stop-color="#cf0e62"/><stop offset=".935" stop-color="#b5007f"/></radialGradient><radialGradient id="g-ff_fox_body_2" cx="115.281" cy="881.135" r="57.257" gradientTransform="matrix(1 0 0 -1 0 1026)" gradientUnits="userSpaceOnUse"><stop offset=".279" stop-color="#ffea00"/><stop offset=".402" stop-color="#fd0"/><stop offset=".63" stop-color="#ffba00"/><stop offset=".856" stop-color="#ff9100"/><stop offset=".933" stop-color="#ff6711"/><stop offset=".994" stop-color="#ff4a1d"/></radialGradient><linearGradient id="g-ff_fox_body_3" gradientUnits="userSpaceOnUse" x1="-9064.327" y1="7847.06" x2="-9046.699" y2="7851.553" gradientTransform="matrix(1.219 .123 .123 -1.219 10169.97 10847.582)"><stop offset="0" stop-color="#c42482" stop-opacity=".5"/><stop offset=".474" stop-color="#ff272d" stop-opacity=".5"/><stop offset=".486" stop-color="#ff2c2c" stop-opacity=".513"/><stop offset=".675" stop-color="#ff7a1a" stop-opacity=".72"/><stop offset=".829" stop-color="#ffb20d" stop-opacity=".871"/><stop offset=".942" stop-color="#ffd605" stop-opacity=".964"/><stop offset="1" stop-color="#ffe302"/></linearGradient><linearGradient id="g-ff_fox_body_4" gradientUnits="userSpaceOnUse" x1="-174.151" y1="585.959" x2="-168.317" y2="579.333" gradientTransform="matrix(.995 .1 .1 -.995 202.944 774.304)"><stop offset=".005" stop-color="#891551" stop-opacity=".5"/><stop offset=".484" stop-color="#ff272d" stop-opacity=".5"/><stop offset="1" stop-color="#ff272d" stop-opacity="0"/></linearGradient><path d="M128.95 188.32c.24-.33.55-1.4.84-1.87 1.71-2.76 1.72-4.96 1.72-5.01 1.03-5.16.94-7.27.3-11.16-.51-3.14-2.75-7.63-4.68-9.79-2-2.23-.59-1.5-2.52-3.13-1.69-1.88-3.34-3.74-4.23-4.49-6.46-5.4-6.32-6.55-6.19-6.75-.02.02-.05.06-.09.1-.08-.31-.13-.56-.13-.56s-3.53 3.53-4.28 9.42c-.49 3.84.95 7.85 3.04 10.41 1.09 1.33 2.31 2.53 3.66 3.6 1.57 2.26 2.44 5.05 2.44 8.05 0 7.52-6.1 13.61-13.62 13.61-1.02 0-2.05-.11-3.05-.34-3.55-.68-5.6-2.47-6.62-3.68-.59-.7-.83-1.2-.83-1.2 3.18 1.14 6.69.9 8.83-.28 2.15-1.19 3.46-2.08 4.52-1.73 1.04.35 1.87-.66 1.13-1.71-.73-1.04-2.63-2.54-5.45-2.13-2.16.31-4.13 1.84-6.96.36-.18-.09-.36-.2-.53-.31-.19-.11.61.17.42.04-.55-.27-1.52-.85-1.78-1.06-.04-.03.43.13.38.1-2.64-1.95-2.31-3.27-2.23-4.09.07-.66.55-1.51 1.36-1.85.39.19.63.34.63.34s-.17-.3-.26-.47c.03-.01.06-.01.09-.02.32.14 1.03.5 1.4.72.49.31.64.58.64.58s.13-.06.03-.33c-.03-.11-.18-.46-.66-.81h.03c.29.15.56.31.81.51.14-.44.38-.9.33-1.73-.03-.58-.02-.73-.13-.95-.1-.19.06-.27.23-.07-.03-.16-.08-.31-.15-.46v-.01c.22-.69 4.68-2.49 5.01-2.7.52-.33.97-.76 1.31-1.28.25-.35.43-.85.48-1.61.02-.34-.09-.61-1.27-.87-.71-.15-1.81-.3-3.5-.46-1.23-.11-1.96-.91-2.37-1.65-.08-.16-.15-.3-.23-.45-.07-.17-.13-.34-.18-.52a9.901 9.901 0 0 1 3.8-4.72c.1-.08-.4.02-.3-.06.12-.09.87-.37 1.01-.43.17-.07-.75-.42-1.56-.34-.83.08-1 .17-1.45.34.18-.16.77-.38.63-.38-.89.12-2 .59-2.95 1.11 0-.09.02-.18.06-.27-.44.17-1.53.85-1.84 1.42.01-.11.02-.22.02-.33-.33.25-.64.53-.91.85l-.02.01c-2.56-.93-4.82-.99-6.73-.57-.42-.38-1.09-.94-2.04-2.81-.06-.11-.1.23-.15.12-.37-.86-.59-2.26-.56-3.23 0 0-.76.35-1.4 1.8-.12.26-.19.41-.27.55-.03.04.08-.48.06-.45-.11.19-.39.45-.52.78-.09.25-.21.39-.28.7l-.02.03c-.01-.09.02-.38 0-.32-.3.6-.55 1.22-.76 1.85-.34 1.12-.74 2.64-.8 4.62-.02.15 0 .32-.02.45-.81.92-1.36 1.7-1.56 2.1-1.04 1.61-2.19 4.12-3.3 8.09.5-1.08 1.09-2.12 1.77-3.1-.93 2.11-1.82 5.41-2 10.51.22-1.05.51-2.09.86-3.11-.16 3.4.24 7.61 2.38 12.36 1.28 2.8 4.21 8.47 11.38 12.9 0 0 2.44 1.82 6.63 3.18.31.11.62.22.94.33-.1-.04-.2-.08-.29-.13 2.79.84 5.69 1.26 8.6 1.26 10.86.01 14.06-4.35 14.06-4.35s-.01.01-.03.02c.15-.14.3-.29.44-.45-1.71 1.62-5.62 1.73-7.09 1.61 2.49-.73 4.13-1.35 7.33-2.57.37-.14.76-.3 1.15-.47.04-.02.08-.04.13-.06.08-.04.15-.07.23-.11 1.56-.73 3.02-1.65 4.36-2.73 3.2-2.56 3.9-5.06 4.27-6.7-.05.16-.21.53-.32.76-.83 1.77-2.66 2.85-4.64 3.78.95-1.24 1.82-2.53 2.63-3.87.69-.6.9-1.61 1.38-2.28z" fill="url(#g-ff_fox_body_1)" class="fox_body_1"/><path d="M125.05 194.44c1.31-1.44 2.48-3.09 3.37-4.96 2.29-4.81 5.82-12.81 3.04-21.16-2.2-6.6-5.22-10.21-9.06-13.74-6.23-5.73-7.97-8.28-7.97-9.8 0 0-7.2 8.02-4.08 16.39 3.12 8.37 9.51 8.06 13.74 16.79 4.98 10.27-4.03 21.49-11.47 24.63.46-.1 16.55-3.74 17.4-12.95-.03.17-.39 2.72-4.97 4.8z" fill="url(#g-ff_fox_body_2)"/><path d="M104.2 164.58c.02-.54-.26-.91-4.75-1.33-1.85-.17-2.56-1.88-2.77-2.6-.66 1.71-.93 3.5-.78 5.67.1 1.42 1.05 2.95 1.51 3.84 0 0 .1-.13.15-.18.86-.89 4.46-2.26 4.8-2.45.36-.23 1.78-1.27 1.84-2.95z" fill="url(#g-ff_fox_body_3)"/><path d="M96.28 189.43c-4.32-1.85-9.24-4.45-9.05-10.36.25-7.79 7.26-6.25 7.26-6.25-.26.06-.97.57-1.22 1.1-.26.67-.75 2.19.72 3.78 2.3 2.49-4.72 5.91 6.12 12.37.27.15-2.55-.09-3.83-.64z" fill="url(#g-ff_fox_body_4)"/></g><g id="fox-hilight"><linearGradient id="g-ff_fox_hl_1" gradientUnits="userSpaceOnUse" x1="113.062" y1="878.976" x2="132.01" y2="836.604" gradientTransform="matrix(1 0 0 -1 0 1026)"><stop offset="0" stop-color="#fff14f"/><stop offset=".268" stop-color="#ffee4c"/><stop offset=".452" stop-color="#ffe643"/><stop offset=".612" stop-color="#ffd834"/><stop offset=".757" stop-color="#ffc41e"/><stop offset=".892" stop-color="#ffab02"/><stop offset=".902" stop-color="#ffa900"/><stop offset=".949" stop-color="#ffa000"/><stop offset="1" stop-color="#ff9100"/></linearGradient><linearGradient id="g-ff_fox_hl_2" gradientUnits="userSpaceOnUse" x1="140.509" y1="2198.867" x2="137.126" y2="2207.537" gradientTransform="matrix(.995 .1 .1 -.995 -276.191 2334.716)"><stop offset="0" stop-color="#891551" stop-opacity=".6"/><stop offset="1" stop-color="#c42482" stop-opacity="0"/></linearGradient><linearGradient id="g-ff_fox_hl_3" gradientUnits="userSpaceOnUse" x1="-163.115" y1="574.444" x2="-163.111" y2="579.08" gradientTransform="matrix(.995 .1 .1 -.995 202.944 774.304)"><stop offset="0" stop-color="#c42482"/><stop offset=".083" stop-color="#c42482" stop-opacity=".81"/><stop offset=".206" stop-color="#c42482" stop-opacity=".565"/><stop offset=".328" stop-color="#c42482" stop-opacity=".362"/><stop offset=".447" stop-color="#c42482" stop-opacity=".204"/><stop offset=".562" stop-color="#c42482" stop-opacity=".091"/><stop offset=".673" stop-color="#c42482" stop-opacity=".023"/><stop offset=".773" stop-color="#c42482" stop-opacity="0"/></linearGradient><linearGradient id="g-ff_fox_hl_4" gradientUnits="userSpaceOnUse" x1="116.803" y1="854.607" x2="107.828" y2="830.508" gradientTransform="matrix(1 0 0 -1 0 1026)"><stop offset="0" stop-color="#ff8e00"/><stop offset=".04" stop-color="#ff8e00" stop-opacity=".858"/><stop offset=".084" stop-color="#ff8e00" stop-opacity=".729"/><stop offset=".13" stop-color="#ff8e00" stop-opacity=".628"/><stop offset=".178" stop-color="#ff8e00" stop-opacity=".557"/><stop offset=".227" stop-color="#ff8e00" stop-opacity=".514"/><stop offset=".282" stop-color="#ff8e00" stop-opacity=".5"/><stop offset=".389" stop-color="#ff8e00" stop-opacity=".478"/><stop offset=".524" stop-color="#ff8e00" stop-opacity=".416"/><stop offset=".676" stop-color="#ff8e00" stop-opacity=".314"/><stop offset=".838" stop-color="#ff8e00" stop-opacity=".172"/><stop offset="1" stop-color="#ff8e00" stop-opacity="0"/></linearGradient><path d="M125.04 194.48c6.46-6.34 9.72-14.05 8.34-22.69 0 0 .55 4.43-1.54 8.97 1.01-4.43 1.12-9.93-1.55-15.62-3.56-7.6-9.43-11.6-11.66-13.27-3.39-2.53-4.8-5.1-4.82-5.63-1.01 2.08-4.08 9.19-.33 15.31 3.51 5.74 9.04 7.44 12.91 12.71 7.14 9.68-1.35 20.22-1.35 20.22z" fill="url(#g-ff_fox_hl_1)"/><path d="M84.41 154.49c-.06-.11-.1.23-.15.12-.37-.86-.59-2.24-.54-3.22 0 0-.76.35-1.4 1.8-.12.26-.19.41-.27.55-.03.04.08-.48.06-.45-.11.19-.39.45-.52.77-.1.26-.21.4-.29.73-.02.09.02-.39 0-.33-1.47 2.84-1.75 7.14-1.6 6.95 3.13-3.34 6.72-4.13 6.72-4.13-.37-.29-1.2-1.1-2.01-2.79z" fill="url(#g-ff_fox_hl_2)"/><path d="M94.75 185.54c3.07 1.07 6.64.88 8.77-.3 1.43-.8 3.27-2.07 4.4-1.76-.98-.39-1.72-.57-2.61-.61-.15 0-.33 0-.5-.02-.33 0-.65.02-.98.05-.55.05-1.16.4-1.72.34-.03 0 .54-.23.49-.22-.29.06-.61.07-.95.12-.21.02-.4.05-.61.06-6.38.54-11.78-3.46-11.78-3.46-.46 1.55 2.05 4.61 5.49 5.8z" fill="url(#g-ff_fox_hl_3)"/><path d="M124.11 177.99c-2.26-4.66-5.07-6.7-7.74-8.9.31.43.39.59.56.87 2.34 2.5 5.8 8.6 3.29 16.25-4.73 14.41-23.63 7.62-25.61 5.72.8 8.34 14.76 12.33 23.84 6.92 5.18-4.91 9.36-13.23 5.66-20.86z" fill="url(#g-ff_fox_hl_4)"/></g></g><path class="c-ie" d="M197.86 164.09c8.56-19.37-9.17-16.53-10.16-16.34a44.46 44.46 0 0 0-10.43 3.41c-.47-.03-.95-.04-1.43-.04-11.96 0-21.97 8.34-24.54 19.52 6.31-7.07 10.72-9.92 13.36-11.07-9.55 8.57-14.52 18.5-14.83 18.96-.56.78-3.25 6.47-3.43 7.17-7.16 25.59 15.18 14.79 18.3 13.17 3.36 1.66 7.14 2.59 11.14 2.59 10.95 0 20.26-6.98 23.72-16.74h-13.23c-1.96 3.31-5.72 5.55-10.05 5.55-6.34 0-11.48-4.8-11.48-10.73h36c.79-6.53-.93-11.84-2.94-15.45zm-1.55-12.57c2.17 1.46 3.91 3.76.92 11.5a25.262 25.262 0 0 0-12.29-10.2c2.32-1.13 8.1-3.51 11.37-1.3zm-46.06 47.3c-1.77-1.81-2.08-6.22 1.81-14.26a25.3 25.3 0 0 0 10.96 13.4c-2.52 1.38-9.21 4.51-12.77.86zm14.5-26.17c.2-5.76 5.21-10.37 11.37-10.37 6.16 0 11.17 4.61 11.37 10.37h-22.74z" id="ico_ie"/><path class="c-edge" d="M273.5 175.29c0-15.31-10.7-25.82-24.9-26.01-14.29.18-24.25 10.42-26.1 24.72 5.16-8.48 15.4-14.2 24.44-14.2 7.38 0 11.34 3.97 11.34 11.8h-19.74c.37-3.32 1.84-6.73 3.87-8.76-7.93 3.23-13.46 10.42-13.46 20.1 0 11.99 9.22 21.67 22.69 21.67 6.82 0 12.36-1.48 17.15-3.97v-11.71c-4.33 2.58-9.5 4.15-15.22 4.15-8.58 0-14.76-4.15-14.76-11.71h34.68v-6.08z" id="ico_edge"/><g id="safari"><defs><linearGradient id="g-safari_base" x1="1.64" y1="576.75" x2="1.64" y2="576.61" gradientTransform="matrix(448 0 0 -448 -415 258529)" gradientUnits="userSpaceOnUse"><stop offset="0" stop-color="#4ec0e4"/><stop offset="1" stop-color="#3061ad"/></linearGradient></defs><circle id="safari_base" cx="320" cy="176" r="30" fill="url(#g-safari_base)"/><path id="safari_hand2" class="safari-hand" d="M340.49 155.37l-23 18.09 5.35 5.35z"/><path id="safari_hand1" class="c-white" d="M299.38 196.49l18.08-23 5.35 5.35z"/><path d="M320 149v4.42m0 45.13v4.42m4.69-53.56l-.77 4.35m-7.84 44.44l-.77 4.35m13.92-51.92l-1.52 4.15m-15.42 42.4l-1.52 4.16m4.54-51.93l.77 4.35m7.84 44.44l.77 4.35m-13.92-51.92l1.52 4.15m15.42 42.4l1.52 4.16m-22.73-48.78l2.22 3.83m22.57 39.08l2.21 3.83m-30.84-44.05l2.84 3.39m29 34.58l2.84 3.39m-38-38l3.39 2.84m34.58 29l3.39 2.84m-44.05-30.83l3.83 2.21m39.08 22.56l3.83 2.21m-48.72-22.72l4.15 1.51m42.4 15.43l4.15 1.51m-51.92-13.91l4.35.76m44.44 7.85l4.35.76m-53.59-4.7h4.42m45.14 0H347m-53.56 4.69l4.35-.76m44.43-7.86l4.35-.76m-51.92 13.91l4.15-1.51m42.4-15.43l4.15-1.51m-48.72 22.72l3.83-2.21m39.08-22.56l3.83-2.21m-44.05 30.83l3.39-2.84m34.58-29l3.39-2.84m-38 38l2.84-3.39m29-34.58l2.84-3.39M306.5 199.3l2.22-3.83m22.57-39.08l2.21-3.83m-15.86-3.51l.22 2.4m4.28 49l.22 2.39M313 149.87l.63 2.33m12.72 47.47L327 202m-18.4-50.52l1 2.18m20.77 44.55l1 2.18m-26.89-46.57l1.38 2m28.2 40.26l1.38 2m-34.56-41.19l1.7 1.7m34.76 34.77l1.7 1.7m-41.19-34.57l2 1.38M340.13 190l2 1.38m-46.57-26.9l2.19 1m44.54 20.77l2.19 1m-50.52-18.4l2.33.63m47.46 12.72l2.33.63m-52.94-9.34l2.4.21m49 4.29l2.4.21m-53.76 0l2.4-.21m49-4.29l2.4-.21m-52.94 9.34l2.33-.63m47.46-12.72l2.33-.63m-50.52 18.4l2.19-1m44.54-20.79l2.19-1m-46.57 26.9l2-1.38m40.26-28.21l2-1.38M304.52 198l1.38-2m28.19-40.26l1.39-2m-26.89 46.57l1-2.18m20.76-44.55l1-2.18M313 202l.63-2.33m12.72-47.47l.63-2.33m-9.35 52.94l.22-2.39m4.28-49l.22-2.4m-2.15 53.9h-.4v-4.42h.4zm2-.09l-.22-2.4h.4l.22 2.39zm-4.32 0h-.4l.22-2.39h.4zm6.65-.29l-.76-4.35.39-.07.77 4.35zm-9 0l-.4-.07.77-4.35.39.07zm11.29-.49l-.63-2.33.39-.11.63 2.33zm-13.6 0l-.39-.11.63-2.33.39.11zm15.84-.7l-1.51-4.15.37-.13 1.52 4.15zm-18.08 0l-.38-.13 1.52-4.15.37.13zm20.27-.88l-1-2.18.36-.17 1 2.18zm-22.46 0l-.36-.17 1-2.18.36.17zm-2.1-1.07l-.34-.2 2.22-3.83.35.2zm26.66 0l-2.21-3.83.34-.2 2.21 3.83zm2-1.24l-1.38-2 .33-.23 1.38 2zm-30.64 0l-.33-.23 1.38-2 .33.23zm32.51-1.42l-2.84-3.39.31-.26 2.84 3.39zm-34.38 0l-.31-.26 2.84-3.39.31.26zm36.13-1.58l-1.7-1.7.29-.29 1.7 1.71zm1.61-1.73l-3.39-2.84.26-.31 3.39 2.84zm-41.1 0l-.26-.31 3.39-2.84.26.31zm42.52-1.85l-2-1.38.23-.33 2 1.38zm-44 0l-.23-.33 2-1.38.23.33zm45.27-2l-3.83-2.21.2-.35 3.83 2.21zm-46.54 0l-.2-.35 3.83-2.21.2.35zm-1.1-2.08l-.17-.37 2.18-1 .17.37zm48.74 0l-2.18-1 .17-.36 2.18 1zm.91-2.18l-4.15-1.51.14-.38 4.15 1.51zm-50.56 0l-.14-.38 4.15-1.51.14.38zm51.28-2.2l-2.33-.63.1-.39 2.33.63zm-52 0l-.1-.39 2.33-.63.1.39zm52.55-2.3l-4.36-.76.07-.4 4.36.76zm-53.08 0l-.07-.4 4.36-.76.07.4zm53.4-2.33l-2.4-.21v-.4l2.4.21zm-53.72 0v-.4l2.4-.21v.4zm53.85-2.36h-4.42v-.4H347zm-49.56 0H293v-.4h4.42zM344.5 174v-.4l2.4-.21v.4zm-49 0l-2.4-.21v-.4l2.4.21zm46.75-1.78l-.07-.4 4.36-.76.07.39zm-44.5 0l-4.36-.77.07-.39 4.36.76zm46-2.44l-.1-.39 2.33-.63.1.39zm-47.56 0l-2.33-.63.1-.39 2.33.63zm45-1.36l-.14-.38 4.15-1.51.14.37zm-42.54 0l-4.15-1.52.14-.37 4.15 1.51zm43.63-2.69l-.17-.36 2.18-1 .17.36zm-44.72 0l-2.18-1 .17-.36 2.18 1zm42-.89l-.2-.35 3.83-2.21.2.35zm-39.28 0l-3.83-2.21.2-.35 3.83 2.21zm39.96-2.84l-.23-.33 2-1.38.23.33zm-40.48 0l-2-1.38.23-.33 2 1.38zm37.66-.42l-.26-.31 3.39-2.83.26.3zm-34.84 0l-3.39-2.84.26-.3 3.39 2.83zm32.08-2.81l-.31-.26 2.84-3.38.31.25zm-29.32 0l-2.84-3.39.31-.25 2.84 3.38zm-2.87-.08l-1.7-1.7.29-.28 1.7 1.7zm6.08-2.2l-2.22-3.83.34-.2 2.23 3.83zm22.91 0l-.34-.2 2.21-3.83.34.2zm2.79-.57l-.33-.23 1.4-2 .33.23zm-28.52 0l-1.38-2 .33-.23 1.38 2zm22.17-1.12l-.37-.14 1.51-4.15.38.14zm-15.8 0l-1.52-4.15.38-.14 1.51 4.15zm12-1.05l-.39-.07.76-4.35.4.07zm-8.24 0l-.77-4.35.4-.07.76 4.35zm14.68 0l-.36-.18 1-2.18.36.17zm-21.13 0l-1-2.19.36-.17 1 2.19zm10.77-.38h-.4V149h.4zm6.36-1.12l-.39-.1.63-2.33.39.1zm-13.12 0l-.63-2.33.39-.1.63 2.33zm8.9-.78h-.4l.22-2.39h.4zm-4.68 0l-.22-2.4h.4l.22 2.39z" id="safari_memori" class="c-white"/></g><path class="c-rss" d="M522.29 262.19a6.84 6.84 0 0 1 0 9.73 6.9 6.9 0 0 1-9.76 0 6.84 6.84 0 0 1 0-9.73 6.9 6.9 0 0 1 9.76 0zm0 0zm-9.76 9.73zm-2-32.24v9.93A24.38 24.38 0 0 1 534.84 274h10a34.36 34.36 0 0 0-34.3-34.32zm0-17.68v9.92a42.14 42.14 0 0 1 42 42.08h10a52.08 52.08 0 0 0-52-52z" id="ico_rss"/><style>.c-pdf{fill:#ff4339}</style><g id="ico_word"><defs><linearGradient id="g-word" gradientUnits="userSpaceOnUse" x1="32" y1="279.772" x2="32" y2="216.45"><stop offset="0" stop-color="#0876a7"/><stop offset="1" stop-color="#00478b"/></linearGradient></defs><path id="word_base" d="M58 280.02H6c-3.31 0-6-2.69-6-6v-52c0-3.31 2.69-6 6-6h52c3.31 0 6 2.69 6 6v52c0 3.32-2.69 6-6 6z" fill="url(#g-word)"/><path class="c-white" d="M40.83 262.65H33.8l-1.25-19c-.01-.2-.01-.45.01-.74s.05-.58.08-.88a20.62 20.62 0 0 1 .23-1.6h-.07c-.07.22-.15.47-.26.76-.1.29-.21.58-.32.88-.11.3-.22.59-.33.86-.11.27-.21.51-.31.71l-9.3 19h-7.54l-1.49-29.3h6.95l.2 19.43c.01.23.01.5-.01.8s-.05.6-.09.9-.08.58-.12.85-.08.49-.1.66h.12c.05-.2.13-.45.22-.73s.2-.57.32-.88c.12-.31.24-.61.37-.9.13-.29.24-.54.34-.75l9.42-19.39h6.99l.96 19.64c.01.19.02.41.01.66l-.03.79c-.01.27-.03.54-.06.81s-.05.5-.08.71h.08c.05-.19.13-.42.21-.69.09-.27.18-.55.29-.84.1-.29.2-.57.31-.84s.19-.51.28-.71l8.11-19.51h6.91l-14.02 29.3z" id="word_text"/></g><g id="ico_excel"><defs><linearGradient id="g-excel" gradientUnits="userSpaceOnUse" x1="104" y1="279.8" x2="104" y2="216.45"><stop offset="0" stop-color="#13954d"/><stop offset="1" stop-color="#226f45"/></linearGradient></defs><path id="excel_base" d="M130 280.02H78c-3.31 0-6-2.69-6-6v-52c0-3.31 2.69-6 6-6h52c3.31 0 6 2.69 6 6v52c0 3.32-2.69 6-6 6z" fill="url(#g-excel)"/><path class="c-white" d="M108.72 248.78l5.97 14.91H107l-3.03-9.57c-.06-.15-.1-.34-.14-.55-.04-.21-.06-.42-.08-.64s-.04-.43-.05-.63c-.01-.2-.02-.37-.02-.49h-.08c-.11.24-.26.57-.43 1.01-.18.44-.39.83-.64 1.18l-7.24 9.7h-8.41l12.94-15.54-5.83-14.62h7.93l2.67 9.28c.04.17.08.36.12.58.04.22.06.44.08.66.02.22.04.43.04.63.01.2.01.36.01.48h.11c.04-.11.1-.25.17-.43s.15-.37.25-.58c.1-.21.2-.42.31-.62.1-.2.22-.39.35-.56l7.19-9.44h7.93l-12.43 15.24z" id="excel_text"/></g><g id="ico_pdf"><defs><linearGradient id="g-pdf" gradientUnits="userSpaceOnUse" x1="176" y1="279.75" x2="176" y2="216.429"><stop offset="0" stop-color="#ff6d37"/><stop offset="1" stop-color="#ff4339"/></linearGradient></defs><path id="pdf_base" d="M202 280h-52c-3.31 0-6-2.69-6-6v-52c0-3.31 2.69-6 6-6h52c3.31 0 6 2.69 6 6v52c0 3.31-2.69 6-6 6z" fill="url(#g-pdf)"/><g id="pdf_symbol"><path class="c-white" d="M152.69 267.55c.49-2.4 3.17-5.21 7.36-7.71.46-.28 2.54-1.37 2.54-1.37.22-.12.46-.18.7-.18 1.08-1.85 2.29-4.05 3.64-6.69 1.39-2.72 2.84-5.56 3.99-8.36l.28-.67c-1.59-6.14-2.44-10.92-1.54-14.24.42-1.48 1.9-2.47 3.7-2.47l.63.01h.05c2.29 0 3.53 2.22 3.71 3.82.13 1.17-.22 2.74-.39 3.4v.2c-.03.59-.29 5.76-.68 7.53l-.16.64c1.26 3.31 3.21 6.31 5.54 8.48.77.73 1.78 1.36 2.78 1.95 2.5-.33 4.91-.47 6.86-.48 3.34.05 5.51.6 6.61 1.69.62.6.98 1.4 1.07 2.35.02.41-.06.9-.12 1.18 0 .11-.01.21-.04.32-.3 1.37-.54 1.75-.62 1.88-.52.71-1.28 1.23-2 1.42-2.73.73-8.58-.78-13.48-3.47-4.82.74-10.24 2.03-15.07 3.58-3.48 6.03-7.19 11.33-11.05 11.33-.67 0-1.33-.16-2-.49l-1.07-.54c-.03-.01-.05-.03-.08-.04-.97-.59-1.43-1.78-1.16-3.07z"/><path d="M172.07 253.14c-.01.01-.01.01 0 0-.17.32-.34.64-.51.95 1.89-.62 3.94-1.18 6.16-1.67a21.756 21.756 0 0 1-3.38-4.03c-.58 1.36-1.31 2.92-2.27 4.75zm2.88-18.35c-.13.93-.78 3.07-.78 3.07-.84-2.99-.64-5.6-.21-5.6s1.12 1.58.99 2.53zm16.01 20.69c-.96-.08-3.94-1.39-3.94-1.39s3.28-.24 4.15-.03c.87.21 1.74.55 1.6.98-.15.47-.78.52-1.81.44zm-30.05 7.11c.63-.68 3.11-2.84 3.11-2.84s-1.89 3.03-2.34 3.57c-.45.55-1.82 1.85-2.14 1.65-.31-.2.74-1.7 1.37-2.38z" class="c-pdf"/></g></g><style>.c-win{fill:#0078d6}.c-vscode{fill:#0060b1}</style><g id="ico_psd"><defs><linearGradient id="g-psd" gradientUnits="userSpaceOnUse" x1="248" y1="278.167" x2="248" y2="215.259"><stop offset="0" stop-color="#31c5f0"/><stop offset=".514" stop-color="#3198f0"/><stop offset="1" stop-color="#3172f0"/></linearGradient></defs><path id="psd_base" d="M274 280h-52c-3.31 0-6-2.69-6-6v-52c0-3.31 2.69-6 6-6h52c3.31 0 6 2.69 6 6v52c0 3.31-2.69 6-6 6z" fill="url(#g-psd)"/><path id="psd_text" class="c-white" d="M261.75 243.97c-2.43 0-3.26 1.23-3.26 2.25 0 1.11.55 1.88 3.82 3.57 4.83 2.34 6.34 4.58 6.34 7.88 0 4.92-3.75 7.57-8.83 7.57-2.68 0-4.98-.55-6.31-1.32-.22-.09-.25-.25-.25-.49v-4.52c0-.31.15-.4.37-.25 1.94 1.26 4.15 1.82 6.18 1.82 2.43 0 3.45-1.02 3.45-2.4 0-1.11-.71-2.09-3.82-3.69-4.37-2.09-6.18-4.22-6.18-7.75 0-3.97 3.11-7.26 8.49-7.26 2.65 0 4.49.4 5.51.86.25.15.31.4.31.62v4.22c0 .25-.15.4-.46.31-1.36-.9-3.36-1.42-5.36-1.42zm-26.46 3.66c.71.06 1.26.06 2.49.06 3.6 0 6.98-1.26 6.98-6.15 0-3.91-2.43-5.88-6.52-5.88-1.23 0-2.4.06-2.95.09v11.88zm-5.47-16.34c0-.22.43-.37.68-.37 1.97-.09 4.89-.15 7.94-.15 8.52 0 11.85 4.68 11.85 10.65 0 7.82-5.66 11.17-12.62 11.17-1.17 0-1.57-.06-2.4-.06v11.82c0 .25-.09.37-.37.37h-4.71c-.25 0-.37-.09-.37-.37v-33.06z"/></g><g id="ico_ai"><defs><linearGradient id="g-ai" gradientUnits="userSpaceOnUse" x1="320" y1="278.288" x2="320" y2="216.416"><stop offset="0" stop-color="#ff7f18"/><stop offset="1" stop-color="#ff5018"/></linearGradient></defs><path id="ai_base" d="M345.5 279.5h-51c-3.31 0-6-2.69-6-6v-51c0-3.31 2.69-6 6-6h51c3.31 0 6 2.69 6 6v51c0 3.31-2.69 6-6 6z" fill="url(#g-ai)"/><path id="ai_text" class="c-white" d="M330.11 240.65c0-.24.09-.36.36-.36h4.71c.24 0 .36.09.36.36v23.69c0 .24-.06.36-.36.36h-4.65c-.3 0-.39-.15-.39-.39v-23.66h-.03zm-.33-6.81c0-1.92 1.35-3.06 3.06-3.06 1.83 0 3.06 1.23 3.06 3.06 0 1.98-1.29 3.06-3.12 3.06-1.73 0-3-1.08-3-3.06zm-13.5 16.69c-.84-3.33-2.82-10.6-3.57-14.11h-.06c-.63 3.51-2.22 9.46-3.48 14.11h7.11zm-8.35 4.86l-2.37 9.01c-.06.24-.15.3-.45.3h-4.41c-.3 0-.36-.09-.3-.45l8.53-29.84c.15-.54.24-1.02.3-2.49 0-.21.09-.3.24-.3h6.3c.21 0 .3.06.36.3l9.55 32.39c.06.24 0 .39-.24.39h-4.98c-.24 0-.39-.06-.45-.27l-2.46-9.04h-9.62z"/></g><g id="ico_dw"><defs><linearGradient id="dw_base" gradientUnits="userSpaceOnUse" x1="392" y1="278.167" x2="392" y2="215.259"><stop offset="0" stop-color="#64e001"/><stop offset=".512" stop-color="#4cba01"/><stop offset="1" stop-color="#339201"/></linearGradient></defs><path id="dw_base" d="M418 280h-52c-3.31 0-6-2.69-6-6v-52c0-3.31 2.69-6 6-6h52c3.31 0 6 2.69 6 6v52c0 3.31-2.69 6-6 6z" fill="url(#dw_base)"/><path class="c-white" d="M366.97 265.5v-33.61h8.69c8.71 0 13.07 5.46 13.07 16.38 0 5.23-1.19 9.41-3.57 12.54-2.38 3.13-5.55 4.69-9.5 4.69h-8.69zm5.53-27.45v21.3h2.74c2.39 0 4.27-.98 5.64-2.95 1.36-1.97 2.04-4.65 2.04-8.04 0-3.2-.68-5.72-2.03-7.56s-3.25-2.75-5.69-2.75h-2.7zm45.15 3.45l-5.05 24h-5.68l-2.58-14.06c-.17-.94-.27-1.96-.29-3.07h-.1c-.08 1.22-.19 2.21-.34 2.98l-2.77 14.16h-5.61l-4.94-24h5.51l2.41 15.66c.11.73.2 1.63.26 2.67h.1c.06-1.09.16-2.02.31-2.77l3.01-15.56h5.15l2.7 15.66c.07.39.15 1.3.24 2.72h.12c.06-.91.15-1.81.27-2.72l2.28-15.66h5z" id="dw_text"/></g><path class="c-vscode" d="M466.9 263.9l-10.7-10.7c-.1 0-1.9 1.4-6.8 5.3l-6.7 5.3-2.6-1.3-2.6-1.3v-13.1c0-13.1 0-13.1.1-13.2.1 0 1.2-.6 2.6-1.4l2.5-1.3 6.7 5.3 6.7 5.3 10.7-10.7 10.7-10.7 2.6 1c1.4.6 4.4 1.7 6.5 2.6l4 1.6v21.2c0 20.1 0 21.2-.1 21.3-.2.1-12.9 5.2-13 5.2 0 .2-4.8-4.6-10.6-10.4zm10.5-15.8v-11s-3.2 2.4-7 5.4c-3.8 3-7 5.5-7 5.5 0 .1 13.9 10.9 14 10.9v-10.8zm-30.8 4c2.2-2.2 4-4.1 4-4.1s-6-6.2-7.6-7.9l-.4-.4v16.4l4-4z" id="ico_vscode"/><style>.c-twitter{fill:#1da1f3}.c-facebook{fill:#475993}.c-youtube{fill:#f61c0d}.c-googleplus{fill:#f34a38}.bg-pinterest{fill:#cb2027}.c-line{fill:#00c300}</style><g id="ico_twitter"><path id="twitter_base" class="c-twitter" d="M55.38 288H8.62A8.62 8.62 0 0 0 0 296.62v46.75a8.62 8.62 0 0 0 8.62 8.62h46.75a8.62 8.62 0 0 0 8.62-8.62v-46.75c.01-4.76-3.85-8.62-8.61-8.62z"/><path id="twitter_symbol" class="c-white" d="M53.51 308.03c-.93.41-1.89.73-2.87.97a8.854 8.854 0 0 0 2.36-3.77c.13-.41-.32-.77-.69-.55-1.37.81-2.85 1.42-4.39 1.81a1.171 1.171 0 0 1-1.04-.26 8.96 8.96 0 0 0-5.95-2.24c-.95 0-1.91.15-2.85.44-2.91.9-5.16 3.31-5.87 6.27-.26 1.11-.34 2.23-.21 3.31a.325.325 0 0 1-.33.36h-.03c-6.38-.59-12.13-3.66-16.19-8.65a.474.474 0 0 0-.77.06 8.962 8.962 0 0 0-1.22 4.52c0 2.44.98 4.73 2.68 6.4-.71-.17-1.41-.44-2.05-.79a.473.473 0 0 0-.7.4 8.996 8.996 0 0 0 5.25 8.29h-.19c-.5 0-1.01-.05-1.51-.14a.474.474 0 0 0-.54.6 8.98 8.98 0 0 0 7.11 6.12 16.546 16.546 0 0 1-9.29 2.82h-1.04c-.32 0-.59.21-.67.52-.08.31.07.63.34.79 3.76 2.19 8.04 3.34 12.39 3.34 3.81 0 7.37-.76 10.59-2.25 2.95-1.37 5.56-3.32 7.75-5.81a25.37 25.37 0 0 0 4.74-7.95c1.06-2.82 1.61-5.83 1.61-8.7v-.14c0-.46.21-.89.57-1.19 1.38-1.12 2.58-2.44 3.57-3.92.28-.36-.13-.85-.56-.66z"/></g><path class="c-twitter" d="M128.24 305.68c-1.07.47-2.17.85-3.31 1.12 1.25-1.19 2.19-2.68 2.72-4.34a.541.541 0 0 0-.79-.63c-1.58.94-3.28 1.64-5.06 2.09-.1.03-.21.04-.32.04-.32 0-.64-.12-.89-.34a10.322 10.322 0 0 0-6.85-2.58c-1.09 0-2.2.17-3.28.51a10.038 10.038 0 0 0-6.76 7.22c-.3 1.28-.39 2.56-.25 3.81.02.14-.05.24-.09.29-.07.08-.18.13-.29.13h-.04c-7.34-.68-13.97-4.22-18.65-9.96a.544.544 0 0 0-.89.07c-.92 1.57-1.4 3.37-1.4 5.2 0 2.81 1.13 5.45 3.08 7.38-.82-.2-1.62-.5-2.36-.91-.36-.2-.8.06-.8.47-.05 4.17 2.39 7.88 6.04 9.55h-.22c-.58 0-1.17-.06-1.74-.17-.4-.08-.74.31-.62.7 1.19 3.7 4.38 6.43 8.19 7.05a19.088 19.088 0 0 1-10.7 3.25h-1.2c-.37 0-.68.24-.77.6-.09.35.08.72.39.91 4.33 2.52 9.26 3.85 14.27 3.85 4.39 0 8.49-.87 12.2-2.59 3.4-1.57 6.4-3.82 8.92-6.69 2.35-2.67 4.19-5.75 5.46-9.15 1.22-3.25 1.86-6.71 1.86-10.02v-.16c0-.53.24-1.03.66-1.37 1.59-1.29 2.97-2.81 4.11-4.52a.524.524 0 0 0-.62-.81z" id="ico_twitter_2"/><g id="ico_facebook"><path id="facebook_base" class="c-facebook" d="M199.38 288h-46.75a8.62 8.62 0 0 0-8.62 8.62v46.75a8.62 8.62 0 0 0 8.62 8.62h46.75a8.62 8.62 0 0 0 8.62-8.62v-46.75a8.62 8.62 0 0 0-8.62-8.62z"/><path id="facebook_text" class="c-white" d="M176.24 352l.04-22.87h-5.94c-.77 0-1.4-.62-1.4-1.4l-.03-7.37c0-.78.63-1.41 1.4-1.41h5.93v-7.12c0-8.27 5.05-12.77 12.42-12.77h6.05c.77 0 1.4.63 1.4 1.4v6.22c0 .77-.63 1.4-1.4 1.4H191c-4.01 0-4.79 1.91-4.79 4.7v6.17h8.81c.84 0 1.49.73 1.39 1.57l-.87 7.37c-.08.71-.68 1.24-1.39 1.24h-7.9l-.04 22.87h-9.97z"/></g><path class="c-white" d="M243.29 344l.03-20.31h-5.28c-.69 0-1.24-.55-1.24-1.24l-.03-6.55c0-.69.56-1.25 1.24-1.25h5.27v-6.32c0-7.34 4.48-11.34 11.03-11.34h5.37c.69 0 1.24.56 1.24 1.24v5.52c0 .69-.56 1.24-1.24 1.24h-3.3c-3.56 0-4.25 1.69-4.25 4.17v5.48h7.82c.75 0 1.32.65 1.24 1.39l-.78 6.55c-.07.63-.61 1.1-1.24 1.1h-7.01l-.01 20.32h-8.86z" id="ico_facebook_2"/><g id="ico_youtube"><path id="youtube_base" class="c-youtube" d="M343.38 288h-46.75a8.62 8.62 0 0 0-8.62 8.62v46.75a8.62 8.62 0 0 0 8.62 8.62h46.75a8.62 8.62 0 0 0 8.62-8.62v-46.75a8.62 8.62 0 0 0-8.62-8.62z"/><path class="c-white" d="M331.67 305.85h-23.39a8.31 8.31 0 0 0-8.31 8.31v11.69a8.31 8.31 0 0 0 8.31 8.31h23.39a8.31 8.31 0 0 0 8.31-8.31v-11.69a8.31 8.31 0 0 0-8.31-8.31zm-5.61 14.72l-10.94 5.22a.44.44 0 0 1-.63-.4v-10.76c0-.33.35-.54.64-.39l10.94 5.54c.32.17.32.63-.01.79z" id="youtube_symbol"/></g><path class="c-youtube" d="M406.03 304.02h-28.06c-5.51 0-9.97 4.46-9.97 9.97v14.03c0 5.51 4.46 9.97 9.97 9.97h28.06c5.51 0 9.97-4.46 9.97-9.97v-14.03c0-5.51-4.46-9.97-9.97-9.97zm-6.74 17.66l-13.13 6.26a.524.524 0 0 1-.75-.48v-12.91c0-.39.41-.65.77-.47l13.13 6.65c.38.2.37.76-.02.95z" id="ico_youtube_2"/><g id="ico_googleplus"><path id="google_plus_base" class="c-googleplus" d="M487.38 288h-46.75a8.62 8.62 0 0 0-8.62 8.62v46.75a8.62 8.62 0 0 0 8.62 8.62h46.75a8.62 8.62 0 0 0 8.62-8.62v-46.75a8.62 8.62 0 0 0-8.62-8.62z"/><path class="c-white" d="M457.11 323.17h7.5c-1.32 3.72-4.88 6.39-9.06 6.36-5.06-.04-9.25-4.09-9.45-9.15-.21-5.42 4.14-9.91 9.52-9.91 2.46 0 4.7.94 6.4 2.47.4.36 1.01.37 1.4 0l2.75-2.59c.43-.41.43-1.09 0-1.5a15.257 15.257 0 0 0-10.25-4.2c-8.47-.17-15.6 6.78-15.66 15.24-.06 8.53 6.84 15.47 15.36 15.47 8.19 0 14.88-6.41 15.33-14.49.01-.1.02-3.52.02-3.52H457.1c-.57 0-1.03.46-1.03 1.03v3.77c.01.56.47 1.02 1.04 1.02zm26.57-5.49V314c0-.5-.4-.9-.9-.9h-3.1c-.5 0-.9.4-.9.9v3.68h-3.68c-.5 0-.9.4-.9.9v3.1c0 .5.4.9.9.9h3.68v3.68c0 .5.4.9.9.9h3.1c.5 0 .9-.4.9-.9v-3.68h3.68c.5 0 .9-.4.9-.9v-3.1c0-.5-.4-.9-.9-.9h-3.68z" id="google_plus_symbol"/></g><g id="ico_googleplus_2"><path id="google_plus_g" class="c-googleplus" d="M528.45 323.43h8.12c-1.43 4.03-5.29 6.92-9.81 6.89-5.49-.04-10.02-4.43-10.24-9.91-.23-5.88 4.49-10.73 10.31-10.73 2.66 0 5.1 1.02 6.93 2.68.43.39 1.1.4 1.52-.01l2.98-2.81c.47-.44.47-1.18 0-1.62a16.585 16.585 0 0 0-11.11-4.55c-9.17-.18-16.9 7.34-16.97 16.51-.06 9.24 7.41 16.75 16.64 16.75 8.87 0 16.12-6.95 16.61-15.7.01-.11.02-3.82.02-3.82h-15.02c-.62 0-1.11.5-1.11 1.11v4.09c.01.62.51 1.12 1.13 1.12z"/><path id="google_plus_plus" class="c-googleplus" d="M557.23 317.49v-3.99c0-.54-.44-.98-.98-.98h-3.36c-.54 0-.98.44-.98.98v3.99h-3.99c-.54 0-.98.44-.98.98v3.36c0 .54.44.98.98.98h3.99v3.99c0 .54.44.98.98.98h3.36c.54 0 .98-.44.98-.98v-3.99h3.99c.54 0 .98-.44.98-.98v-3.36c0-.54-.44-.98-.98-.98h-3.99z"/></g><g id="ico_pinterest"><path id="pinterest_base" class="bg-pinterest" d="M55.38 360H8.62A8.62 8.62 0 0 0 0 368.62v46.75a8.62 8.62 0 0 0 8.62 8.62h46.75a8.62 8.62 0 0 0 8.62-8.62v-46.75c.01-4.76-3.85-8.62-8.61-8.62z"/><path id="pinterest_symbol" class="c-white" d="M34.8 403.76c-2.62-.2-3.72-1.5-5.78-2.75-1.13 5.93-2.51 11.61-6.6 14.58-1.26-8.96 1.85-15.69 3.3-22.83-2.47-4.15.3-12.51 5.5-10.45 6.4 2.53-5.54 15.44 2.48 17.05 8.37 1.68 11.79-14.53 6.6-19.8-7.5-7.61-21.84-.17-20.08 10.73.43 2.66 3.18 3.47 1.1 7.15-4.8-1.06-6.23-4.85-6.05-9.9.3-8.27 7.43-14.05 14.58-14.85 9.04-1.01 17.53 3.32 18.7 11.83 1.32 9.58-4.08 19.98-13.75 19.24z"/></g><path class="bg-pinterest" d="M107.01 403.32c-2.82-.22-4-1.61-6.21-2.96-1.21 6.37-2.7 12.48-7.09 15.67-1.36-9.63 1.99-16.86 3.55-24.54-2.65-4.46.32-13.45 5.91-11.23 6.88 2.72-5.96 16.6 2.66 18.33 9 1.81 12.68-15.62 7.09-21.29-8.06-8.18-23.48-.19-21.58 11.53.46 2.86 3.42 3.73 1.18 7.69-5.16-1.14-6.7-5.21-6.5-10.64.32-8.88 7.98-15.1 15.67-15.96 9.72-1.09 18.84 3.57 20.1 12.71 1.42 10.32-4.39 21.5-14.78 20.69z" id="ico_pinterest_2"/><g id="ico_line"><path class="c-line" d="M199.4 360h-46.8c-4.8 0-8.6 3.9-8.6 8.6v46.8c0 4.8 3.9 8.6 8.6 8.6h46.8c4.8 0 8.6-3.9 8.6-8.6v-46.8c0-4.7-3.9-8.6-8.6-8.6z"/><path class="c-white" d="M201.6 388.9c0-11.4-11.4-20.7-25.5-20.7s-25.5 9.3-25.5 20.7c0 10.2 9.1 18.8 21.3 20.4.8.2 2 .5 2.2 1.3.3.6.2 1.7.1 2.3 0 0-.3 1.8-.4 2.2-.1.6-.5 2.5 2.2 1.4s14.7-8.6 20-14.8c3.8-4.1 5.6-8.3 5.6-12.8zm-35.5 6.8H161c-.7 0-1.3-.6-1.3-1.3v-10.1c0-.7.6-1.3 1.3-1.3.7 0 1.3.6 1.3 1.3v8.8h3.7c.7 0 1.3.6 1.3 1.3.1.7-.5 1.3-1.2 1.3zm5.2-1.4c0 .7-.6 1.3-1.3 1.3-.7 0-1.3-.6-1.3-1.3v-10.1c0-.7.6-1.3 1.3-1.3.7 0 1.3.6 1.3 1.3v10.1zm12.2 0c0 .6-.4 1.1-.9 1.3-.1 0-.3.1-.4.1-.4 0-.8-.2-1.1-.5l-5.2-7.1v6.3c0 .7-.6 1.3-1.3 1.3-.7 0-1.3-.6-1.3-1.3v-10.1c0-.6.4-1.1.9-1.3.1 0 .3-.1.4-.1.4 0 .8.2 1.1.5l5.2 7.1v-6.3c0-.7.6-1.3 1.3-1.3.7 0 1.3.6 1.3 1.3v10.1zm8.2-6.4c.7 0 1.3.6 1.3 1.3 0 .7-.6 1.3-1.3 1.3H188v2.4h3.7c.7 0 1.3.6 1.3 1.3 0 .7-.6 1.3-1.3 1.3h-5.1c-.7 0-1.3-.6-1.3-1.3V384c0-.7.6-1.3 1.3-1.3h5.1c.7 0 1.3.6 1.3 1.3 0 .7-.6 1.3-1.3 1.3H188v2.4h3.7z"/></g><g id="ico_line2"><path class="c-white" d="M229.2 380.3h38v17.4h-38z"/><path class="c-line" d="M273.5 388.9c0-11.4-11.4-20.7-25.5-20.7s-25.5 9.3-25.5 20.7c0 10.2 9.1 18.8 21.3 20.4.8.2 2 .5 2.2 1.3.3.6.2 1.7.1 2.3 0 0-.3 1.8-.4 2.2-.1.6-.5 2.5 2.2 1.4s14.7-8.6 20-14.8c3.8-4.1 5.6-8.3 5.6-12.8zm-35.5 6.8h-5c-.7 0-1.3-.6-1.3-1.3v-10.1c0-.7.6-1.3 1.3-1.3.7 0 1.3.6 1.3 1.3v8.8h3.7c.7 0 1.3.6 1.3 1.3.1.7-.5 1.3-1.3 1.3zm5.3-1.4c0 .7-.6 1.3-1.3 1.3-.7 0-1.3-.6-1.3-1.3v-10.1c0-.7.6-1.3 1.3-1.3.7 0 1.3.6 1.3 1.3v10.1zm12.2 0c0 .6-.4 1.1-.9 1.3-.1 0-.3.1-.4.1-.4 0-.8-.2-1.1-.5l-5.2-7.1v6.3c0 .7-.6 1.3-1.3 1.3-.7 0-1.3-.6-1.3-1.3v-10.1c0-.6.4-1.1.9-1.3.1 0 .3-.1.4-.1.4 0 .8.2 1.1.5l5.2 7.1v-6.3c0-.7.6-1.3 1.3-1.3.7 0 1.3.6 1.3 1.3v10.1zm8.2-6.4c.7 0 1.3.6 1.3 1.3 0 .7-.6 1.3-1.3 1.3H260v2.4h3.7c.7 0 1.3.6 1.3 1.3 0 .7-.6 1.3-1.3 1.3h-5.1c-.7 0-1.3-.6-1.3-1.3V384c0-.7.6-1.3 1.3-1.3h5.1c.7 0 1.3.6 1.3 1.3 0 .7-.6 1.3-1.3 1.3H260v2.4h3.7z"/></g><style>.c-insta_stop_1{stop-color:#e1d547}.c-insta_stop_2{stop-color:#e09b3d}.c-insta_stop_3{stop-color:#c74c4d}.c-insta_stop_4{stop-color:#c21975}.c-insta_stop_5{stop-color:#7024c4}</style><g id="instagram"><radialGradient id="instagram_base" cx="380.053" cy="415.535" r="48.035" gradientUnits="userSpaceOnUse"><stop offset="0" class="c-insta_stop_1"/><stop offset=".1" class="c-insta_stop_2"/><stop offset=".4" class="c-insta_stop_3"/><stop offset=".7" class="c-insta_stop_4"/><stop offset="1" class="c-insta_stop_5"/></radialGradient><linearGradient id="instagram_symbol_center" gradientUnits="userSpaceOnUse" x1="392" y1="414" x2="392" y2="369"><stop offset="0" class="c-insta_stop_1"/><stop offset=".068" class="c-insta_stop_2"/><stop offset=".3" class="c-insta_stop_3"/><stop offset=".6" class="c-insta_stop_4"/><stop offset="1" class="c-insta_stop_5"/></linearGradient><linearGradient id="instagram_symbol_upper" gradientUnits="userSpaceOnUse" x1="404.438" y1="375.09" x2="404.438" y2="400.56" gradientTransform="translate(0 -636.55)" xmlns:xlink="http://www.w3.org/1999/xlink" xlink:href="#instagram_symbol_center"/><path d="M401.7 368h-19.4c-7.9 0-14.3 6.4-14.3 14.3v19.4c0 7.9 6.4 14.3 14.3 14.3h19.4c7.9 0 14.3-6.4 14.3-14.3v-19.4c0-7.9-6.4-14.3-14.3-14.3zm9.5 33.7c0 5.2-4.2 9.5-9.5 9.5h-19.4c-5.2 0-9.5-4.2-9.5-9.5v-19.4c0-5.2 4.2-9.5 9.5-9.5h19.4c5.2 0 9.5 4.2 9.5 9.5v19.4z" fill="url(#instagram_base)"/><path d="M392 379.6c-6.8 0-12.4 5.6-12.4 12.4 0 6.8 5.6 12.4 12.4 12.4s12.4-5.6 12.4-12.4c0-6.8-5.6-12.4-12.4-12.4zm0 20c-4.2 0-7.6-3.4-7.6-7.6 0-4.2 3.4-7.6 7.6-7.6 4.2 0 7.6 3.4 7.6 7.6 0 4.2-3.4 7.6-7.6 7.6z" fill="url(#instagram_symbol_center)"/><circle cx="404.4" cy="379.7" r="3" fill="url(#instagram_symbol_upper)"/></g><g id="instagram_2"><radialGradient id="instagram_w_base" cx="304.5" cy="422" r="61.897" gradientUnits="userSpaceOnUse" xmlns:xlink="http://www.w3.org/1999/xlink" xlink:href="#instagram_symbol_center"/><path d="M341 424h-42c-6.1 0-11-4.9-11-11v-42c0-6.1 4.9-11 11-11h42c6.1 0 11 4.9 11 11v42c0 6.1-4.9 11-11 11z" fill="url(#instagram_w_base)"/><g id="instagram_symbol"><path class="c-white" d="M329.8 415.6h-19.6c-7.6 0-13.8-6.2-13.8-13.8v-19.6c0-7.6 6.2-13.8 13.8-13.8h19.6c7.6 0 13.8 6.2 13.8 13.8v19.6c0 7.6-6.2 13.8-13.8 13.8zm-19.6-42.8c-5.2 0-9.4 4.2-9.4 9.4v19.6c0 5.2 4.2 9.4 9.4 9.4h19.6c5.2 0 9.4-4.2 9.4-9.4v-19.6c0-5.2-4.2-9.4-9.4-9.4h-19.6z"/><ellipse transform="rotate(-76.803 332.605 379.408)" class="c-white" cx="332.6" cy="379.4" rx="2.9" ry="2.9"/><path class="c-white" d="M320 404.2c-6.7 0-12.2-5.5-12.2-12.2 0-6.7 5.5-12.2 12.2-12.2 6.7 0 12.2 5.5 12.2 12.2 0 6.7-5.5 12.2-12.2 12.2zm0-20c-4.3 0-7.8 3.5-7.8 7.8s3.5 7.8 7.8 7.8 7.8-3.5 7.8-7.8-3.5-7.8-7.8-7.8z"/></g></g><style>.c-win{fill:#0078d6}.c-android{fill:#a4c639}</style><path d="M605.5 203.1l34.6 4.9v-30.2h-34.6zm-29.2-4.1l26.1 3.7v-25.3h-26.1zm29.2-50v25.5h34.6V144zm-29.2 25.8h26.1v-25.3l-26.1 3.6z" id="win_b" class="c-win"/><path d="M677.4 203.1L712 208v-30.2h-34.6zm-29.2-4.1l26.1 3.7v-25.3h-26.1zm29.2-50v25.5H712V144zm-29.2 25.8h26.1v-25.3l-26.1 3.6z" id="win_w" class="c-white"/><g id="android_b"><path d="M634 241c0-2.1-1.7-3.8-3.8-3.8s-3.8 1.7-3.8 3.8v15.9c0 2.1 1.7 3.8 3.8 3.8s3.8-1.7 3.8-3.8V241zm-44.4 0c0-2.1-1.7-3.8-3.8-3.8-2.1 0-3.8 1.7-3.8 3.8v15.9c0 2.1 1.7 3.8 3.8 3.8 2.1 0 3.8-1.7 3.8-3.8V241zm35.4-4.5c0-5.9-3.5-11-8.7-13.7l2.7-4.8c.1-.3 0-.6-.2-.7-.1 0-.2-.1-.3-.1-.2 0-.4.1-.5.3l-2.7 4.9c-2.2-1-4.7-1.5-7.3-1.5-2.6 0-5.1.6-7.3 1.5l-2.7-4.9c-.1-.3-.5-.4-.7-.2-.3.1-.4.5-.2.7l2.7 4.8c-5.2 2.7-8.7 7.8-8.7 13.7v25.9c0 2.3 1.8 4.1 4.1 4.1h2.7v8.4c0 2.1 1.7 3.8 3.8 3.8s3.8-1.7 3.8-3.8v-8.4h5.1v8.4c0 2.1 1.7 3.8 3.8 3.8s3.8-1.7 3.8-3.8v-8.4h2.7c2.3 0 4.1-1.8 4.1-4.1v-25.9z" class="c-android"/><g class="c-white"><path d="M591 236.5h33.9v1.3H591z"/><circle cx="600.2" cy="228.9" r="1.4"/><circle cx="615.8" cy="228.9" r="1.4"/></g></g><path d="M706 241c0-2.1-1.7-3.8-3.8-3.8s-3.8 1.7-3.8 3.8v15.9c0 2.1 1.7 3.8 3.8 3.8s3.8-1.7 3.8-3.8V241zm-44.4 0c0-2.1-1.7-3.8-3.8-3.8-2.1 0-3.8 1.7-3.8 3.8v15.9c0 2.1 1.7 3.8 3.8 3.8 2.1 0 3.8-1.7 3.8-3.8V241zm35.4-4.5c0-5.9-3.5-11-8.7-13.7l2.7-4.8c.1-.3 0-.6-.2-.7-.1 0-.2-.1-.3-.1-.2 0-.4.1-.5.3l-2.7 4.9c-2.2-1-4.7-1.5-7.3-1.5-2.6 0-5.1.6-7.3 1.5l-2.7-4.9c-.1-.3-.5-.4-.7-.2-.3.1-.4.5-.2.7l2.7 4.8c-5.2 2.7-8.7 7.8-8.7 13.7v25.9c0 2.3 1.8 4.1 4.1 4.1h2.7v8.4c0 2.1 1.7 3.8 3.8 3.8s3.8-1.7 3.8-3.8v-8.4h5.1v8.4c0 2.1 1.7 3.8 3.8 3.8s3.8-1.7 3.8-3.8v-8.4h2.7c2.3 0 4.1-1.8 4.1-4.1v-25.9z" id="android_w" class="c-white"/><path class="c-black" d="M631.3 310.9c-.6.4-6.3 3.9-6.2 11 .1 8.5 7.3 11.5 7.7 11.7l.6.2-.2.6v.1c-.2.6-1.4 4.6-4.3 8.7-1.3 1.9-2.6 3.7-4.1 5.2-1.6 1.5-3.4 2.5-5.7 2.5-2.1 0-3.5-.6-5-1.2-1.4-.6-2.8-1.2-5.1-1.2-2.4 0-3.9.6-5.3 1.3-1.4.6-2.7 1.1-4.6 1.2-2.2.1-4.1-1-5.8-2.6-1.6-1.5-3-3.5-4.3-5.4-2.9-4.2-5.5-10.4-6.2-16.6-.6-5.1-.1-10.4 2.4-14.7 1.4-2.4 3.3-4.4 5.6-5.8 2.3-1.4 4.8-2.1 7.5-2.2 2.4 0 4.6.8 6.5 1.6 1.4.5 2.6 1 3.5 1 .8 0 2-.5 3.4-1 2.4-.9 5.2-2.1 8.3-1.8 1.3.1 3.9.4 6.7 1.8 1.7.9 3.5 2.3 4.9 4.5l.4.6-.7.5s.1 0 0 0zm-11.3-16c-.6 1.8-1.6 3.5-2.7 4.9-1.2 1.4-2.7 2.7-4.5 3.5-1.6.8-3.3 1.2-5.1 1h-.5l-.1-.5c-.2-1.7 0-3.4.6-5 .6-1.9 1.7-3.6 2.8-4.9 1.2-1.3 2.7-2.5 4.3-3.4 1.7-.9 3.4-1.4 5.1-1.5h.6l.1.6c.2 1.8 0 3.6-.6 5.3z" id="apple_b"/><path class="c-white" d="M703.4 310.9c-.6.4-6.3 3.9-6.2 11 .1 8.5 7.3 11.5 7.7 11.7l.6.2-.2.6v.1c-.2.6-1.4 4.6-4.3 8.7-1.3 1.9-2.6 3.7-4.1 5.2-1.6 1.5-3.4 2.5-5.7 2.5-2.1 0-3.5-.6-5-1.2-1.4-.6-2.8-1.2-5.1-1.2-2.4 0-3.9.6-5.3 1.3-1.4.6-2.7 1.1-4.6 1.2-2.2.1-4.1-1-5.8-2.6-1.6-1.5-3-3.5-4.3-5.4-2.9-4.2-5.5-10.4-6.2-16.6-.6-5.1-.1-10.4 2.4-14.7 1.4-2.4 3.3-4.4 5.6-5.8 2.3-1.4 4.8-2.1 7.5-2.2 2.4 0 4.6.8 6.5 1.6 1.4.5 2.6 1 3.5 1 .8 0 2-.5 3.4-1 2.4-.9 5.2-2.1 8.3-1.8 1.3.1 3.9.4 6.7 1.8 1.7.9 3.5 2.3 4.9 4.5l.4.6-.7.5zm-11.3-16c-.6 1.8-1.6 3.5-2.7 4.9-1.2 1.4-2.7 2.7-4.5 3.5-1.6.8-3.3 1.2-5.1 1h-.5l-.1-.5c-.2-1.7 0-3.4.6-5 .6-1.9 1.7-3.6 2.8-4.9 1.2-1.3 2.7-2.5 4.3-3.4 1.7-.9 3.4-1.4 5.1-1.5h.6l.1.6c.2 1.8-.1 3.6-.6 5.3z" id="apple_w"/></svg>