<?xml version="1.0" encoding="utf-8"?>
<!-- Generator: Adobe Illustrator 20.0.0, SVG Export Plug-In . SVG Version: 6.00 Build 0)  -->
<svg version="1.1" id="icons" xmlns="http://www.w3.org/2000/svg" xmlns:xlink="http://www.w3.org/1999/xlink" x="0px"
	 y="0px" viewBox="0 0 712 424" style="enable-background:new 0 0 712 424;" xml:space="preserve" width="712px" height="424px">

<style type="text/css">
	.c-white      { fill:#FFF;}
	.c-black      { fill:#333;}
	.c-gray       { fill:#CCCCCC;}

	/*.c-info    { }*/
	/*.c-alert   { }*/
	/*.c-word    { }*/
	/*.c-excel   { }*/
	/*.c-psd     { }*/
	/*.c-ai      { }*/
	/*.c-zip     { ;}*/
	.grid { opacity:0;fill:#CCCCCC; }
</style>

<g class="grid">
	<rect x="648" width="64" height="64"/>
	<rect x="576" width="64" height="64"/>
	<rect x="504" width="64" height="64"/>
	<rect x="432" width="64" height="64"/>
	<rect x="360" width="64" height="64"/>
	<rect x="288" width="64" height="64"/>
	<rect x="216" width="64" height="64"/>
	<rect x="144" width="64" height="64"/>
	<rect x="72" width="64" height="64"/>
	<rect x="0" width="64" height="64"/>
	<rect x="648" y="72" width="64" height="64"/>
	<rect x="576" y="72" width="64" height="64"/>
	<rect x="504" y="72" width="64" height="64"/>
	<rect x="432" y="72" width="64" height="64"/>
	<rect x="360" y="72" width="64" height="64"/>
	<rect x="288" y="72" width="64" height="64"/>
	<rect x="216" y="72" width="64" height="64"/>
	<rect x="144" y="72" width="64" height="64"/>
	<rect x="72" y="72" width="64" height="64"/>
	<rect x="0" y="72" width="64" height="64"/>
	<rect x="216" y="216" width="64" height="64"/>
	<rect x="144" y="216" width="64" height="64"/>
	<rect x="72" y="216" width="64" height="64"/>
	<rect x="0" y="216" width="64" height="64"/>
	<rect x="288" y="216" width="64" height="64"/>
	<rect x="360" y="216" width="64" height="64"/>
	<rect x="432" y="216" width="64" height="64"/>
	<rect x="504" y="216" width="64" height="64"/>
	<rect x="576" y="216" width="64" height="64"/>
	<rect x="648" y="216" width="64" height="64"/>
	<rect x="216" y="288" width="64" height="64"/>
	<rect x="144" y="288" width="64" height="64"/>
	<rect x="72" y="288" width="64" height="64"/>
	<rect x="0" y="288" width="64" height="64"/>
	<rect x="288" y="288" width="64" height="64"/>
	<rect x="360" y="288" width="64" height="64"/>
	<rect x="432" y="288" width="64" height="64"/>
	<rect x="504" y="288" width="64" height="64"/>
	<rect x="576" y="288" width="64" height="64"/>
	<rect x="648" y="288" width="64" height="64"/>
	<rect x="216" y="360" width="64" height="64"/>
	<rect x="144" y="360" width="64" height="64"/>
	<rect x="72" y="360" width="64" height="64"/>
	<rect x="0" y="360" width="64" height="64"/>
	<rect x="288" y="360" width="64" height="64"/>
	<rect x="360" y="360" width="64" height="64"/>
	<rect x="432" y="360" width="64" height="64"/>
	<rect x="504" y="360" width="64" height="64"/>
	<rect x="576" y="360" width="64" height="64"/>
	<rect x="648" y="360" width="64" height="64"/>
	<rect x="576" y="144" width="64" height="64"/>
	<rect x="432" y="144" width="64" height="64"/>
	<rect x="288" y="144" width="64" height="64"/>
	<rect x="144" y="144" width="64" height="64"/>
	<rect x="0" y="144" width="64" height="64"/>
	<rect x="648" y="144" width="64" height="64"/>
	<rect x="504" y="144" width="64" height="64"/>
	<rect x="360" y="144" width="64" height="64"/>
	<rect x="216" y="144" width="64" height="64"/>
	<rect x="72" y="144" width="64" height="64"/>
</g>

<!-- ==========================================
	file icon
========================================== -->

	<g id="blank-b" class="c-black">
		<path d="M58,3.5H23.5C22.1,3.5,21,4.6,21,6v15H6c-1.4,0-2.5,1.1-2.5,2.5V58c0,1.4,1.1,2.5,2.5,2.5h34.5 c1.4,0,2.5-1.1,2.5-2.5V42.9h15c1.4,0,2.5-1.1,2.5-2.5V6C60.5,4.6,59.4,3.5,58,3.5z M37,37.9l-5.1,5H38v12.6H8.5V26H21v6.4l5-5.1 l0-18.8h29.5v29.4H37z"/>
		<polygon points="33.3,15.5 33.3,20.5 40.1,20.5 15.8,44.8 19.4,48.3 43.3,24.3 43.3,30.9 48.3,30.9 48.3,15.5"/>
	</g>
	<g id="blank-w">
		<path class="c-white" d="M130,3.5H95.5C94.1,3.5,93,4.6,93,6v15H78c-1.4,0-2.5,1.1-2.5,2.5V58c0,1.4,1.1,2.5,2.5,2.5h34.5 c1.4,0,2.5-1.1,2.5-2.5V42.9h15c1.4,0,2.5-1.1,2.5-2.5V6C132.5,4.6,131.4,3.5,130,3.5z M109,37.9l-5.1,5h6.2v12.6H80.5V26H93v6.4 l5-5.1l0-18.8h29.5v29.4H109z"/>
		<polygon class="c-white" points="105.3,15.5 105.3,20.5 112.1,20.5 87.8,44.8 91.4,48.3 115.3,24.3 115.3,30.9 120.3,30.9 120.3,15.9 120.3,15.5"/>
	</g>

	<g id="link-b" class="c-black" style="stroke:#333; stroke-width:1px">
		<path d="M152.2,41.5c-3.9,3.9-3.9,10.4,0,14.3c3.9,3.9,10.4,3.9,14.3,0L183,39.2c3.9-3.9,3.9-10.4,0-14.3l-3.5,3.5 c2,2,2,5.2,0,7.2l-16.5,16.5c-2,2-5.2,2-7.2,0c-2-2-2-5.2,0-7.2l0,0l6.5-6.5c-0.8-1.9-1.2-3.9-1.2-5.9L152.2,41.5z"/>
		<path d="M199.7,22.4c3.9-3.9,3.9-10.4,0-14.3c-3.9-3.9-10.4-3.9-14.3,0l-16.5,16.5c-3.9,3.9-3.9,10.4,0,14.3l3.5-3.5 c-2-2-2-5.2,0-7.2L189,11.6c2-2,5.2-2,7.2,0c2,2,2,5.2,0,7.2l0,0l-6.5,6.5c0.8,1.9,1.2,3.9,1.2,5.9L199.7,22.4z"/>
	</g>
	<g id="link-w" class="c-white" style="stroke:#FFF; stroke-width:1px">
		<path d="M224.2,41.5c-3.9,3.9-3.9,10.4,0,14.3c3.9,3.9,10.4,3.9,14.3,0l16.5-16.5c3.9-3.9,3.9-10.4,0-14.3l-3.5,3.5 c2,2,2,5.2,0,7.2L235,52.2c-2,2-5.2,2-7.2,0c-2-2-2-5.2,0-7.2l0,0l6.5-6.5c-0.8-1.9-1.2-3.9-1.2-5.9L224.2,41.5z"/>
		<path d="M271.8,22.4c3.9-3.9,3.9-10.4,0-14.3c-3.9-3.9-10.4-3.9-14.3,0l-16.5,16.5c-3.9,3.9-3.9,10.4,0,14.3l3.5-3.5 c-2-2-2-5.2,0-7.2L261,11.6c2-2,5.2-2,7.2,0s2,5.2,0,7.2l0,0l-6.5,6.5c0.8,1.9,1.2,3.9,1.2,5.9L271.8,22.4z"/>
	</g>

	<g id="file-b" >
	<path class="c-black" d="M339.5,6h-39c-1.4,0-2.5,1.1-2.5,2.5v47c0,1.4,1.1,2.5,2.5,2.5h39c1.4,0,2.5-1.1,2.5-2.5v-47 C342,7.1,340.9,6,339.5,6z M303,15h18.5v15H303V15z M337,50h-34v-5h34V50z M337,40h-34v-5h18.5v0h5v0H337V40z M337,30h-10.5v-5H337 V30z M337,20h-10.5v-5H337V20z"/>
	</g>
	<g id="file-w" >
	<path class="c-white" d="M411.5,6h-39c-1.4,0-2.5,1.1-2.5,2.5v47c0,1.4,1.1,2.5,2.5,2.5h39c1.4,0,2.5-1.1,2.5-2.5v-47 C414,7.1,412.9,6,411.5,6z M375,15h18.5v15H375V15z M409,50h-34v-5h34V50z M409,40h-34v-5h18.5v0h5v0H409V40z M409,30h-10.5v-5H409 V30z M409,20h-10.5v-5H409V20z"/>
</g>

	<g id="folder-b">
		<path class="c-black" d="M487.5,17.5h-18.8L461,10h-23v41.5c0,1.4,1.1,2.5,2.5,2.5h47c1.4,0,2.5-1.1,2.5-2.5V20 C490,18.6,488.9,17.5,487.5,17.5z"/>
	</g>
	<g id="folder-w">
		<path class="c-white" d="M559.5,17.5h-18.8L533,10h-23v41.5c0,1.4,1.1,2.5,2.5,2.5h47c1.4,0,2.5-1.1,2.5-2.5V20 C562,18.6,560.9,17.5,559.5,17.5z"/>
	</g>

	<g id="folder-b-open">
	<path class="c-black" d="M638.3,28.3c-0.9-0.9-2.3-0.8-2.3-0.8h-41.1c0,0-0.9,0-1.5,0.4s-0.9,1.1-0.9,1.1l-8,22.5l3.5-26.9 c0.2-0.9,1-2.1,2.5-2.1H634V20c0-1.4-1.1-2.5-2.5-2.5h-18.8L605,10h-23v41.5c0,1.4,1.1,2.5,2.5,2.5h47c1.4,0,2.5-1.1,2.5-2.5v-7.1 l4.9-13.7C638.9,30.7,639.2,29.3,638.3,28.3z"/></g>
	<g id="folder-w-open">
		<path class="c-white" d="M710.3,28.3c-0.9-0.9-2.3-0.8-2.3-0.8h-41.1c0,0-0.9,0-1.5,0.4s-0.9,1.1-0.9,1.1l-8,22.5 l3.5-26.9c0.2-0.9,1-2.1,2.5-2.1H706V20c0-1.4-1.1-2.5-2.5-2.5h-18.8L677,10h-23v41.5c0,1.4,1.1,2.5,2.5,2.5h47 c1.4,0,2.5-1.1,2.5-2.5v-7.1l4.9-13.7C710.9,30.7,711.2,29.3,710.3,28.3z"/></g>

<!-- ==========================================
		lang icon
	========================================== -->

	<style type="text/css">
		.c-html { fill:#0074D9; }
		.c-css  { fill:#F012BE; }
		.c-js   { fill:#3D9970; }
		.c-php  { fill:#FF851B; }
	</style>

	<g id="php-w">
		<path class="c-white" d="M562,136h-52c-3.3,0-6-2.7-6-6V78c0-3.3,2.7-6,6-6h52c3.3,0,6,2.7,6,6v52 C568,133.3,565.3,136,562,136z"/>
		<g class="c-black">
			<path d="M535.3,113c-1.4,0-2.7,0.5-3.7,1.4c-1,0.9-1.5,2.2-1.5,3.8c0,1.6,0.5,2.9,1.5,3.9c1,1,2.2,1.4,3.7,1.4 c1.4,0,2.7-0.5,3.7-1.4c1-1,1.5-2.3,1.5-3.9c0-1.6-0.5-2.8-1.5-3.8C537.9,113.5,536.7,113,535.3,113z"/><path d="M546,89.3c-0.6-1.1-1.3-2.1-2.3-2.9c-1-0.8-2.2-1.4-3.6-1.8c-1.4-0.4-2.9-0.6-4.5-0.6c-2.3,0-4.3,0.5-6.1,1.4 c-1.8,0.9-3.4,2.1-4.7,3.5l-0.2,0.2l4,3.7l0.2-0.2c0.9-0.9,1.9-1.6,2.9-2.1c1-0.5,2.2-0.8,3.4-0.8c1.5,0,2.8,0.4,3.6,1.2 c0.9,0.8,1.3,1.8,1.3,3.1c0,0.8-0.2,1.5-0.7,2.1c-0.5,0.7-1,1.4-1.7,2c-0.7,0.7-1.4,1.3-2.2,2c-0.8,0.7-1.5,1.5-2.1,2.3 c-0.6,0.8-1.1,1.8-1.4,2.8c-0.3,1-0.4,2.2-0.2,3.6l0,0.2h6.2l0-0.3c-0.1-1.1,0-2,0.3-2.9c0.4-0.8,0.9-1.7,1.5-2.4 c0.6-0.7,1.3-1.5,2.1-2.2c0.8-0.7,1.6-1.5,2.3-2.2c0.7-0.8,1.3-1.7,1.8-2.6c0.5-1,0.7-2.1,0.7-3.3 C546.9,91.7,546.6,90.4,546,89.3z"/><path d="M561.8,101.5l-12-7.4v5l7.9,4.9l-7.9,4.9v5l12-7.4l0,0L561.8,101.5L561.8,101.5z M509.8,101.5v5l0,0l12,7.4v-5l-7.9-4.9 l7.9-4.9v-5L509.8,101.5L509.8,101.5z"/>
		</g>
	</g>
	<g id="php-b">
		<path class="c-php" d="M490,136h-52c-3.3,0-6-2.7-6-6V78c0-3.3,2.7-6,6-6h52c3.3,0,6,2.7,6,6v52 C496,133.3,493.3,136,490,136z"/>
		<g class="c-white">
			<g>
				<path d="M463.4,113c-1.4,0-2.7,0.5-3.7,1.4c-1,0.9-1.5,2.2-1.5,3.8c0,1.6,0.5,2.9,1.5,3.9c1,1,2.2,1.4,3.7,1.4 c1.4,0,2.7-0.5,3.7-1.4s1.5-2.3,1.5-3.9c0-1.6-0.5-2.8-1.5-3.8C466.1,113.4,464.9,113,463.4,113z"/><path d="M474.2,89.2c-0.6-1.1-1.3-2.1-2.3-2.9c-1-0.8-2.2-1.4-3.6-1.8c-1.4-0.4-2.9-0.6-4.5-0.6 c-2.3,0-4.3,0.5-6.1,1.4c-1.8,0.9-3.4,2.1-4.7,3.5l-0.2,0.2l4,3.7l0.2-0.2c0.9-0.9,1.9-1.6,2.9-2.1c1-0.5,2.2-0.8,3.4-0.8 c1.5,0,2.8,0.4,3.6,1.2c0.9,0.8,1.3,1.8,1.3,3.1c0,0.8-0.2,1.5-0.7,2.1c-0.5,0.7-1,1.4-1.7,2c-0.7,0.7-1.4,1.4-2.2,2 c-0.8,0.7-1.5,1.5-2.1,2.3c-0.6,0.8-1.1,1.8-1.4,2.8c-0.3,1-0.4,2.2-0.2,3.6l0,0.2h6.2l0-0.3c-0.1-1.1,0-2,0.3-2.9 c0.4-0.9,0.9-1.7,1.5-2.4c0.6-0.7,1.3-1.5,2.1-2.2c0.8-0.7,1.6-1.5,2.3-2.2c0.7-0.8,1.3-1.7,1.8-2.6c0.5-1,0.7-2.1,0.7-3.3 C475,91.7,474.8,90.4,474.2,89.2z"/>
			</g>
			<path d="M438,101.5v5l0,0l12,7.4v-5l-7.9-4.9l7.9-4.9v-5L438,101.5L438,101.5z M490,101.5l-12-7.4v5l7.9,4.9 l-7.9,4.9v5l12-7.4l0,0L490,101.5L490,101.5z"/>
		</g>
	</g>

	<g id="js-w">
		<path class="c-white" d="M418,136h-52c-3.3,0-6-2.7-6-6V78c0-3.3,2.7-6,6-6h52c3.3,0,6,2.7,6,6v52
			C424,133.3,421.3,136,418,136z"/>
		<g class="c-black">
			<path d="M377.4,96.8v-5.1c0.1-3.7,1.3-5.9,3.8-6.7l0.5-0.2l-1.4-4.2l-0.5,0.1c-2.8,0.8-5,2.1-6.5,3.9c-1.5,1.8-2.3,4.2-2.3,7.1v5 c0,3.3-1.3,4.8-4,4.8h-0.5v5.2h0.5c2.7,0,4,1.5,4,4.8v5c0.1,5.7,3.1,9.4,8.8,11l0.5,0.1l1.4-4.2l-0.5-0.2c-2.5-0.8-3.8-3-3.8-6.7 v-5c0-3.4-1.2-5.9-3.6-7.5C376.2,102.6,377.4,100.1,377.4,96.8z"/><path d="M389.8,110.5c0,1-0.2,2.1-0.5,3.1c-0.3,1-0.9,2.2-1.8,3.6l-0.3,0.4l3.8,2.3l0.3-0.2c1.3-1.1,2.5-2.6,3.3-4.3 c0.9-1.7,1.3-3.5,1.3-5.2l0-4.6h-6.1V110.5z"/><path d="M417.1,101.6c-2.8,0-4-1.5-4-4.8v-4.7c0-3-0.7-5.5-2.2-7.3c-1.5-1.9-3.7-3.2-6.6-4.1l-0.5-0.1l-1.4,4.2l0.5,0.2 c2.5,0.8,3.8,3.1,3.9,6.8v4.9c0,3.5,1.2,6,3.7,7.5c-2.5,1.5-3.7,4-3.7,7.4v4.9c-0.1,3.8-1.3,6-3.9,6.8l-0.5,0.2l1.4,4.2l0.5-0.1 c2.9-0.8,5.1-2.2,6.6-4.1c1.5-1.9,2.2-4.4,2.2-7.4v-4.6c0-3.3,1.3-4.8,4-4.8h0.5v-5.2H417.1z"/><path d="M392.4,93.1c-1.2,0-2.1,0.4-2.8,1.1c-0.7,0.7-1,1.6-1,2.6c0,1,0.4,1.9,1,2.6c0.7,0.7,1.6,1,2.8,1c1.2,0,2.1-0.3,2.8-1 c0.7-0.7,1-1.5,1-2.6c0-1-0.3-1.9-1-2.6C394.6,93.4,393.6,93.1,392.4,93.1z"/>
		</g>
	</g>
	<g id="js-b">
		<path class="c-js" d="M346,136h-52c-3.3,0-6-2.7-6-6V78c0-3.3,2.7-6,6-6h52c3.3,0,6,2.7,6,6v52
			C352,133.3,349.3,136,346,136z"/>
		<g class="c-white"><path d="M305.4,96.8v-5.1c0.1-3.7,1.3-5.9,3.8-6.7c0.1,0,0.2-0.1,0.3-0.3s0.1-0.3,0-0.4l-1.1-3.3 c-0.1-0.3-0.3-0.4-0.6-0.3c-2.8,0.8-5,2.1-6.5,3.9c-1.5,1.8-2.3,4.2-2.3,7.1v5c0,3.3-1.3,4.8-4,4.8c-0.3,0-0.5,0.2-0.5,0.5v4.2 c0,0.3,0.2,0.5,0.5,0.5c2.7,0,4,1.5,4,4.8v5c0.1,5.7,3.1,9.4,8.8,11c0,0,0.1,0,0.1,0c0.2,0,0.4-0.1,0.5-0.3l1.1-3.3 c0-0.1,0-0.3,0-0.4c-0.1-0.1-0.2-0.2-0.3-0.3c-2.5-0.8-3.8-3-3.8-6.7v-5c0-3.4-1.2-5.9-3.6-7.5 C304.2,102.6,305.4,100.1,305.4,96.8z"/><path d="M323.4,106.1h-5.1c-0.6,0-1,0.4-1,1v4.4c0,1-0.2,2-0.5,2.9c-0.3,1-0.9,2.1-1.8,3.5c-0.1,0.2-0.2,0.5-0.1,0.8 c0.1,0.3,0.2,0.5,0.5,0.6l3.1,1.8c0.2,0.1,0.3,0.1,0.5,0.1c0.2,0,0.5-0.1,0.6-0.2c1.4-1.2,2.6-2.7,3.4-4.4 c0.9-1.8,1.3-3.6,1.4-5.4l0-4.1c0-0.3-0.1-0.5-0.3-0.7C323.9,106.2,323.7,106.1,323.4,106.1z"/><path d="M345.1,101.6c-2.8,0-4-1.5-4-4.8v-4.7c0-3-0.7-5.5-2.2-7.3c-1.5-1.9-3.7-3.2-6.6-4.1 c-0.3-0.1-0.5,0.1-0.6,0.3l-1.1,3.3c0,0.1,0,0.3,0,0.4s0.2,0.2,0.3,0.3c2.5,0.8,3.8,3.1,3.9,6.8v4.9c0,3.5,1.2,6,3.7,7.5 c-2.5,1.5-3.7,4-3.7,7.4v4.9c-0.1,3.8-1.3,6-3.9,6.8c-0.1,0-0.2,0.1-0.3,0.3c-0.1,0.1-0.1,0.3,0,0.4l1.1,3.3 c0.1,0.2,0.3,0.3,0.5,0.3c0,0,0.1,0,0.1,0c2.9-0.8,5.1-2.2,6.6-4.1c1.5-1.9,2.2-4.4,2.2-7.4v-4.6c0-3.3,1.3-4.8,4-4.8 c0.3,0,0.5-0.2,0.5-0.5v-4.2C345.6,101.8,345.4,101.6,345.1,101.6z"/><path d="M320.4,91.6c-1.3,0-2.4,0.4-3.2,1.2c-0.8,0.8-1.1,1.8-1.1,3c0,1.2,0.4,2.2,1.2,2.9c0.8,0.8,1.8,1.2,3.1,1.2 c1.3,0,2.4-0.4,3.2-1.2c0.8-0.8,1.2-1.8,1.2-2.9c0-1.2-0.4-2.2-1.1-3C322.8,92,321.8,91.6,320.4,91.6z"/>
		</g>
	</g>

	<g id="css-w">
		<path class="c-white" d="M274,136h-52c-3.3,0-6-2.7-6-6V78c0-3.3,2.7-6,6-6h52c3.3,0,6,2.7,6,6v52 C280,133.3,277.3,136,274,136z"/>
		<g class="c-black"><path d="M229.5,89c-4.9,0-9,4-9,9v12.5c0,4.9,4,9,9,9c4.9,0,9-4,9-9V110h-5v0.5c0,2.2-1.8,4-4,4s-4-1.8-4-4V97.9c0-2.2,1.8-4,4-4 s4,1.8,4,4v0.5h5v-0.5C238.4,93,234.4,89,229.5,89z"/><path d="M248,101.7c-1.4,0-2.5-0.3-3.1-1c-0.9-1-0.9-2.5-0.9-2.6l0-0.2l0,0c0-2.2,1.8-3.9,4-3.9c2.2,0,4,1.8,4,4v0.5h5v-0.5 c0-4.9-4-9-9-9c-4.9,0-8.9,4-9,8.9c0,0.6-0.1,3.8,2.2,6.2c1.6,1.7,3.9,2.6,6.8,2.6c1.4,0,2.5,0.3,3.1,1c0.9,1,0.9,2.5,0.9,2.6 l0,0.2c0,2.2-1.8,4-4,4s-4-1.8-4-4V110h-5v0.5c0,4.9,4,9,9,9c4.9,0,8.9-4,9-8.9c0-0.6,0.1-3.8-2.2-6.2 C253.2,102.6,250.9,101.7,248,101.7z"/><path d="M273.3,104.3c-1.6-1.7-3.9-2.6-6.8-2.6c-1.4,0-2.5-0.3-3.1-1c-0.9-1-0.9-2.5-0.9-2.6l0-0.2l0,0c0-2.2,1.8-3.9,4-3.9 c2.2,0,4,1.8,4,4v0.5h5v-0.5c0-4.9-4-9-9-9c-4.9,0-8.9,4-9,8.9c0,0.6-0.1,3.8,2.2,6.2c1.6,1.7,3.9,2.6,6.8,2.6 c1.4,0,2.5,0.3,3.1,1c0.9,1,0.9,2.5,0.9,2.6l0,0.2c0,2.2-1.8,4-4,4s-4-1.8-4-4V110h-5v0.5c0,4.9,4,9,9,9c4.9,0,8.9-4,9-8.9 C275.5,110,275.6,106.8,273.3,104.3z"/>
		</g>
	</g>
	<g id="css-b">
		<path class="c-css" d="M202,136h-52c-3.314,0-6-2.686-6-6V78c0-3.314,2.686-6,6-6h52c3.314,0,6,2.686,6,6v52 C208,133.314,205.314,136,202,136z"/>
		<g class="c-white">
			<path d="M157.464,88.954c-4.943,0-8.964,4.021-8.964,8.964v12.546c0,4.943,4.021,8.965,8.964,8.965 c4.943,0,8.965-4.021,8.965-8.965v-0.5h-5v0.5c0,2.187-1.779,3.965-3.965,3.965s-3.964-1.778-3.964-3.965V97.918 c0-2.186,1.778-3.964,3.964-3.964s3.965,1.778,3.965,3.964v0.5h5v-0.5C166.429,92.976,162.407,88.954,157.464,88.954z"/><path d="M176,101.691c-1.443,0-2.493-0.337-3.118-1.002c-0.912-0.972-0.857-2.519-0.854-2.585l0.007-0.187 c0-2.186,1.778-3.964,3.964-3.964s3.964,1.778,3.964,3.964v0.5h5v-0.5c0-4.942-4.021-8.964-8.964-8.964 c-4.903,0-8.924,3.982-8.963,8.864c-0.036,0.613-0.1,3.797,2.152,6.241c1.609,1.746,3.9,2.632,6.811,2.632 c1.444,0,2.493,0.337,3.118,1.002c0.911,0.971,0.857,2.519,0.854,2.584l-0.007,0.187c0,2.187-1.778,3.965-3.964,3.965 s-3.964-1.778-3.964-3.965v-0.5h-5v0.5c0,4.943,4.021,8.965,8.964,8.965c4.903,0,8.924-3.982,8.963-8.865 c0.036-0.613,0.1-3.797-2.152-6.24C181.201,102.577,178.91,101.691,176,101.691z"/><path d="M201.337,104.323c-1.609-1.746-3.9-2.632-6.811-2.632c-1.444,0-2.492-0.337-3.117-1.002 c-0.912-0.972-0.857-2.519-0.854-2.585l0.007-0.187c0-2.186,1.778-3.964,3.964-3.964s3.965,1.778,3.965,3.964v0.5h5v-0.5 c0-4.942-4.021-8.964-8.965-8.964c-4.903,0-8.924,3.982-8.963,8.864c-0.036,0.613-0.1,3.797,2.153,6.241 c1.609,1.746,3.9,2.632,6.81,2.632c1.444,0,2.493,0.337,3.118,1.002c0.911,0.971,0.857,2.519,0.854,2.584l-0.007,0.187 c0,2.187-1.779,3.965-3.965,3.965s-3.964-1.778-3.964-3.965v-0.5h-5v0.5c0,4.943,4.021,8.965,8.964,8.965 c4.903,0,8.925-3.982,8.963-8.865C203.525,109.95,203.589,106.768,201.337,104.323z"/>
		</g>
	</g>

	<g id="html-w">
		<path class="c-white" d="M130,72H78c-3.3,0-6,2.7-6,6v52c0,3.3,2.7,6,6,6h52c3.3,0,6-2.7,6-6V78C136,74.7,133.3,72,130,72z"/>
		<g class="c-black">
			<polygon points="109.7,83.5 92.2,124.5 98.3,124.5 115.8,83.5"/><path d="M92.8,116.5c0,0,0.1,0,0.1,0c0.1,0,0.1-0.1,0.1-0.2v-5c0-0.1,0-0.2-0.1-0.2l-10.6-6.5L93,98c0.1,0,0.1-0.1,0.1-0.2v-5 c0-0.1,0-0.2-0.1-0.2c-0.1,0-0.2,0-0.3,0l-15,9.3c0,0,0,0,0,0c0,0,0,0,0,0l0,0c0,0,0,0,0,0c0,0-0.1,0-0.1,0.1c0,0,0,0,0,0.1 c0,0,0,0,0,0.1v0v5v0c0,0,0,0,0,0c0,0,0,0.1,0,0.1c0,0,0,0,0.1,0.1c0,0,0,0,0,0l0,0c0,0,0,0,0,0c0,0,0,0,0,0l15,9.3 C92.7,116.5,92.8,116.5,92.8,116.5z"/><path d="M130.1,102C130.1,102,130.1,101.9,130.1,102c0-0.1-0.1-0.1-0.1-0.1c0,0,0,0,0,0l0,0c0,0,0,0,0,0c0,0,0,0,0,0l-15-9.3 c-0.1,0-0.2,0-0.3,0c-0.1,0-0.1,0.1-0.1,0.2v5c0,0.1,0,0.2,0.1,0.2l10.6,6.5l-10.6,6.5c-0.1,0-0.1,0.1-0.1,0.2v5 c0,0.1,0,0.2,0.1,0.2c0,0,0.1,0,0.1,0c0,0,0.1,0,0.1,0l15-9.3c0,0,0,0,0,0c0,0,0,0,0,0l0,0c0,0,0,0,0,0c0,0,0,0,0.1-0.1 c0,0,0-0.1,0-0.1c0,0,0,0,0,0v0L130.1,102L130.1,102C130.1,102,130.1,102,130.1,102z"/>
		</g>
	</g>
	<g id="html-b">
		<path class="c-html" d="M58,136H6c-3.314,0-6-2.686-6-6V78c0-3.314,2.686-6,6-6h52c3.314,0,6,2.686,6,6v52 C64,133.314,61.314,136,58,136z"/>
		<g class="c-white">
			<polygon points="38.01,83.75 20.742,124.25 26.286,124.25 43.553,83.75"/>
			<path d="M21.5,116.294v-5c0-0.174-0.09-0.334-0.237-0.426l-10.26-6.332l10.26-6.332 c0.147-0.092,0.237-0.252,0.237-0.426v-5c0-0.182-0.098-0.349-0.256-0.437s-0.352-0.083-0.506,0.011l-14.976,9.246 c-0.002,0.001-0.004,0-0.005,0.001c-0.002,0.001-0.003,0.004-0.005,0.005l-0.014,0.008c-0.03,0.018-0.045,0.05-0.07,0.073 c-0.036,0.034-0.077,0.063-0.101,0.106c-0.031,0.054-0.039,0.116-0.048,0.178c-0.003,0.023-0.018,0.042-0.018,0.065v0.003v4.995 v0.002c0,0.016,0.01,0.028,0.012,0.044c0.007,0.071,0.02,0.141,0.055,0.201c0.021,0.037,0.057,0.06,0.087,0.091 c0.028,0.029,0.048,0.066,0.084,0.088l0.016,0.01c0.001,0.001,0.002,0.002,0.003,0.003c0.001,0,0.002,0,0.003,0.001l14.978,9.246 c0.081,0.049,0.171,0.074,0.263,0.074c0.084,0,0.168-0.021,0.244-0.063C21.402,116.643,21.5,116.476,21.5,116.294z"/><path d="M58.482,101.971c-0.009-0.062-0.018-0.125-0.048-0.178c-0.024-0.043-0.065-0.072-0.101-0.106 c-0.025-0.023-0.04-0.055-0.07-0.073l-0.014-0.008c-0.002-0.001-0.003-0.004-0.005-0.005c-0.002-0.001-0.004,0-0.005-0.001 l-14.976-9.246c-0.154-0.094-0.348-0.099-0.506-0.011S42.5,92.597,42.5,92.778v5c0,0.174,0.09,0.334,0.237,0.426l10.26,6.332 l-10.26,6.332c-0.147,0.092-0.237,0.252-0.237,0.426v5c0,0.182,0.098,0.349,0.256,0.437c0.076,0.042,0.16,0.063,0.244,0.063 c0.091,0,0.182-0.025,0.263-0.074l14.978-9.246c0.001,0,0.002,0,0.003-0.001c0.001-0.001,0.002-0.002,0.003-0.003l0.016-0.01 c0.036-0.022,0.055-0.058,0.084-0.088c0.03-0.031,0.066-0.054,0.087-0.091c0.035-0.061,0.048-0.13,0.055-0.201 c0.001-0.015,0.012-0.028,0.012-0.044v-0.002v-4.995v-0.003C58.5,102.013,58.485,101.994,58.482,101.971z"/>
		</g>
	</g>

	<g id="ico_zip">
		<defs>
			<linearGradient id="g-zip" gradientUnits="userSpaceOnUse" x1="536" y1="195.2157" x2="536" y2="155.9303">
				<stop  offset="0" style="stop-color:#FFCD4D"/>
				<stop  offset="1" style="stop-color:#FFA243"/>
			</linearGradient>
		</defs>
		<path style="fill:url(#g-zip);" d="M508,159v34c0,1.7,1.3,3,3,3h6v-40h-6C509.3,156,508,157.3,508,159z M561,156h-26v40h26c1.7,0,3-1.3,3-3v-34 C564,157.3,562.7,156,561,156z"/>
		<rect x="520" y="155" class="c-gray" width="12" height="42"/>
		<g class="c-black">
			<polygon points="520,152 520,155 520,158 526,158 526,155 532,155 532,152"/>
			<rect x="526" y="158" width="6" height="3"/>
			<rect x="520" y="161" width="6" height="3"/>
			<rect x="526" y="164" width="6" height="3"/>
			<rect x="520" y="167" width="6" height="3"/>
			<rect x="526" y="170" width="6" height="3"/>
			<rect x="520" y="173" width="6" height="3"/>
			<rect x="526" y="176" width="6" height="3"/>
			<rect x="520" y="179" width="6" height="3"/>
			<rect x="526" y="182" width="6" height="3"/>
			<rect x="520" y="185" width="6" height="3"/>
			<rect x="526" y="188" width="6" height="3"/>
			<rect x="520" y="191" width="6" height="3"/>
			<polygon points="526,194 526,197 520,197 520,200 532,200 532,197 532,194"/>
		</g>
	</g>

<!-- ==========================================
		info icon
	========================================== -->
	<g id="setting-b">
	<path class="c-black" d="M626.3,108c0.3-1.3,0.4-2.6,0.4-4c0-1.2-0.1-2.3-0.3-3.5c2.3-2.3,4.9-4.9,5.2-5.1
		c0.5-0.5,1-1.8,0.3-3c-0.7-1.2-1.5-2.6-1.8-3.2c-0.6-1-1.7-1.5-2.8-1.2c-0.6,0.1-3.9,1-6.9,1.9c-1.8-1.6-3.9-2.9-6.3-3.7
		c-0.9-3.2-1.8-6.8-1.9-7.2c-0.2-0.7-1-1.8-2.4-1.8c-1.4,0-3,0-3.6,0c-1.1,0-2.1,0.8-2.4,1.8c-0.2,0.6-1.1,4.1-1.9,7.2
		c-2.2,0.8-4.2,1.9-5.9,3.4c-3.3-0.9-7.1-1.9-7.5-2c-0.7-0.2-2,0-2.7,1.2c-0.7,1.2-1.5,2.6-1.8,3.2c-0.6,1-0.4,2.2,0.4,3
		c0.4,0.4,3.1,3.1,5.4,5.4c-0.2,1.2-0.4,2.4-0.4,3.6c0,1,0.1,2,0.3,3c-2.4,2.4-5.3,5.3-5.6,5.6c-0.5,0.5-1,1.8-0.3,3
		c0.7,1.2,1.5,2.6,1.8,3.2c0.6,1,1.7,1.5,2.8,1.2c0.6-0.2,4.2-1.1,7.3-2c1.7,1.5,3.7,2.7,5.8,3.6c0.9,3.3,1.9,7,2,7.4
		c0.2,0.7,1,1.8,2.4,1.8c1.4,0,3,0,3.6,0c1.1,0,2.1-0.8,2.4-1.8c0.1-0.6,1-3.9,1.9-7c2.4-0.7,4.5-1.9,6.4-3.5
		c3.2,0.9,6.7,1.8,7.1,1.9c0.7,0.2,2,0,2.7-1.2c0.7-1.2,1.5-2.6,1.8-3.2c0.6-1,0.4-2.2-0.4-3C630.9,112.6,628.5,110.2,626.3,108z
		 M608,113.4c-5.2,0-9.4-4.2-9.4-9.4c0-5.2,4.2-9.4,9.4-9.4s9.4,4.2,9.4,9.4C617.4,109.2,613.2,113.4,608,113.4z"/>
</g>
	<g id="setting-w"><path class="c-white" d="M698.4,108c0.3-1.3,0.4-2.6,0.4-4c0-1.2-0.1-2.3-0.3-3.5c2.3-2.3,4.9-4.9,5.2-5.1
		c0.5-0.5,1-1.8,0.3-3c-0.7-1.2-1.5-2.6-1.8-3.2c-0.6-1-1.7-1.5-2.8-1.2c-0.6,0.1-3.9,1-6.9,1.9c-1.8-1.6-3.9-2.9-6.3-3.7
		c-0.9-3.2-1.8-6.8-1.9-7.2c-0.2-0.7-1-1.8-2.4-1.8s-3,0-3.6,0c-1.1,0-2.1,0.8-2.4,1.8c-0.2,0.6-1.1,4.1-1.9,7.2
		c-2.2,0.8-4.2,1.9-5.9,3.4c-3.3-0.9-7.1-1.9-7.5-2c-0.7-0.2-2,0-2.7,1.2c-0.7,1.2-1.5,2.6-1.8,3.2c-0.6,1-0.4,2.2,0.4,3
		c0.4,0.4,3.1,3.1,5.4,5.4c-0.2,1.2-0.4,2.4-0.4,3.6c0,1,0.1,2,0.3,3c-2.4,2.4-5.3,5.3-5.6,5.6c-0.5,0.5-1,1.8-0.3,3
		c0.7,1.2,1.5,2.6,1.8,3.2c0.6,1,1.7,1.5,2.8,1.2c0.6-0.2,4.2-1.1,7.3-2c1.7,1.5,3.7,2.7,5.8,3.6c0.9,3.3,1.9,7,2,7.4
		c0.2,0.7,1,1.8,2.4,1.8c1.4,0,3,0,3.6,0c1.1,0,2.1-0.8,2.4-1.8c0.1-0.6,1-3.9,1.9-7c2.4-0.7,4.5-1.9,6.4-3.5
		c3.2,0.9,6.7,1.8,7.1,1.9c0.7,0.2,2,0,2.7-1.2s1.5-2.6,1.8-3.2c0.6-1,0.4-2.2-0.4-3C703,112.6,700.6,110.2,698.4,108z M680.1,113.4
		c-5.2,0-9.4-4.2-9.4-9.4c0-5.2,4.2-9.4,9.4-9.4c5.2,0,9.4,4.2,9.4,9.4C689.5,109.2,685.3,113.4,680.1,113.4z"/></g>

<!-- ==========================================
	notice icon
========================================== -->

<g id="ico_info">
	<defs>
	<linearGradient id="g-info" gradientUnits="userSpaceOnUse" x1="392" y1="205.9759" x2="392" y2="145.2095">
		<stop  offset="0" style="stop-color:#0071BC"/>
		<stop  offset="1" style="stop-color:#003CBC"/>
	</linearGradient>
	</defs>
	<g id="info_base">
		<circle style="fill:url(#g-info);" cx="392" cy="176" r="31"/>
	</g>
	<g id="info_symbol">
	<path class="c-white" d="M387.2,172.3V194c0,1.4,1.1,2.5,2.5,2.5h4.5c1.4,0,2.5-1.1,2.5-2.5v-21.7c-1.4,0.7-3.1,1.1-4.8,1.1
		S388.7,173,387.2,172.3z"/>
	<circle class="c-white" cx="392" cy="162.4" r="5"/>
	</g>
</g>

<g id="ico_alert">
	<defs>
	<linearGradient id="g-alert" gradientUnits="userSpaceOnUse" x1="464" y1="202.974" x2="464" y2="148.2997">
		<stop  offset="0" style="stop-color:#FFA200"/>
		<stop  offset="1" style="stop-color:#FF6B00"/>
	</linearGradient>
	</defs>
	<path id="alert_base" style="fill:url(#g-alert);" d="M468.34,150.65l26.05,45.58c1.9,3.33-0.5,7.48-4.34,7.48h-52.09
		c-3.84,0-6.25-4.15-4.34-7.48l26.05-45.58C461.58,147.3,466.42,147.3,468.34,150.65z"/>
	<g id="alert_symbol">
	<path class="c-white" d="M464.2,183.2c1,0,2.1,0.2,3,0.4l2-20.9c0-1.4-1.1-2.5-2.5-2.5h-5.4c-1.4,0-2.5,1.1-2.5,2.5l2,21.1 C461.9,183.4,463,183.2,464.2,183.2z"/>
	<circle class="c-white" cx="464" cy="194.2" r="5"/>
	</g>
</g>

<!-- ==========================================
	browser icon
========================================== -->
<style type="text/css">

	/* chrome */
	.c-chrome-red  { fill:#CF4337;}
	.c-chrome-green  { fill:#179556;}
	.c-chrome-yellow { fill:#F4C645;}

	.chrome-highlight path { fill-opacity:0.2; }

	.chrome-center { fill:#4679BC;}
	/* firefox */
	/* ie */
	.c-ie {fill:#336AB3;}
	/* edge */
	.c-edge{fill:#3470B0;}

	.c-rss        { fill:#F78422;}

</style>

<g id="ico_chrome" >

	<g id="chrome-base" style="clip-path:url(#chrome-mask);">
			<defs>
				<circle id="circle_mask" cx="32" cy="176" r="28.5"/>
                <clipPath id="chrome-mask">
                    <use xlink:href="#circle_mask"  style="overflow:visible;"/>
                </clipPath>

                <linearGradient id="g-chrome-red" gradientUnits="userSpaceOnUse" x1="8.9576" y1="857.9122" x2="26.7411" y2="868.3011" gradientTransform="matrix(1 0 0 -1 0 1026)">
                <stop  offset="0" style="stop-color:#9B2A24;stop-opacity:0.6"/>
                <stop  offset="0.66" style="stop-color:#9B2A24;stop-opacity:0"/>
                </linearGradient>
                <radialGradient id="g-chrome-red_shadow" cx="571.0591" cy="870.0214" r="25.7177" gradientTransform="matrix(0.9828 0 0 -0.9828 -553.1724 1015.8965)" gradientUnits="userSpaceOnUse">
                <stop  offset="0" style="stop-color:#3D2722;stop-opacity:0.2"/>
                <stop  offset="1" style="stop-color:#3D2722;stop-opacity:0"/>
                </radialGradient>

                <linearGradient id="g-chrome-green" gradientUnits="userSpaceOnUse" x1="36.8142" y1="827.5433" x2="17.9232" y2="838.6097" gradientTransform="matrix(1 0 0 -1 0 1026)">
                <stop  offset="0" style="stop-color:#03532D;stop-opacity:0.4"/>
                <stop  offset="0.33" style="stop-color:#03532D;stop-opacity:0"/>
                </linearGradient>
                <radialGradient id="g-chrome-green_shadow" cx="595.3859" cy="854.3115" r="28.9572" gradientTransform="matrix(0.9828 0 0 -0.9828 -553.1724 1015.8965)" gradientUnits="userSpaceOnUse">
                <stop  offset="0" style="stop-color:#263138;stop-opacity:0.2"/>
                <stop  offset="1" style="stop-color:#263138;stop-opacity:0"/>
                </radialGradient>

                <linearGradient id="g-chrome-yellow" gradientUnits="userSpaceOnUse" x1="40.4088" y1="864.701" x2="45.1664" y2="843.8668" gradientTransform="matrix(1 0 0 -1 0 1026)">
                <stop  offset="0" style="stop-color:#DD600F;stop-opacity:0.3"/>
                <stop  offset="0.66" style="stop-color:#DD600F;stop-opacity:0"/>
                </linearGradient>
                <radialGradient id="g-chrome-yellow_shadow" cx="594.1797" cy="867.5559" r="27.7082" gradientTransform="matrix(0.9828 0 0 -0.9828 -553.1724 1015.8965)" gradientUnits="userSpaceOnUse">
                <stop  offset="0" style="stop-color:#3D2722;stop-opacity:0.2"/>
                <stop  offset="1" style="stop-color:#3D2722;stop-opacity:0"/>
                </radialGradient>

			</defs>

            <g id="chrome-base" style="clip-path:url(#chrome-mask);">
                <path id="red_base" class="c-chrome-red" d="M6.93,143.94v38.81h13.87L32,163.31h28.5v-19.38H6.93z"/>
                <path id="red_gradation" style="fill:url(#g-chrome-red);" d="M6.93,143.94v38.81h13.87L32,163.31h28.5v-19.38H6.93z"/>
                <path id="red_shadow" style="fill:url(#g-chrome-red_shadow);" d="M8.08,160.87l18.52,18.53l-5.76,3.34L8.08,160.87z"/>
                <path id="green_base" class="c-chrome-green" d="M3.5,204.77h27.14l12.63-12.63v-9.39H20.73L3.5,153.11V204.77z"/>
                <path id="green_gradation" style="fill:url(#g-chrome-green);" d="M3.5,204.77h27.14l12.63-12.63v-9.39H20.73L3.5,153.11V204.77z"/>
                <path id="green_shadow" style="fill:url(#g-chrome-green_shadow);" d="M30.64,204.77l6.8-25.36l5.76,3.34L30.64,204.77z"/>
                <path id="yellow_base" class="c-chrome-yellow" d="M32,163.31l11.21,19.43l-12.5,22.02h29.8v-41.45H32z"/>
                <path id="yellow_gradation" style="fill:url(#g-chrome-yellow);" d="M32,163.31l11.21,19.43l-12.5,22.02h29.8v-41.45H32z"/>
                <path id="yellow_shadow" style="fill:url(#g-chrome-yellow_shadow);" d="M32,163.31v6.8l25.39-6.8H32z"/>
            </g>
	</g>
	<g id="chrome-highlight">
			<path class="c-black" d="M21,182.57L8.11,160.45l-0.19,0.32l12.63,21.96L21,182.57z"/>
			<path class="c-black" d="M42.95,183.17l-0.26-0.13l-12.25,21.43l0.32,0.01l12.26-21.44L42.95,183.17z"/>
			<path class="c-black" d="M32,162.99c-7.13,0-12.95,5.83-12.95,12.95v0.32c0-7.13,5.83-12.95,12.95-12.95h25.39l-0.17-0.32H32z"/>
			<path class="c-white" d="M43.21,182.75c-2.27,3.89-6.41,6.48-11.21,6.48s-8.97-2.59-11.21-6.48L8.02,160.86l-0.1,0.15l12.87,22.06
				c2.27,3.89,6.41,6.48,11.21,6.48s8.97-2.59,11.21-6.48V182.75z"/>
			<path class="c-black" d="M32.32,163.31h-0.16c7.13,0.1,12.79,5.83,12.79,12.95s-5.7,12.86-12.79,12.95h0.16
				c7.13,0,12.95-5.83,12.95-12.95S39.45,163.31,32.32,163.31z"/>
			<path class="c-white" d="M43.34,183.17c1.1-1.88,1.75-4.08,1.75-6.48c0-1.3-0.23-2.66-0.65-3.89c0.32,1.1,0.52,2.27,0.52,3.47
				c0,2.36-0.65,4.53-1.75,6.48l-12.34,21.73l0.32,0l12.21-21.25L43.34,183.17z"/>
	</g>
	<g id="chrome-center">
		<circle id="c-center_2" class="c-white" cx="32" cy="176.27" r="12.95"/>
		<circle id="center_1" class="chrome-center" cx="32" cy="176.27" r="10.36"/>
	</g>

</g>

<g id="ico_firefox" >
	<g id="earth">
	<radialGradient id="g-ff_earth" cx="-8004.9272" cy="8978.75" r="49.0498" gradientTransform="matrix(1.225 0 0 -1.225 9921.7383 11155.7275)" gradientUnits="userSpaceOnUse">
		<stop  offset="0" style="stop-color:#00CCDA"/>
		<stop  offset="0.22" style="stop-color:#0083FF"/>
		<stop  offset="0.261" style="stop-color:#007AF9"/>
		<stop  offset="0.33" style="stop-color:#0060E8"/>
		<stop  offset="0.333" style="stop-color:#005FE7"/>
		<stop  offset="0.438" style="stop-color:#2639AD"/>
		<stop  offset="0.522" style="stop-color:#401E84"/>
		<stop  offset="0.566" style="stop-color:#4A1475"/>
	</radialGradient>
	<path style="fill:url(#g-ff_earth);" d="M104.23,205.2c15.2,0,27.52-12.38,27.52-27.65s-12.32-27.65-27.5-27.65s-27.5,12.38-27.5,27.65
		C76.71,192.84,89.04,205.2,104.23,205.2z"/>
	</g>
	<g id="shadow">
	<linearGradient id="g-ff_shadow" gradientUnits="userSpaceOnUse" x1="108.1096" y1="836.0106" x2="96.242" y2="874.8316" gradientTransform="matrix(1 0 0 -1 0 1026)">
		<stop  offset="0" style="stop-color:#000F43;stop-opacity:0.4"/>
		<stop  offset="0.485" style="stop-color:#001962;stop-opacity:0.173"/>
		<stop  offset="1" style="stop-color:#002079;stop-opacity:0"/>
	</linearGradient>
	<path style="fill:url(#g-ff_shadow);" d="M124.85,194.6c-0.59,0.42-1.22,0.8-1.87,1.13c0.86-1.26,1.65-2.56,2.37-3.9
		c0.59-0.65,1.12-1.28,1.56-1.96c0.21-0.34,0.45-0.75,0.71-1.23c1.54-2.78,3.25-7.29,3.3-11.91v-0.01c0-0.11,0-0.23,0-0.34
		c0.01-1.16-0.11-2.32-0.35-3.46c0.01,0.09,0.02,0.18,0.03,0.27c-0.01-0.07-0.03-0.14-0.04-0.21c0.02,0.13,0.04,0.25,0.06,0.37
		c0.32,2.68,0.09,5.29-1.03,7.22c-0.02,0.03-0.04,0.05-0.05,0.08c0.58-2.93,0.78-6.16,0.13-9.4c0,0-0.26-1.57-2.19-6.35
		c-1.11-2.75-3.09-5-4.84-6.65c-1.53-1.89-2.92-3.16-3.69-3.97c-1.6-1.69-2.27-2.95-2.55-3.77c-0.24-0.12-3.29-3.09-3.54-3.2
		c-1.33,2.07-5.53,8.53-3.53,14.58c0.9,2.74,3.19,5.58,5.58,7.17c0.11,0.12,1.42,1.55,2.05,4.78c0.65,3.34,0.31,5.94-1.03,9.79
		c-1.57,3.38-5.58,6.72-9.34,7.06c-8.04,0.73-10.98-4.04-10.98-4.04c2.87,1.15,6.05,0.91,7.98-0.28c1.95-1.2,3.12-2.1,4.08-1.74
		c0.94,0.35,1.69-0.67,1.02-1.72c-1.06-1.64-3-2.48-4.92-2.14c-1.95,0.32-3.73,1.86-6.29,0.37c-0.17-0.1-0.33-0.2-0.48-0.31
		c-0.17-0.11,0.55,0.17,0.38,0.04c-0.5-0.27-1.38-0.86-1.6-1.07c-0.04-0.03,0.39,0.14,0.35,0.1c-2.39-1.97-2.09-3.29-2.01-4.13
		c0.06-0.67,0.49-1.52,1.22-1.87c0.35,0.19,0.57,0.34,0.57,0.34s-0.15-0.31-0.23-0.47c0.03-0.01,0.06-0.01,0.08-0.02
		c0.29,0.14,0.93,0.5,1.27,0.72c0.44,0.31,0.58,0.58,0.58,0.58s0.12-0.06,0.03-0.33c-0.03-0.11-0.16-0.46-0.6-0.82l0.03,0
		c0.26,0.15,0.51,0.32,0.74,0.51c0.12-0.45,0.34-0.91,0.29-1.74c-0.03-0.58-0.02-0.74-0.12-0.96c-0.09-0.19,0.05-0.27,0.21-0.07
		c-0.03-0.16-0.07-0.31-0.14-0.46l0-0.02c0.2-0.7,4.23-2.51,4.52-2.72c0.48-0.34,0.89-0.78,1.19-1.29
		c0.22-0.36,0.39-0.86,0.43-1.62c0.02-0.55-0.23-0.91-4.31-1.34c-1.11-0.11-1.77-0.92-2.14-1.66c-0.07-0.16-0.14-0.31-0.21-0.45
		c-0.07-0.17-0.12-0.34-0.16-0.52c0.67-1.91,1.79-3.53,3.43-4.75c0.09-0.08-0.36,0.02-0.27-0.06c0.1-0.1,0.79-0.37,0.92-0.43
		c0.16-0.07-0.67-0.43-1.41-0.34c-0.75,0.08-0.91,0.17-1.31,0.34c0.17-0.16,0.69-0.38,0.57-0.38c-0.81,0.12-1.81,0.59-2.67,1.12
		c0-0.09,0.02-0.18,0.05-0.27c-0.4,0.17-1.38,0.85-1.67,1.43c0.01-0.11,0.02-0.22,0.02-0.33c-0.3,0.25-0.58,0.54-0.82,0.86
		l-0.01,0.01c-2.32-0.93-4.35-0.99-6.08-0.58c-0.38-0.38-0.56-0.1-1.42-1.99c-0.06-0.11,0.04,0.11,0,0c-0.14-0.37,0.09,0.49,0,0
		c-1.44,1.14-3.34,2.43-4.25,3.34c-0.01,0.04,1.06-0.3,0,0c-0.37,0.11-0.35,0.33-0.4,2.32c-0.01,0.15,0,0.32-0.01,0.46
		c-0.73,0.93-1.22,1.71-1.41,2.12c-0.94,1.62-1.98,4.15-2.98,8.16c0.44-1.08,0.98-2.13,1.6-3.12c-0.84,2.12-1.64,5.46-1.81,10.6
		c0.2-1.06,0.46-2.11,0.78-3.14c-0.2,4.26,0.54,8.52,2.15,12.46c0.58,1.41,1.53,3.56,3.16,5.91c5.12,5.38,12.33,8.73,20.32,8.73
		C112.21,204.05,119.7,200.4,124.85,194.6z"/>
	</g>
	<g id="fox-shadow">
		<radialGradient id="g-ff_fox_shadow_1" cx="-15549.9277" cy="9401.1816" r="27.9506" fx="-15551.7109" fy="9401.1816" gradientTransform="matrix(0.762 0.034 0.05 -1.12 11509.8809 11218.0684)" gradientUnits="userSpaceOnUse">
		<stop  offset="0.045" style="stop-color:#FFEA00"/>
		<stop  offset="0.12" style="stop-color:#FFDE00"/>
		<stop  offset="0.254" style="stop-color:#FFBF00"/>
		<stop  offset="0.429" style="stop-color:#FF8E00"/>
		<stop  offset="0.769" style="stop-color:#FF272D"/>
		<stop  offset="0.872" style="stop-color:#E0255A"/>
		<stop  offset="0.953" style="stop-color:#CC2477"/>
		<stop  offset="1" style="stop-color:#C42482"/>
	</radialGradient>
		<radialGradient id="g-ff_fox_shadow_2" cx="-9022.0078" cy="7837.3237" r="16.5448" gradientTransform="matrix(1.219 0.123 0.123 -1.219 10169.9707 10847.582)" gradientUnits="userSpaceOnUse">
		<stop  offset="3.000000e-03" style="stop-color:#FFEA00"/>
		<stop  offset="0.497" style="stop-color:#FF272D"/>
		<stop  offset="1" style="stop-color:#C42482"/>
	</radialGradient>
		<radialGradient id="g-ff_fox_shadow_3" cx="-9023.5049" cy="7853.188" r="27.6284" gradientTransform="matrix(1.219 0.123 0.123 -1.219 10169.9707 10847.582)" gradientUnits="userSpaceOnUse">
		<stop  offset="3.000000e-03" style="stop-color:#FFE900"/>
		<stop  offset="0.157" style="stop-color:#FFAF0E"/>
		<stop  offset="0.316" style="stop-color:#FF7A1B"/>
		<stop  offset="0.472" style="stop-color:#FF4E26"/>
		<stop  offset="0.621" style="stop-color:#FF2C2E"/>
		<stop  offset="0.762" style="stop-color:#FF1434"/>
		<stop  offset="0.892" style="stop-color:#FF0538"/>
		<stop  offset="1" style="stop-color:#FF0039"/>
	</radialGradient>
		<radialGradient id="g-ff_fox_shadow_4" cx="-9019.5967" cy="7827.5767" r="25.3521" gradientTransform="matrix(1.219 0.123 0.123 -1.219 10169.9707 10847.582)" gradientUnits="userSpaceOnUse">
		<stop  offset="3.000000e-03" style="stop-color:#FF272D"/>
		<stop  offset="0.497" style="stop-color:#C42482"/>
		<stop  offset="0.986" style="stop-color:#620700"/>
	</radialGradient>
		<path style="fill:url(#g-ff_fox_shadow_1)" d="M122.35,150.46c-1.48,1.73-2.18,5.62-0.67,9.56s3.81,3.09,5.25,7.11c1.9,5.31,1.01,12.43,1.01,12.43 s2.28,6.61,3.87-0.41C135.33,165.97,122.35,153.71,122.35,150.46z"/>
		<path style="fill:url(#g-ff_fox_shadow_2)" d="M118.68,198.51c10.1-1.17,14.57-11.57,8.83-11.78C122.32,186.57,113.89,199.07,118.68,198.51z"/>
		<path style="fill:url(#g-ff_fox_shadow_3)" d="M128.23,184.61c6.95-4.04,5.14-12.78,5.14-12.78s-2.68,3.11-4.5,8.08 C127.06,184.83,124.05,187.05,128.23,184.61z"/>
		<path style="fill:url(#g-ff_fox_shadow_4)" d="M106.18,203.68c9.68,3.09,18.01-4.54,12.88-7.09C114.39,194.3,101.58,202.22,106.18,203.68z"/>
	</g>
	<g id="fox">
		<radialGradient id="g-ff_fox_body_1" cx="118.9297" cy="856.7873" r="48.4888" fx="120.664" fy="855.9301" gradientTransform="matrix(1 0 0 -1 0 1026)" gradientUnits="userSpaceOnUse">
			<stop  offset="0.156" style="stop-color:#FFEA00"/>
			<stop  offset="0.231" style="stop-color:#FFDE00"/>
			<stop  offset="0.365" style="stop-color:#FFBF00"/>
			<stop  offset="0.541" style="stop-color:#FF8E00"/>
			<stop  offset="0.763" style="stop-color:#FF272D"/>
			<stop  offset="0.796" style="stop-color:#F92433"/>
			<stop  offset="0.841" style="stop-color:#E91C45"/>
			<stop  offset="0.893" style="stop-color:#CF0E62"/>
			<stop  offset="0.935" style="stop-color:#B5007F"/>
		</radialGradient>
		<radialGradient id="g-ff_fox_body_2" cx="115.2814" cy="881.1348" r="57.2566" gradientTransform="matrix(1 0 0 -1 0 1026)" gradientUnits="userSpaceOnUse">


			<stop  offset="0.279" style="stop-color:#FFEA00"/>
			<stop  offset="0.402" style="stop-color:#FFDD00"/>
			<stop  offset="0.63" style="stop-color:#FFBA00"/>
			<stop  offset="0.856" style="stop-color:#FF9100"/>
			<stop  offset="0.933" style="stop-color:#FF6711"/>
			<stop  offset="0.994" style="stop-color:#FF4A1D"/>
		</radialGradient>
		<linearGradient id="g-ff_fox_body_3" gradientUnits="userSpaceOnUse" x1="-9064.3271" y1="7847.0596" x2="-9046.6992" y2="7851.5527" gradientTransform="matrix(1.219 0.123 0.123 -1.219 10169.9707 10847.582)">

			<stop  offset="0" style="stop-color:#C42482;stop-opacity:0.5"/>
			<stop  offset="0.474" style="stop-color:#FF272D;stop-opacity:0.5"/>
			<stop  offset="0.486" style="stop-color:#FF2C2C;stop-opacity:0.513"/>
			<stop  offset="0.675" style="stop-color:#FF7A1A;stop-opacity:0.72"/>
			<stop  offset="0.829" style="stop-color:#FFB20D;stop-opacity:0.871"/>
			<stop  offset="0.942" style="stop-color:#FFD605;stop-opacity:0.964"/>
			<stop  offset="1" style="stop-color:#FFE302"/>
		</linearGradient>
		<linearGradient id="g-ff_fox_body_4" gradientUnits="userSpaceOnUse" x1="-174.1514" y1="585.9592" x2="-168.3175" y2="579.3331" gradientTransform="matrix(0.995 0.1 0.1 -0.995 202.944 774.304)">
			<stop  offset="5.000000e-03" style="stop-color:#891551;stop-opacity:0.5"/>
			<stop  offset="0.484" style="stop-color:#FF272D;stop-opacity:0.5"/>
			<stop  offset="1" style="stop-color:#FF272D;stop-opacity:0"/>
		</linearGradient>
		<g class="fox_body_1">
		<path style="fill:url(#g-ff_fox_body_1)" d="M128.95,188.32c0.24-0.33,0.55-1.4,0.84-1.87c1.71-2.76,1.72-4.96,1.72-5.01c1.03-5.16,0.94-7.27,0.3-11.16
			c-0.51-3.14-2.75-7.63-4.68-9.79c-2-2.23-0.59-1.5-2.52-3.13c-1.69-1.88-3.34-3.74-4.23-4.49c-6.46-5.4-6.32-6.55-6.19-6.75
			c-0.02,0.02-0.05,0.06-0.09,0.1c-0.08-0.31-0.13-0.56-0.13-0.56s-3.53,3.53-4.28,9.42c-0.49,3.84,0.95,7.85,3.04,10.41
			c1.09,1.33,2.31,2.53,3.66,3.6v0c1.57,2.26,2.44,5.05,2.44,8.05c0,7.52-6.1,13.61-13.62,13.61c-1.02,0-2.05-0.11-3.05-0.34
			c-3.55-0.68-5.6-2.47-6.62-3.68c-0.59-0.7-0.83-1.2-0.83-1.2c3.18,1.14,6.69,0.9,8.83-0.28c2.15-1.19,3.46-2.08,4.52-1.73
			c1.04,0.35,1.87-0.66,1.13-1.71c-0.73-1.04-2.63-2.54-5.45-2.13c-2.16,0.31-4.13,1.84-6.96,0.36c-0.18-0.09-0.36-0.2-0.53-0.31
			c-0.19-0.11,0.61,0.17,0.42,0.04c-0.55-0.27-1.52-0.85-1.78-1.06c-0.04-0.03,0.43,0.13,0.38,0.1c-2.64-1.95-2.31-3.27-2.23-4.09
			c0.07-0.66,0.55-1.51,1.36-1.85c0.39,0.19,0.63,0.34,0.63,0.34s-0.17-0.3-0.26-0.47c0.03-0.01,0.06-0.01,0.09-0.02
			c0.32,0.14,1.03,0.5,1.4,0.72c0.49,0.31,0.64,0.58,0.64,0.58s0.13-0.06,0.03-0.33c-0.03-0.11-0.18-0.46-0.66-0.81l0.03,0
			c0.29,0.15,0.56,0.31,0.81,0.51c0.14-0.44,0.38-0.9,0.33-1.73c-0.03-0.58-0.02-0.73-0.13-0.95c-0.1-0.19,0.06-0.27,0.23-0.07
			c-0.03-0.16-0.08-0.31-0.15-0.46l0-0.01c0.22-0.69,4.68-2.49,5.01-2.7c0.52-0.33,0.97-0.76,1.31-1.28
			c0.25-0.35,0.43-0.85,0.48-1.61c0.02-0.34-0.09-0.61-1.27-0.87c-0.71-0.15-1.81-0.3-3.5-0.46c-1.23-0.11-1.96-0.91-2.37-1.65
			c-0.08-0.16-0.15-0.3-0.23-0.45c-0.07-0.17-0.13-0.34-0.18-0.52c0.74-1.93,2.07-3.58,3.8-4.72c0.1-0.08-0.4,0.02-0.3-0.06
			c0.12-0.09,0.87-0.37,1.01-0.43c0.17-0.07-0.75-0.42-1.56-0.34c-0.83,0.08-1,0.17-1.45,0.34c0.18-0.16,0.77-0.38,0.63-0.38
			c-0.89,0.12-2,0.59-2.95,1.11c0-0.09,0.02-0.18,0.06-0.27c-0.44,0.17-1.53,0.85-1.84,1.42c0.01-0.11,0.02-0.22,0.02-0.33
			c-0.33,0.25-0.64,0.53-0.91,0.85l-0.02,0.01c-2.56-0.93-4.82-0.99-6.73-0.57c-0.42-0.38-1.09-0.94-2.04-2.81
			c-0.06-0.11-0.1,0.23-0.15,0.12c-0.37-0.86-0.59-2.26-0.56-3.23c0,0-0.76,0.35-1.4,1.8c-0.12,0.26-0.19,0.41-0.27,0.55
			c-0.03,0.04,0.08-0.48,0.06-0.45c-0.11,0.19-0.39,0.45-0.52,0.78c-0.09,0.25-0.21,0.39-0.28,0.7l-0.02,0.03
			c-0.01-0.09,0.02-0.38,0-0.32c-0.3,0.6-0.55,1.22-0.76,1.85c-0.34,1.12-0.74,2.64-0.8,4.62c-0.02,0.15,0,0.32-0.02,0.45
			c-0.81,0.92-1.36,1.7-1.56,2.1c-1.04,1.61-2.19,4.12-3.3,8.09c0.5-1.08,1.09-2.12,1.77-3.1c-0.93,2.11-1.82,5.41-2,10.51
			c0.22-1.05,0.51-2.09,0.86-3.11c-0.16,3.4,0.24,7.61,2.38,12.36c1.28,2.8,4.21,8.47,11.38,12.9l0,0c0,0,2.44,1.82,6.63,3.18
			c0.31,0.11,0.62,0.22,0.94,0.33c-0.1-0.04-0.2-0.08-0.29-0.13c2.79,0.84,5.69,1.26,8.6,1.26c10.86,0.01,14.06-4.35,14.06-4.35
			s-0.01,0.01-0.03,0.02c0.15-0.14,0.3-0.29,0.44-0.45c-1.71,1.62-5.62,1.73-7.09,1.61c2.49-0.73,4.13-1.35,7.33-2.57
			c0.37-0.14,0.76-0.3,1.15-0.47c0.04-0.02,0.08-0.04,0.13-0.06c0.08-0.04,0.15-0.07,0.23-0.11c1.56-0.73,3.02-1.65,4.36-2.73
			c3.2-2.56,3.9-5.06,4.27-6.7c-0.05,0.16-0.21,0.53-0.32,0.76c-0.83,1.77-2.66,2.85-4.64,3.78c0.95-1.24,1.82-2.53,2.63-3.87
			C128.26,190,128.47,188.99,128.95,188.32z"/>
		</g>
		<g class="fox_body_2"></g>
		<g class="fox_body_3"></g>
		<g class="fox_body_4"></g>
		<path style="fill:url(#g-ff_fox_body_2)" d="M125.05,194.44c1.31-1.44,2.48-3.09,3.37-4.96c2.29-4.81,5.82-12.81,3.04-21.16
			c-2.2-6.6-5.22-10.21-9.06-13.74c-6.23-5.73-7.97-8.28-7.97-9.8c0,0-7.2,8.02-4.08,16.39c3.12,8.37,9.51,8.06,13.74,16.79
			c4.98,10.27-4.03,21.49-11.47,24.63c0.46-0.1,16.55-3.74,17.4-12.95C129.99,189.81,129.63,192.36,125.05,194.44z"/>
		<path style="fill:url(#g-ff_fox_body_3)" d="M104.2,164.58c0.02-0.54-0.26-0.91-4.75-1.33c-1.85-0.17-2.56-1.88-2.77-2.6c-0.66,1.71-0.93,3.5-0.78,5.67
			c0.1,1.42,1.05,2.95,1.51,3.84c0,0,0.1-0.13,0.15-0.18c0.86-0.89,4.46-2.26,4.8-2.45C102.72,167.3,104.14,166.26,104.2,164.58z"
			/>
		<path style="fill:url(#g-ff_fox_body_4)" d="M96.28,189.43c-4.32-1.85-9.24-4.45-9.05-10.36c0.25-7.79,7.26-6.25,7.26-6.25
			c-0.26,0.06-0.97,0.57-1.22,1.1c-0.26,0.67-0.75,2.19,0.72,3.78c2.3,2.49-4.72,5.91,6.12,12.37
			C100.38,190.22,97.56,189.98,96.28,189.43L96.28,189.43z"/>
	</g>
	<g id="fox-hilight">

			<linearGradient id="g-ff_fox_hl_1" gradientUnits="userSpaceOnUse" x1="113.0616" y1="878.9755" x2="132.0098" y2="836.6044" gradientTransform="matrix(1 0 0 -1 0 1026)">
				<stop  offset="0" style="stop-color:#FFF14F"/>
				<stop  offset="0.268" style="stop-color:#FFEE4C"/>
				<stop  offset="0.452" style="stop-color:#FFE643"/>
				<stop  offset="0.612" style="stop-color:#FFD834"/>
				<stop  offset="0.757" style="stop-color:#FFC41E"/>
				<stop  offset="0.892" style="stop-color:#FFAB02"/>
				<stop  offset="0.902" style="stop-color:#FFA900"/>
				<stop  offset="0.949" style="stop-color:#FFA000"/>
				<stop  offset="1" style="stop-color:#FF9100"/>
			</linearGradient>
			<linearGradient id="g-ff_fox_hl_2" gradientUnits="userSpaceOnUse" x1="140.5094" y1="2198.8674" x2="137.1264" y2="2207.5369" gradientTransform="matrix(0.995 0.1 0.1 -0.995 -276.191 2334.7161)">
				<stop  offset="0" style="stop-color:#891551;stop-opacity:0.6"/>
				<stop  offset="1" style="stop-color:#C42482;stop-opacity:0"/>
			</linearGradient>
			<linearGradient id="g-ff_fox_hl_3" gradientUnits="userSpaceOnUse" x1="-163.1155" y1="574.4441" x2="-163.1113" y2="579.08" gradientTransform="matrix(0.995 0.1 0.1 -0.995 202.944 774.304)">
				<stop  offset="0" style="stop-color:#C42482"/>
				<stop  offset="0.083" style="stop-color:#C42482;stop-opacity:0.81"/>
				<stop  offset="0.206" style="stop-color:#C42482;stop-opacity:0.565"/>
				<stop  offset="0.328" style="stop-color:#C42482;stop-opacity:0.362"/>
				<stop  offset="0.447" style="stop-color:#C42482;stop-opacity:0.204"/>
				<stop  offset="0.562" style="stop-color:#C42482;stop-opacity:0.091"/>
				<stop  offset="0.673" style="stop-color:#C42482;stop-opacity:0.023"/>
				<stop  offset="0.773" style="stop-color:#C42482;stop-opacity:0"/>
			</linearGradient>
			<linearGradient id="g-ff_fox_hl_4" gradientUnits="userSpaceOnUse" x1="116.8031" y1="854.6071" x2="107.8275" y2="830.5078" gradientTransform="matrix(1 0 0 -1 0 1026)">
				<stop  offset="0" style="stop-color:#FF8E00"/>
				<stop  offset="0.04" style="stop-color:#FF8E00;stop-opacity:0.858"/>
				<stop  offset="0.084" style="stop-color:#FF8E00;stop-opacity:0.729"/>
				<stop  offset="0.13" style="stop-color:#FF8E00;stop-opacity:0.628"/>
				<stop  offset="0.178" style="stop-color:#FF8E00;stop-opacity:0.557"/>
				<stop  offset="0.227" style="stop-color:#FF8E00;stop-opacity:0.514"/>
				<stop  offset="0.282" style="stop-color:#FF8E00;stop-opacity:0.5"/>
				<stop  offset="0.389" style="stop-color:#FF8E00;stop-opacity:0.478"/>
				<stop  offset="0.524" style="stop-color:#FF8E00;stop-opacity:0.416"/>
				<stop  offset="0.676" style="stop-color:#FF8E00;stop-opacity:0.314"/>
				<stop  offset="0.838" style="stop-color:#FF8E00;stop-opacity:0.172"/>
				<stop  offset="1" style="stop-color:#FF8E00;stop-opacity:0"/>
			</linearGradient>

			<path style="fill:url(#g-ff_fox_hl_1)" d="M125.04,194.48c6.46-6.34,9.72-14.05,8.34-22.69c0,0,0.55,4.43-1.54,8.97c1.01-4.43,1.12-9.93-1.55-15.62
				c-3.56-7.6-9.43-11.6-11.66-13.27c-3.39-2.53-4.8-5.1-4.82-5.63c-1.01,2.08-4.08,9.19-0.33,15.31
				c3.51,5.74,9.04,7.44,12.91,12.71C133.53,183.94,125.04,194.48,125.04,194.48z"/>
			<path style="fill:url(#g-ff_fox_hl_2)" d="M84.41,154.49c-0.06-0.11-0.1,0.23-0.15,0.12c-0.37-0.86-0.59-2.24-0.54-3.22c0,0-0.76,0.35-1.4,1.8
				c-0.12,0.26-0.19,0.41-0.27,0.55c-0.03,0.04,0.08-0.48,0.06-0.45c-0.11,0.19-0.39,0.45-0.52,0.77c-0.1,0.26-0.21,0.4-0.29,0.73
				c-0.02,0.09,0.02-0.39,0-0.33c-1.47,2.84-1.75,7.14-1.6,6.95c3.13-3.34,6.72-4.13,6.72-4.13
				C86.05,156.99,85.22,156.18,84.41,154.49L84.41,154.49z"/>
			<path style="fill:url(#g-ff_fox_hl_3)" d="M94.75,185.54c3.07,1.07,6.64,0.88,8.77-0.3c1.43-0.8,3.27-2.07,4.4-1.76c-0.98-0.39-1.72-0.57-2.61-0.61
				c-0.15,0-0.33,0-0.5-0.02c-0.33,0-0.65,0.02-0.98,0.05c-0.55,0.05-1.16,0.4-1.72,0.34c-0.03,0,0.54-0.23,0.49-0.22
				c-0.29,0.06-0.61,0.07-0.95,0.12c-0.21,0.02-0.4,0.05-0.61,0.06c-6.38,0.54-11.78-3.46-11.78-3.46
				C88.8,181.29,91.31,184.35,94.75,185.54L94.75,185.54z"/>
			<path style="fill:url(#g-ff_fox_hl_4)" d="M124.11,177.99c-2.26-4.66-5.07-6.7-7.74-8.9c0.31,0.43,0.39,0.59,0.56,0.87c2.34,2.5,5.8,8.6,3.29,16.25
				c-4.73,14.41-23.63,7.62-25.61,5.72c0.8,8.34,14.76,12.33,23.84,6.92C123.63,193.94,127.81,185.62,124.11,177.99z"/>
		</g>
</g>

<g id="ico_ie" >
	<path class="c-ie" d="M197.86,164.09c8.56-19.37-9.17-16.53-10.16-16.34c-3.76,0.73-7.23,1.91-10.43,3.41
		c-0.47-0.03-0.95-0.04-1.43-0.04c-11.96,0-21.97,8.34-24.54,19.52c6.31-7.07,10.72-9.92,13.36-11.07
		c-9.55,8.57-14.52,18.5-14.83,18.96c-0.56,0.78-3.25,6.47-3.43,7.17c-7.16,25.59,15.18,14.79,18.3,13.17
		c3.36,1.66,7.14,2.59,11.14,2.59c10.95,0,20.26-6.98,23.72-16.74h-13.23c-1.96,3.31-5.72,5.55-10.05,5.55
		c-6.34,0-11.48-4.8-11.48-10.73h36C201.59,173.01,199.87,167.7,197.86,164.09z M196.31,151.52c2.17,1.46,3.91,3.76,0.92,11.5
		c-2.87-4.61-7.18-8.22-12.29-10.2C187.26,151.69,193.04,149.31,196.31,151.52L196.31,151.52z M150.25,198.82
		c-1.77-1.81-2.08-6.22,1.81-14.26c1.97,5.65,5.89,10.39,10.96,13.4C160.5,199.34,153.81,202.47,150.25,198.82L150.25,198.82z
		 M164.75,172.65c0.2-5.76,5.21-10.37,11.37-10.37c6.16,0,11.17,4.61,11.37,10.37H164.75L164.75,172.65z"/>
</g>

<g id="ico_edge" >
	<path class="c-edge" d="M273.5,175.29c0-15.31-10.7-25.82-24.9-26.01c-14.29,0.18-24.25,10.42-26.1,24.72
		c5.16-8.48,15.4-14.2,24.44-14.2c7.38,0,11.34,3.97,11.34,11.8h-19.74c0.37-3.32,1.84-6.73,3.87-8.76
		c-7.93,3.23-13.46,10.42-13.46,20.1c0,11.99,9.22,21.67,22.69,21.67c6.82,0,12.36-1.48,17.15-3.97v-11.71
		c-4.33,2.58-9.5,4.15-15.22,4.15c-8.58,0-14.76-4.15-14.76-11.71h34.68V175.29z"/>
</g>

<g id="rss">
		<path id="RSS" class="c-rss" d="M305.79,190.2c1.26,1.26,2.03,2.96,2.03,4.87c0,1.9-0.77,3.6-2.03,4.86l0,0
			c-1.26,1.25-2.97,2.02-4.88,2.02c-1.91,0-3.62-0.77-4.88-2.02c-1.25-1.25-2.03-2.96-2.03-4.86c0-1.9,0.77-3.61,2.03-4.87v0
			c1.26-1.25,2.97-2.02,4.88-2.02C302.81,188.17,304.53,188.94,305.79,190.2z M305.79,190.19L305.79,190.19
			C305.79,190.2,305.79,190.2,305.79,190.19L305.79,190.19z M296.03,199.92C296.03,199.92,296.03,199.92,296.03,199.92
			C296.02,199.92,296.02,199.92,296.03,199.92L296.03,199.92z M294.01,167.68v9.93c6.48,0,12.61,2.55,17.2,7.15
			c4.59,4.58,7.12,10.72,7.13,17.23h0V202h9.97c-0.01-9.46-3.85-18.03-10.07-24.25C312.03,171.53,303.46,167.69,294.01,167.68z
			 M294.02,150v9.92c23.17,0.02,42.01,18.88,42.02,42.08H346c-0.01-14.33-5.83-27.32-15.25-36.74
			C321.33,155.84,308.35,150.01,294.02,150z"/>
	</g>

<!-- ==========================================
	exe icon
========================================== -->
<style type="text/css">
	.c-pdf    { fill:#FF4339;}
</style>

<g id="ico_word">
	<defs>
	<linearGradient id="g-word" gradientUnits="userSpaceOnUse" x1="32" y1="279.7715" x2="32" y2="216.4504">
		<stop  offset="0" style="stop-color:#0876A7"/>
		<stop  offset="1" style="stop-color:#00478B"/>
	</linearGradient>
	</defs>
	<path id="word_base" style="fill:url(#g-word);" d="M58,280.02H6c-3.31,0-6-2.69-6-6v-52c0-3.31,2.69-6,6-6h52c3.31,0,6,2.69,6,6v52
		C64,277.34,61.31,280.02,58,280.02z"/>
	<g id="word_text">
		<path class="c-white" d="M40.83,262.65H33.8l-1.25-19c-0.01-0.2-0.01-0.45,0.01-0.74s0.05-0.58,0.08-0.88
			c0.03-0.3,0.07-0.59,0.11-0.87c0.04-0.28,0.08-0.52,0.12-0.73H32.8c-0.07,0.22-0.15,0.47-0.26,0.76c-0.1,0.29-0.21,0.58-0.32,0.88
			c-0.11,0.3-0.22,0.59-0.33,0.86c-0.11,0.27-0.21,0.51-0.31,0.71l-9.3,19h-7.54l-1.49-29.3h6.95l0.2,19.43
			c0.01,0.23,0.01,0.5-0.01,0.8s-0.05,0.6-0.09,0.9s-0.08,0.58-0.12,0.85s-0.08,0.49-0.1,0.66h0.12c0.05-0.2,0.13-0.45,0.22-0.73
			s0.2-0.57,0.32-0.88c0.12-0.31,0.24-0.61,0.37-0.9c0.13-0.29,0.24-0.54,0.34-0.75l9.42-19.39h6.99l0.96,19.64
			c0.01,0.19,0.02,0.41,0.01,0.66c-0.01,0.25-0.02,0.51-0.03,0.79c-0.01,0.27-0.03,0.54-0.06,0.81s-0.05,0.5-0.08,0.71h0.08
			c0.05-0.19,0.13-0.42,0.21-0.69c0.09-0.27,0.18-0.55,0.29-0.84c0.1-0.29,0.2-0.57,0.31-0.84s0.19-0.51,0.28-0.71l8.11-19.51h6.91
			L40.83,262.65z"/>
	</g>
</g>

<g id="ico_excel">
	<defs>
	<linearGradient id="g-excel" gradientUnits="userSpaceOnUse" x1="104" y1="279.8" x2="104" y2="216.45">
		<stop  offset="0" style="stop-color:#13954D"/>
		<stop  offset="1" style="stop-color:#226F45"/>
	</linearGradient>
	</defs>
	<path id="excel_base" style="fill:url(#g-excel);" d="M130,280.02H78c-3.31,0-6-2.69-6-6v-52c0-3.31,2.69-6,6-6h52c3.31,0,6,2.69,6,6v52
		C136,277.34,133.31,280.02,130,280.02z"/>
	<g id="excel_text">
		<path class="c-white" d="M108.72,248.78l5.97,14.91H107l-3.03-9.57c-0.06-0.15-0.1-0.34-0.14-0.55c-0.04-0.21-0.06-0.42-0.08-0.64
			s-0.04-0.43-0.05-0.63c-0.01-0.2-0.02-0.37-0.02-0.49h-0.08c-0.11,0.24-0.26,0.57-0.43,1.01c-0.18,0.44-0.39,0.83-0.64,1.18
			l-7.24,9.7h-8.41l12.94-15.54l-5.83-14.62h7.93l2.67,9.28c0.04,0.17,0.08,0.36,0.12,0.58c0.04,0.22,0.06,0.44,0.08,0.66
			c0.02,0.22,0.04,0.43,0.04,0.63c0.01,0.2,0.01,0.36,0.01,0.48h0.11c0.04-0.11,0.1-0.25,0.17-0.43s0.15-0.37,0.25-0.58
			c0.1-0.21,0.2-0.42,0.31-0.62c0.1-0.2,0.22-0.39,0.35-0.56l7.19-9.44h7.93L108.72,248.78z"/>
	</g>

</g>

<g id="ico_pdf">
	<defs>
		<linearGradient id="g-pdf" gradientUnits="userSpaceOnUse" x1="176" y1="279.7498" x2="176" y2="216.4287">
			<stop  offset="0" style="stop-color:#FF6D37"/>
			<stop  offset="1" style="stop-color:#FF4339"/>
		</linearGradient>
	</defs>

	<path id="pdf_base" style="fill:url(#g-pdf);" d="M202,280h-52c-3.31,0-6-2.69-6-6v-52c0-3.31,2.69-6,6-6h52c3.31,0,6,2.69,6,6v52 C208,277.31,205.31,280,202,280z"/>

	<g id="pdf_symbol">
		<path class="c-white" d="M152.69,267.55c0.49-2.4,3.17-5.21,7.36-7.71c0.46-0.28,2.54-1.37,2.54-1.37c0.22-0.12,0.46-0.18,0.7-0.18
			c1.08-1.85,2.29-4.05,3.64-6.69c1.39-2.72,2.84-5.56,3.99-8.36l0.28-0.67c-1.59-6.14-2.44-10.92-1.54-14.24
			c0.42-1.48,1.9-2.47,3.7-2.47l0.63,0.01c0.02,0,0.04,0,0.05,0c2.29,0,3.53,2.22,3.71,3.82c0.13,1.17-0.22,2.74-0.39,3.4
			c0,0.07,0,0.13,0,0.2c-0.03,0.59-0.29,5.76-0.68,7.53l-0.16,0.64c1.26,3.31,3.21,6.31,5.54,8.48c0.77,0.73,1.78,1.36,2.78,1.95
			c2.5-0.33,4.91-0.47,6.86-0.48c3.34,0.05,5.51,0.6,6.61,1.69c0.62,0.6,0.98,1.4,1.07,2.35c0.02,0.41-0.06,0.9-0.12,1.18
			c0,0.11-0.01,0.21-0.04,0.32c-0.3,1.37-0.54,1.75-0.62,1.88c-0.52,0.71-1.28,1.23-2,1.42c-2.73,0.73-8.58-0.78-13.48-3.47
			c-4.82,0.74-10.24,2.03-15.07,3.58c-3.48,6.03-7.19,11.33-11.05,11.33c-0.67,0-1.33-0.16-2-0.49l-1.07-0.54
			c-0.03-0.01-0.05-0.03-0.08-0.04C152.88,270.03,152.42,268.84,152.69,267.55z"/>
		<g class="c-pdf">
			<path d="M172.07,253.14C172.06,253.15,172.06,253.15,172.07,253.14c-0.17,0.32-0.34,0.64-0.51,0.95
				c1.89-0.62,3.94-1.18,6.16-1.67c-1.26-1.17-2.39-2.52-3.38-4.03C173.76,249.75,173.03,251.31,172.07,253.14z"/>
			<path d="M174.95,234.79c-0.13,0.93-0.78,3.07-0.78,3.07c-0.84-2.99-0.64-5.6-0.21-5.6S175.08,233.84,174.95,234.79z"
				/>
			<path d="M190.96,255.48c-0.96-0.08-3.94-1.39-3.94-1.39s3.28-0.24,4.15-0.03c0.87,0.21,1.74,0.55,1.6,0.98
				C192.62,255.51,191.99,255.56,190.96,255.48z"/>
			<path d="M160.91,262.59c0.63-0.68,3.11-2.84,3.11-2.84s-1.89,3.03-2.34,3.57c-0.45,0.55-1.82,1.85-2.14,1.65
				C159.23,264.77,160.28,263.27,160.91,262.59z"/>
		</g>
	</g>
</g>

<!-- ==========================================
	app icon
========================================== -->
<style type="text/css">
	.c-win    { fill:#0078D6;}
	.c-vscode { fill:#0060B1;}
</style>
<g id="ico_psd">
	<defs>
	<linearGradient id="g-psd" gradientUnits="userSpaceOnUse" x1="248" y1="278.1669" x2="248" y2="215.2591">
		<stop  offset="0" style="stop-color:#31C5F0"/>
		<stop  offset="0.5144" style="stop-color:#3198F0"/>
		<stop  offset="1" style="stop-color:#3172F0"/>
	</linearGradient>
	</defs>

	<path id="psd_base" style="fill:url(#g-psd);" d="M274,280h-52c-3.31,0-6-2.69-6-6v-52c0-3.31,2.69-6,6-6h52c3.31,0,6,2.69,6,6v52
		C280,277.31,277.31,280,274,280z"/>
	<path id="psd_text" class="c-white" d="M261.75,243.97c-2.43,0-3.26,1.23-3.26,2.25c0,1.11,0.55,1.88,3.82,3.57
		c4.83,2.34,6.34,4.58,6.34,7.88c0,4.92-3.75,7.57-8.83,7.57c-2.68,0-4.98-0.55-6.31-1.32c-0.22-0.09-0.25-0.25-0.25-0.49v-4.52
		c0-0.31,0.15-0.4,0.37-0.25c1.94,1.26,4.15,1.82,6.18,1.82c2.43,0,3.45-1.02,3.45-2.4c0-1.11-0.71-2.09-3.82-3.69
		c-4.37-2.09-6.18-4.22-6.18-7.75c0-3.97,3.11-7.26,8.49-7.26c2.65,0,4.49,0.4,5.51,0.86c0.25,0.15,0.31,0.4,0.31,0.62v4.22
		c0,0.25-0.15,0.4-0.46,0.31C265.75,244.49,263.75,243.97,261.75,243.97L261.75,243.97z M235.29,247.63
		c0.71,0.06,1.26,0.06,2.49,0.06c3.6,0,6.98-1.26,6.98-6.15c0-3.91-2.43-5.88-6.52-5.88c-1.23,0-2.4,0.06-2.95,0.09V247.63
		L235.29,247.63z M229.82,231.29c0-0.22,0.43-0.37,0.68-0.37c1.97-0.09,4.89-0.15,7.94-0.15c8.52,0,11.85,4.68,11.85,10.65
		c0,7.82-5.66,11.17-12.62,11.17c-1.17,0-1.57-0.06-2.4-0.06v11.82c0,0.25-0.09,0.37-0.37,0.37h-4.71c-0.25,0-0.37-0.09-0.37-0.37
		L229.82,231.29L229.82,231.29z"/>
</g>

<g id="ico_ai">
	<defs>
	<linearGradient id="g-ai" gradientUnits="userSpaceOnUse" x1="320" y1="278.2883" x2="320" y2="216.4155">
		<stop  offset="0" style="stop-color:#FF7F18"/>
		<stop  offset="1" style="stop-color:#FF5018"/>
	</linearGradient>
	</defs>

	<path id="ai_base" style="fill:url(#g-ai);" d="M345.5,279.5h-51c-3.31,0-6-2.69-6-6v-51c0-3.31,2.69-6,6-6h51c3.31,0,6,2.69,6,6v51
		C351.5,276.81,348.81,279.5,345.5,279.5z"/>
	<path id="ai_text" class="c-white" d="M330.11,240.65c0-0.24,0.09-0.36,0.36-0.36h4.71c0.24,0,0.36,0.09,0.36,0.36v23.69
		c0,0.24-0.06,0.36-0.36,0.36h-4.65c-0.3,0-0.39-0.15-0.39-0.39v-23.66H330.11L330.11,240.65z M329.78,233.84
		c0-1.92,1.35-3.06,3.06-3.06c1.83,0,3.06,1.23,3.06,3.06c0,1.98-1.29,3.06-3.12,3.06C331.05,236.9,329.78,235.82,329.78,233.84z
		 M316.28,250.53c-0.84-3.33-2.82-10.6-3.57-14.11h-0.06c-0.63,3.51-2.22,9.46-3.48,14.11H316.28L316.28,250.53z M307.93,255.39
		l-2.37,9.01c-0.06,0.24-0.15,0.3-0.45,0.3h-4.41c-0.3,0-0.36-0.09-0.3-0.45l8.53-29.84c0.15-0.54,0.24-1.02,0.3-2.49
		c0-0.21,0.09-0.3,0.24-0.3h6.3c0.21,0,0.3,0.06,0.36,0.3l9.55,32.39c0.06,0.24,0,0.39-0.24,0.39h-4.98c-0.24,0-0.39-0.06-0.45-0.27
		l-2.46-9.04H307.93L307.93,255.39z"/>
</g>

<g id="ico_dw">
	<defs>
		<linearGradient id="dw_base" gradientUnits="userSpaceOnUse" x1="392" y1="278.1669" x2="392" y2="215.2591">
			<stop  offset="0" style="stop-color:#64E001"/>
			<stop  offset="0.5118" style="stop-color:#4CBA01"/>
			<stop  offset="1" style="stop-color:#339201"/>
		</linearGradient>
	</defs>
	<path id="dw_base" style="fill: url(#dw_base)" d="M418,280h-52c-3.31,0-6-2.69-6-6v-52c0-3.31,2.69-6,6-6h52c3.31,0,6,2.69,6,6v52
		C424,277.31,421.31,280,418,280z"/>
	<g id="dw_text">
		<path class="c-white" d="M366.97,265.5v-33.61h8.69c8.71,0,13.07,5.46,13.07,16.38c0,5.23-1.19,9.41-3.57,12.54
			c-2.38,3.13-5.55,4.69-9.5,4.69H366.97z M372.5,238.05v21.3h2.74c2.39,0,4.27-0.98,5.64-2.95c1.36-1.97,2.04-4.65,2.04-8.04
			c0-3.2-0.68-5.72-2.03-7.56s-3.25-2.75-5.69-2.75H372.5z"/>
		<path class="c-white" d="M417.65,241.5l-5.05,24h-5.68l-2.58-14.06c-0.17-0.94-0.27-1.96-0.29-3.07h-0.1
			c-0.08,1.22-0.19,2.21-0.34,2.98l-2.77,14.16h-5.61l-4.94-24h5.51l2.41,15.66c0.11,0.73,0.2,1.63,0.26,2.67h0.1
			c0.06-1.09,0.16-2.02,0.31-2.77l3.01-15.56h5.15l2.7,15.66c0.07,0.39,0.15,1.3,0.24,2.72h0.12c0.06-0.91,0.15-1.81,0.27-2.72
			l2.28-15.66H417.65z"/>
	</g>
</g>

<g id="ico_vscode">
	<path class="c-vscode" d="M466.9,263.9c-5.8-5.8-10.6-10.6-10.7-10.7c-0.1,0-1.9,1.4-6.8,5.3l-6.7,5.3l-2.6-1.3l-2.6-1.3 l0-13.1c0-13.1,0-13.1,0.1-13.2c0.1,0,1.2-0.6,2.6-1.4l2.5-1.3l6.7,5.3l6.7,5.3l10.7-10.7l10.7-10.7l2.6,1c1.4,0.6,4.4,1.7,6.5,2.6 l4,1.6l0,21.2c0,20.1,0,21.2-0.1,21.3c-0.2,0.1-12.9,5.2-13,5.2C477.5,274.5,472.7,269.7,466.9,263.9z M477.4,248.1 c0-6,0-10.9,0-11c0,0-3.2,2.4-7,5.4c-3.8,3-7,5.5-7,5.5c0,0.1,13.9,10.9,14,10.9C477.4,259,477.4,256.2,477.4,248.1z M446.6,252.1 c2.2-2.2,4-4.1,4-4.1c0,0-6-6.2-7.6-7.9l-0.4-0.4v8.2c0,4.5,0,8.2,0,8.2S444.4,254.3,446.6,252.1z"/>
</g>

<!-- ==========================================
	sns icon
========================================== -->
<style type="text/css">
	.c-twitter    { fill:#1DA1F3;}
	.c-facebook   { fill:#475993;}
	.c-youtube    { fill:#F61C0D;}
	.c-googleplus { fill:#F34A38;}
	.bg-pinterest{fill:#CB2027;}
	.c-line {fill:#00C300}
</style>

<g id="ico_twitter">

	<path id="twitter_base" class="c-twitter" d="M55.38,288H8.62C3.86,288,0,291.86,0,296.62v46.75c0,4.76,3.86,8.62,8.62,8.62l46.75,0
		c4.76,0,8.62-3.86,8.62-8.62v-46.75C64,291.86,60.14,288,55.38,288z"/>
	<path id="twitter_symbol" class="c-white" d="M53.51,308.03c-0.93,0.41-1.89,0.73-2.87,0.97c1.09-1.03,1.9-2.32,2.36-3.77l0,0
		c0.13-0.41-0.32-0.77-0.69-0.55l0,0c-1.37,0.81-2.85,1.42-4.39,1.81c-0.09,0.02-0.18,0.03-0.27,0.03c-0.28,0-0.55-0.1-0.77-0.29
		c-1.64-1.45-3.75-2.24-5.95-2.24c-0.95,0-1.91,0.15-2.85,0.44c-2.91,0.9-5.16,3.31-5.87,6.27c-0.26,1.11-0.34,2.23-0.21,3.31
		c0.01,0.12-0.04,0.21-0.08,0.25c-0.06,0.07-0.15,0.11-0.25,0.11c-0.01,0-0.02,0-0.03,0c-6.38-0.59-12.13-3.66-16.19-8.65l0,0
		c-0.21-0.25-0.6-0.22-0.77,0.06l0,0c-0.8,1.37-1.22,2.93-1.22,4.52c0,2.44,0.98,4.73,2.68,6.4c-0.71-0.17-1.41-0.44-2.05-0.79l0,0
		c-0.31-0.17-0.69,0.05-0.7,0.4l0,0c-0.04,3.62,2.07,6.84,5.25,8.29c-0.06,0-0.13,0-0.19,0c-0.5,0-1.01-0.05-1.51-0.14l0,0
		c-0.35-0.07-0.64,0.27-0.54,0.6l0,0c1.03,3.22,3.8,5.59,7.11,6.12c-2.75,1.85-5.95,2.82-9.29,2.82l-1.04,0
		c-0.32,0-0.59,0.21-0.67,0.52c-0.08,0.31,0.07,0.63,0.34,0.79c3.76,2.19,8.04,3.34,12.39,3.34c3.81,0,7.37-0.76,10.59-2.25
		c2.95-1.37,5.56-3.32,7.75-5.81c2.04-2.32,3.64-4.99,4.74-7.95c1.06-2.82,1.61-5.83,1.61-8.7v-0.14c0-0.46,0.21-0.89,0.57-1.19
		c1.38-1.12,2.58-2.44,3.57-3.92l0,0C54.35,308.33,53.94,307.84,53.51,308.03L53.51,308.03z"/>
</g>
<g id="ico_twitter_2">

	<path class="c-twitter" d="M128.24,305.68c-1.07,0.47-2.17,0.85-3.31,1.12c1.25-1.19,2.19-2.68,2.72-4.34l0,0
	c0.15-0.47-0.36-0.88-0.79-0.63l0,0c-1.58,0.94-3.28,1.64-5.06,2.09c-0.1,0.03-0.21,0.04-0.32,0.04c-0.32,0-0.64-0.12-0.89-0.34
	c-1.89-1.67-4.32-2.58-6.85-2.58c-1.09,0-2.2,0.17-3.28,0.51c-3.36,1.04-5.94,3.81-6.76,7.22c-0.3,1.28-0.39,2.56-0.25,3.81
	c0.02,0.14-0.05,0.24-0.09,0.29c-0.07,0.08-0.18,0.13-0.29,0.13c-0.01,0-0.02,0-0.04,0c-7.34-0.68-13.97-4.22-18.65-9.96l0,0
	c-0.24-0.29-0.7-0.26-0.89,0.07l0,0c-0.92,1.57-1.4,3.37-1.4,5.2c0,2.81,1.13,5.45,3.08,7.38c-0.82-0.2-1.62-0.5-2.36-0.91l0,0
	c-0.36-0.2-0.8,0.06-0.8,0.47l0,0c-0.05,4.17,2.39,7.88,6.04,9.55c-0.07,0-0.15,0-0.22,0c-0.58,0-1.17-0.06-1.74-0.17l0,0
	c-0.4-0.08-0.74,0.31-0.62,0.7l0,0c1.19,3.7,4.38,6.43,8.19,7.05c-3.17,2.13-6.86,3.25-10.7,3.25l-1.2,0c-0.37,0-0.68,0.24-0.77,0.6
	c-0.09,0.35,0.08,0.72,0.39,0.91c4.33,2.52,9.26,3.85,14.27,3.85c4.39,0,8.49-0.87,12.2-2.59c3.4-1.57,6.4-3.82,8.92-6.69
	c2.35-2.67,4.19-5.75,5.46-9.15c1.22-3.25,1.86-6.71,1.86-10.02v-0.16c0-0.53,0.24-1.03,0.66-1.37c1.59-1.29,2.97-2.81,4.11-4.52
	l0,0C129.21,306.03,128.73,305.46,128.24,305.68L128.24,305.68z"/>

</g>

<g id="ico_facebook">

	<path id="facebook_base" class="c-facebook" d="M199.38,288h-46.75c-4.76,0-8.62,3.86-8.62,8.62v46.75c0,4.76,3.86,8.62,8.62,8.62
		l46.75,0c4.76,0,8.62-3.86,8.62-8.62v-46.75C208,291.86,204.14,288,199.38,288z"/>
	<path id="facebook_text" class="c-white" d="M176.24,352l0.04-22.87h-5.94c-0.77,0-1.4-0.62-1.4-1.4l-0.03-7.37
		c0-0.78,0.63-1.41,1.4-1.41h5.93v-7.12c0-8.27,5.05-12.77,12.42-12.77h6.05c0.77,0,1.4,0.63,1.4,1.4v6.22c0,0.77-0.63,1.4-1.4,1.4
		l-3.71,0c-4.01,0-4.79,1.91-4.79,4.7v6.17h8.81c0.84,0,1.49,0.73,1.39,1.57l-0.87,7.37c-0.08,0.71-0.68,1.24-1.39,1.24h-7.9
		L186.21,352L176.24,352z"/>
</g>
<g id="ico_facebook_2">
	<path class="c-white" d="M243.29,344l0.03-20.31h-5.28c-0.69,0-1.24-0.55-1.24-1.24l-0.03-6.55
	c0-0.69,0.56-1.25,1.24-1.25h5.27v-6.32c0-7.34,4.48-11.34,11.03-11.34h5.37c0.69,0,1.24,0.56,1.24,1.24v5.52
	c0,0.69-0.56,1.24-1.24,1.24l-3.3,0c-3.56,0-4.25,1.69-4.25,4.17v5.48h7.82c0.75,0,1.32,0.65,1.24,1.39l-0.78,6.55
	c-0.07,0.63-0.61,1.1-1.24,1.1h-7.01L252.15,344L243.29,344z"/>
</g>

<g id="ico_youtube">

	<path id="youtube_base" class="c-youtube" d="M343.38,288h-46.75c-4.76,0-8.62,3.86-8.62,8.62v46.75c0,4.76,3.86,8.62,8.62,8.62
		l46.75,0c4.76,0,8.62-3.86,8.62-8.62v-46.75C352,291.86,348.14,288,343.38,288z"/>
	<g id="youtube_symbol">
		<path class="c-white" d="M331.67,305.85h-23.39c-4.59,0-8.31,3.72-8.31,8.31v11.69c0,4.59,3.72,8.31,8.31,8.31h23.39
			c4.59,0,8.31-3.72,8.31-8.31v-11.69C339.98,309.57,336.26,305.85,331.67,305.85z M326.06,320.57l-10.94,5.22
			c-0.29,0.14-0.63-0.07-0.63-0.4v-10.76c0-0.33,0.35-0.54,0.64-0.39l10.94,5.54C326.39,319.95,326.39,320.41,326.06,320.57z"/>
	</g>

</g>
<g id="ico_youtube_2">
	<path class="c-youtube" d="M406.03,304.02h-28.06c-5.51,0-9.97,4.46-9.97,9.97v14.03c0,5.51,4.46,9.97,9.97,9.97h28.06
		c5.51,0,9.97-4.46,9.97-9.97v-14.03C416,308.48,411.54,304.02,406.03,304.02z M399.29,321.68l-13.13,6.26
		c-0.35,0.17-0.75-0.09-0.75-0.48v-12.91c0-0.39,0.41-0.65,0.77-0.47l13.13,6.65C399.69,320.93,399.68,321.49,399.29,321.68z"/>
</g>

<g id="ico_googleplus">

	<path id="google_plus_base" class="c-googleplus" d="M487.38,288h-46.75c-4.76,0-8.62,3.86-8.62,8.62v46.75
		c0,4.76,3.86,8.62,8.62,8.62l46.75,0c4.76,0,8.62-3.86,8.62-8.62v-46.75C496,291.86,492.14,288,487.38,288z"/>
	<g id="google_plus_symbol">
		<path class="c-white" d="M457.11,323.17h7.5c-1.32,3.72-4.88,6.39-9.06,6.36c-5.06-0.04-9.25-4.09-9.45-9.15
			c-0.21-5.42,4.14-9.91,9.52-9.91c2.46,0,4.7,0.94,6.4,2.47c0.4,0.36,1.01,0.37,1.4,0l2.75-2.59c0.43-0.41,0.43-1.09,0-1.5
			c-2.68-2.54-6.28-4.13-10.25-4.2c-8.47-0.17-15.6,6.78-15.66,15.24c-0.06,8.53,6.84,15.47,15.36,15.47
			c8.19,0,14.88-6.41,15.33-14.49c0.01-0.1,0.02-3.52,0.02-3.52h-13.87c-0.57,0-1.03,0.46-1.03,1.03v3.77
			C456.08,322.71,456.54,323.17,457.11,323.17z"/>
		<path class="c-white" d="M483.68,317.68V314c0-0.5-0.4-0.9-0.9-0.9h-3.1c-0.5,0-0.9,0.4-0.9,0.9v3.68h-3.68c-0.5,0-0.9,0.4-0.9,0.9
			v3.1c0,0.5,0.4,0.9,0.9,0.9h3.68v3.68c0,0.5,0.4,0.9,0.9,0.9h3.1c0.5,0,0.9-0.4,0.9-0.9v-3.68h3.68c0.5,0,0.9-0.4,0.9-0.9v-3.1
			c0-0.5-0.4-0.9-0.9-0.9H483.68L483.68,317.68z"/>
	</g>
</g>
<g id="ico_googleplus_2">
	<path id="google_plus_g" class="c-googleplus" d="M528.45,323.43h8.12c-1.43,4.03-5.29,6.92-9.81,6.89
		c-5.49-0.04-10.02-4.43-10.24-9.91c-0.23-5.88,4.49-10.73,10.31-10.73c2.66,0,5.1,1.02,6.93,2.68c0.43,0.39,1.1,0.4,1.52-0.01
		l2.98-2.81c0.47-0.44,0.47-1.18,0-1.62c-2.91-2.75-6.81-4.47-11.11-4.55c-9.17-0.18-16.9,7.34-16.97,16.51
		c-0.06,9.24,7.41,16.75,16.64,16.75c8.87,0,16.12-6.95,16.61-15.7c0.01-0.11,0.02-3.82,0.02-3.82h-15.02
		c-0.62,0-1.11,0.5-1.11,1.11v4.09C527.33,322.93,527.83,323.43,528.45,323.43z"/>
	<path id="google_plus_plus" class="c-googleplus" d="M557.23,317.49v-3.99c0-0.54-0.44-0.98-0.98-0.98h-3.36
		c-0.54,0-0.98,0.44-0.98,0.98v3.99h-3.99c-0.54,0-0.98,0.44-0.98,0.98v3.36c0,0.54,0.44,0.98,0.98,0.98h3.99v3.99
		c0,0.54,0.44,0.98,0.98,0.98h3.36c0.54,0,0.98-0.44,0.98-0.98v-3.99h3.99c0.54,0,0.98-0.44,0.98-0.98v-3.36
		c0-0.54-0.44-0.98-0.98-0.98H557.23L557.23,317.49z"/>
</g>

<g id="ico_pinterest">
	<path id="pinterest_base" class="bg-pinterest" d="M55.38,360H8.62C3.86,360,0,363.86,0,368.62v46.75c0,4.76,3.86,8.62,8.62,8.62
		l46.75,0c4.76,0,8.62-3.86,8.62-8.62v-46.75C64,363.86,60.14,360,55.38,360z"/>
	<path id="pinterest_symbol" class="c-white" d="M34.8,403.76c-2.62-0.2-3.72-1.5-5.78-2.75c-1.13,5.93-2.51,11.61-6.6,14.58
		c-1.26-8.96,1.85-15.69,3.3-22.83c-2.47-4.15,0.3-12.51,5.5-10.45c6.4,2.53-5.54,15.44,2.48,17.05c8.37,1.68,11.79-14.53,6.6-19.8
		c-7.5-7.61-21.84-0.17-20.08,10.73c0.43,2.66,3.18,3.47,1.1,7.15c-4.8-1.06-6.23-4.85-6.05-9.9c0.3-8.27,7.43-14.05,14.58-14.85
		c9.04-1.01,17.53,3.32,18.7,11.83C49.87,394.1,44.47,404.5,34.8,403.76L34.8,403.76z"/>

</g>
<g id="ico_pinterest_2">
	<path class="bg-pinterest" d="M107.01,403.32c-2.82-0.22-4-1.61-6.21-2.96c-1.21,6.37-2.7,12.48-7.09,15.67
	c-1.36-9.63,1.99-16.86,3.55-24.54c-2.65-4.46,0.32-13.45,5.91-11.23c6.88,2.72-5.96,16.6,2.66,18.33c9,1.81,12.68-15.62,7.09-21.29
	c-8.06-8.18-23.48-0.19-21.58,11.53c0.46,2.86,3.42,3.73,1.18,7.69c-5.16-1.14-6.7-5.21-6.5-10.64c0.32-8.88,7.98-15.1,15.67-15.96
	c9.72-1.09,18.84,3.57,20.1,12.71C123.21,392.95,117.4,404.13,107.01,403.32L107.01,403.32z"/>
</g>

<g id="ico_line">
<path class="c-line" d="M199.4,360h-46.8c-4.8,0-8.6,3.9-8.6,8.6v46.8c0,4.8,3.9,8.6,8.6,8.6l46.8,0
	c4.8,0,8.6-3.9,8.6-8.6v-46.8C208,363.9,204.1,360,199.4,360z"/>
<path class="c-white" d="M201.6,388.9c0-11.4-11.4-20.7-25.5-20.7c-14.1,0-25.5,9.3-25.5,20.7c0,10.2,9.1,18.8,21.3,20.4
	c0.8,0.2,2,0.5,2.2,1.3c0.3,0.6,0.2,1.7,0.1,2.3c0,0-0.3,1.8-0.4,2.2c-0.1,0.6-0.5,2.5,2.2,1.4c2.7-1.1,14.7-8.6,20-14.8h0
	C199.8,397.6,201.6,393.4,201.6,388.9z M166.1,395.7H161c-0.7,0-1.3-0.6-1.3-1.3v-10.1c0-0.7,0.6-1.3,1.3-1.3
	c0.7,0,1.3,0.6,1.3,1.3v8.8h3.7c0.7,0,1.3,0.6,1.3,1.3C167.4,395.1,166.8,395.7,166.1,395.7z M171.3,394.3c0,0.7-0.6,1.3-1.3,1.3
	c-0.7,0-1.3-0.6-1.3-1.3v-10.1c0-0.7,0.6-1.3,1.3-1.3c0.7,0,1.3,0.6,1.3,1.3V394.3z M183.5,394.3c0,0.6-0.4,1.1-0.9,1.3
	c-0.1,0-0.3,0.1-0.4,0.1c-0.4,0-0.8-0.2-1.1-0.5l-5.2-7.1v6.3c0,0.7-0.6,1.3-1.3,1.3c-0.7,0-1.3-0.6-1.3-1.3v-10.1
	c0-0.6,0.4-1.1,0.9-1.3c0.1,0,0.3-0.1,0.4-0.1c0.4,0,0.8,0.2,1.1,0.5l5.2,7.1v-6.3c0-0.7,0.6-1.3,1.3-1.3c0.7,0,1.3,0.6,1.3,1.3
	L183.5,394.3L183.5,394.3z M191.7,387.9c0.7,0,1.3,0.6,1.3,1.3c0,0.7-0.6,1.3-1.3,1.3H188v2.4h3.7c0.7,0,1.3,0.6,1.3,1.3
	c0,0.7-0.6,1.3-1.3,1.3h-5.1c-0.7,0-1.3-0.6-1.3-1.3v-5.1c0,0,0,0,0,0v-5.1c0-0.7,0.6-1.3,1.3-1.3h5.1c0.7,0,1.3,0.6,1.3,1.3
	c0,0.7-0.6,1.3-1.3,1.3H188v2.4H191.7z"/>
</g>
<g id="ico_line2">
<rect class="c-white" x="229.2" y="380.3" width="38" height="17.4"/>
<path class="c-line" d="M273.5,388.9c0-11.4-11.4-20.7-25.5-20.7c-14.1,0-25.5,9.3-25.5,20.7c0,10.2,9.1,18.8,21.3,20.4
	c0.8,0.2,2,0.5,2.2,1.3c0.3,0.6,0.2,1.7,0.1,2.3c0,0-0.3,1.8-0.4,2.2c-0.1,0.6-0.5,2.5,2.2,1.4c2.7-1.1,14.7-8.6,20-14.8h0
	C271.7,397.6,273.5,393.4,273.5,388.9z M238,395.7H233c-0.7,0-1.3-0.6-1.3-1.3v-10.1c0-0.7,0.6-1.3,1.3-1.3c0.7,0,1.3,0.6,1.3,1.3
	v8.8h3.7c0.7,0,1.3,0.6,1.3,1.3C239.4,395.1,238.8,395.7,238,395.7z M243.3,394.3c0,0.7-0.6,1.3-1.3,1.3c-0.7,0-1.3-0.6-1.3-1.3
	v-10.1c0-0.7,0.6-1.3,1.3-1.3c0.7,0,1.3,0.6,1.3,1.3V394.3z M255.5,394.3c0,0.6-0.4,1.1-0.9,1.3c-0.1,0-0.3,0.1-0.4,0.1
	c-0.4,0-0.8-0.2-1.1-0.5l-5.2-7.1v6.3c0,0.7-0.6,1.3-1.3,1.3c-0.7,0-1.3-0.6-1.3-1.3v-10.1c0-0.6,0.4-1.1,0.9-1.3
	c0.1,0,0.3-0.1,0.4-0.1c0.4,0,0.8,0.2,1.1,0.5l5.2,7.1v-6.3c0-0.7,0.6-1.3,1.3-1.3c0.7,0,1.3,0.6,1.3,1.3L255.5,394.3L255.5,394.3
	z M263.7,387.9c0.7,0,1.3,0.6,1.3,1.3c0,0.7-0.6,1.3-1.3,1.3h-3.7v2.4h3.7c0.7,0,1.3,0.6,1.3,1.3c0,0.7-0.6,1.3-1.3,1.3h-5.1
	c-0.7,0-1.3-0.6-1.3-1.3v-5.1c0,0,0,0,0,0v-5.1c0-0.7,0.6-1.3,1.3-1.3h5.1c0.7,0,1.3,0.6,1.3,1.3c0,0.7-0.6,1.3-1.3,1.3h-3.7v2.4
	H263.7z"/>
</g>

<style type="text/css">
	.c-insta_stop_1    { stop-color:#E1D547; }
	.c-insta_stop_2    { stop-color:#E09B3D; }
	.c-insta_stop_3    { stop-color:#C74C4D; }
	.c-insta_stop_4    { stop-color:#C21975; }
	.c-insta_stop_5    { stop-color:#7024C4 }
</style>

<g id="instagram">

		<radialGradient id="instagram_base" cx="380.0534" cy="415.5349" r="48.0349" gradientUnits="userSpaceOnUse">
			<stop  offset="0"   class="c-insta_stop_1"/>
			<stop  offset="0.1" class="c-insta_stop_2"/>
			<stop  offset="0.4" class="c-insta_stop_3"/>
			<stop  offset="0.7" class="c-insta_stop_4"/>
			<stop  offset="1"   class="c-insta_stop_5"/>
		</radialGradient>
		<linearGradient id="instagram_symbol_center" gradientUnits="userSpaceOnUse" x1="392" y1="414" x2="392" y2="369">
			<stop  offset="0"       class="c-insta_stop_1"/>
			<stop  offset="6.8e-02" class="c-insta_stop_2"/>
			<stop  offset="0.3"     class="c-insta_stop_3"/>
			<stop  offset="0.6"     class="c-insta_stop_4"/>
			<stop  offset="1"       class="c-insta_stop_5"/>
		</linearGradient>
		<linearGradient id="instagram_symbol_upper" gradientUnits="userSpaceOnUse" x1="404.4382" y1="375.0904" x2="404.4382" y2="400.5603" gradientTransform="matrix(1 0 0 1 0 -636.55)" xmlns:xlink="http://www.w3.org/1999/xlink" xlink:href="#instagram_symbol_center" >
		</linearGradient>

		<path style="fill:url(#instagram_base);" d="M401.7,368h-19.4c-7.9,0-14.3,6.4-14.3,14.3v19.4c0,7.9,6.4,14.3,14.3,14.3h19.4 c7.9,0,14.3-6.4,14.3-14.3v-19.4C416,374.4,409.6,368,401.7,368z M411.2,401.7c0,5.2-4.2,9.5-9.5,9.5h-19.4 c-5.2,0-9.5-4.2-9.5-9.5v-19.4c0-5.2,4.2-9.5,9.5-9.5h19.4c5.2,0,9.5,4.2,9.5,9.5V401.7L411.2,401.7z"/>
		<path style="fill:url(#instagram_symbol_center);" d="M392,379.6c-6.8,0-12.4,5.6-12.4,12.4c0,6.8,5.6,12.4,12.4,12.4 s12.4-5.6,12.4-12.4C404.4,385.2,398.8,379.6,392,379.6z M392,399.6c-4.2,0-7.6-3.4-7.6-7.6c0-4.2,3.4-7.6,7.6-7.6 c4.2,0,7.6,3.4,7.6,7.6C399.6,396.2,396.2,399.6,392,399.6z"/>
		<circle style="fill:url(#instagram_symbol_upper);" cx="404.4" cy="379.7" r="3"/>

	</g>
<g id="instagram_2">
		<radialGradient id="instagram_w_base" cx="304.5" cy="421.9995" r="61.8971" gradientUnits="userSpaceOnUse" xmlns:xlink="http://www.w3.org/1999/xlink" xlink:href="#instagram_symbol_center">
		</radialGradient>
		<path style="fill:url(#instagram_w_base)" d="M341,424h-42c-6.1,0-11-4.9-11-11v-42c0-6.1,4.9-11,11-11h42c6.1,0,11,4.9,11,11v42 C352,419.1,347.1,424,341,424z"/>
		<g id="instagram_symbol">
			<path class="c-white" d="M329.8,415.6h-19.6c-7.6,0-13.8-6.2-13.8-13.8v-19.6c0-7.6,6.2-13.8,13.8-13.8h19.6 c7.6,0,13.8,6.2,13.8,13.8v19.6C343.6,409.4,337.4,415.6,329.8,415.6z M310.2,372.8c-5.2,0-9.4,4.2-9.4,9.4v19.6 c0,5.2,4.2,9.4,9.4,9.4h19.6c5.2,0,9.4-4.2,9.4-9.4v-19.6c0-5.2-4.2-9.4-9.4-9.4H310.2z"/>
			<ellipse transform="matrix(0.2283 -0.9736 0.9736 0.2283 -112.72 616.6135)" class="c-white" cx="332.6" cy="379.4" rx="2.9" ry="2.9"/>
			<path class="c-white" d="M320,404.2c-6.7,0-12.2-5.5-12.2-12.2c0-6.7,5.5-12.2,12.2-12.2c6.7,0,12.2,5.5,12.2,12.2 C332.2,398.7,326.7,404.2,320,404.2z M320,384.2c-4.3,0-7.8,3.5-7.8,7.8c0,4.3,3.5,7.8,7.8,7.8c4.3,0,7.8-3.5,7.8-7.8 C327.8,387.7,324.3,384.2,320,384.2z"/>
		</g>
	</g>

<!-- ==========================================
	os icon
========================================== -->
<style type="text/css">
	.c-win{fill:#0078D6;}
	.c-android{fill:#A4C639;}
</style>
<g id="win_b" class="c-win">
		<polygon points="605.5,203.1 640.1,208 640.1,177.8 605.5,177.8 		"/>
		<polygon points="576.3,199 602.4,202.7 602.4,177.4 576.3,177.4 		"/>
		<polygon points="605.5,149 605.5,174.5 640.1,174.5 640.1,144 		"/>
		<polygon points="576.3,174.8 602.4,174.8 602.4,149.5 576.3,153.1 		"/>
	</g>
<g id="win_w" class="c-white">
		<polygon points="677.4,203.1 712,208 712,177.8 677.4,177.8 		"/>
		<polygon points="648.2,199 674.3,202.7 674.3,177.4 648.2,177.4 		"/>
		<polygon points="677.4,149 677.4,174.5 712,174.5 712,144 		"/>
		<polygon points="648.2,174.8 674.3,174.8 674.3,149.5 648.2,153.1 		"/>
	</g>

<g id="android_b">
		<g class="c-android">
			<path d="M634,241c0-2.1-1.7-3.8-3.8-3.8s-3.8,1.7-3.8,3.8v15.9c0,2.1,1.7,3.8,3.8,3.8s3.8-1.7,3.8-3.8V241z"/>
			<path d="M589.6,241c0-2.1-1.7-3.8-3.8-3.8c-2.1,0-3.8,1.7-3.8,3.8v15.9c0,2.1,1.7,3.8,3.8,3.8c2.1,0,3.8-1.7,3.8-3.8 V241z"/>
			<path d="M625,236.5c0-5.9-3.5-11-8.7-13.7l2.7-4.8c0.1-0.3,0-0.6-0.2-0.7c-0.1,0-0.2-0.1-0.3-0.1 c-0.2,0-0.4,0.1-0.5,0.3l-2.7,4.9c-2.2-1-4.7-1.5-7.3-1.5c-2.6,0-5.1,0.6-7.3,1.5l-2.7-4.9c-0.1-0.3-0.5-0.4-0.7-0.2 c-0.3,0.1-0.4,0.5-0.2,0.7l2.7,4.8c-5.2,2.7-8.7,7.8-8.7,13.7c0,0,0,0.1,0,0.1c0,0,0,0,0,0.1v25.7c0,2.3,1.8,4.1,4.1,4.1h2.7v8.4 c0,2.1,1.7,3.8,3.8,3.8s3.8-1.7,3.8-3.8v-8.4h5.1v8.4c0,2.1,1.7,3.8,3.8,3.8s3.8-1.7,3.8-3.8v-8.4h2.7c2.3,0,4.1-1.8,4.1-4.1 v-25.7c0,0,0,0,0-0.1C625,236.6,625,236.6,625,236.5z"/>
		</g>
		<g class="c-white">
			<rect x="591" y="236.5" width="33.9" height="1.3"/>
			<circle cx="600.2" cy="228.9" r="1.4"/>
			<circle cx="615.8" cy="228.9" r="1.4"/>
		</g>
	</g>
<g id="android_w" class="c-white">
		<path d="M706,241c0-2.1-1.7-3.8-3.8-3.8s-3.8,1.7-3.8,3.8v15.9c0,2.1,1.7,3.8,3.8,3.8s3.8-1.7,3.8-3.8V241z"/>
		<path d="M661.6,241c0-2.1-1.7-3.8-3.8-3.8c-2.1,0-3.8,1.7-3.8,3.8v15.9c0,2.1,1.7,3.8,3.8,3.8c2.1,0,3.8-1.7,3.8-3.8
			V241z"/>
		<path d="M697,236.5c0-5.9-3.5-11-8.7-13.7l2.7-4.8c0.1-0.3,0-0.6-0.2-0.7c-0.1,0-0.2-0.1-0.3-0.1
			c-0.2,0-0.4,0.1-0.5,0.3l-2.7,4.9c-2.2-1-4.7-1.5-7.3-1.5c-2.6,0-5.1,0.6-7.3,1.5l-2.7-4.9c-0.1-0.3-0.5-0.4-0.7-0.2
			c-0.3,0.1-0.4,0.5-0.2,0.7l2.7,4.8c-5.2,2.7-8.7,7.8-8.7,13.7c0,0,0,0.1,0,0.1c0,0,0,0,0,0.1v25.7c0,2.3,1.8,4.1,4.1,4.1h2.7v8.4
			c0,2.1,1.7,3.8,3.8,3.8s3.8-1.7,3.8-3.8v-8.4h5.1v8.4c0,2.1,1.7,3.8,3.8,3.8s3.8-1.7,3.8-3.8v-8.4h2.7c2.3,0,4.1-1.8,4.1-4.1
			v-25.7c0,0,0,0,0-0.1C697,236.6,697,236.6,697,236.5z"/>
	</g>

<g id="apple_b">
		<path class="c-black" d="M631.3,310.9c-0.6,0.4-6.3,3.9-6.2,11c0.1,8.5,7.3,11.5,7.7,11.7h0l0,0l0.6,0.2l-0.2,0.6c0,0,0,0,0,0.1
			c-0.2,0.6-1.4,4.6-4.3,8.7c-1.3,1.9-2.6,3.7-4.1,5.2c-1.6,1.5-3.4,2.5-5.7,2.5c-2.1,0-3.5-0.6-5-1.2c-1.4-0.6-2.8-1.2-5.1-1.2
			c-2.4,0-3.9,0.6-5.3,1.3c-1.4,0.6-2.7,1.1-4.6,1.2h0c-2.2,0.1-4.1-1-5.8-2.6c-1.6-1.5-3-3.5-4.3-5.4c-2.9-4.2-5.5-10.4-6.2-16.6
			c-0.6-5.1-0.1-10.4,2.4-14.7c1.4-2.4,3.3-4.4,5.6-5.8c2.3-1.4,4.8-2.1,7.5-2.2v0c2.4,0,4.6,0.8,6.5,1.6c1.4,0.5,2.6,1,3.5,1
			c0.8,0,2-0.5,3.4-1c2.4-0.9,5.2-2.1,8.3-1.8c1.3,0.1,3.9,0.4,6.7,1.8c1.7,0.9,3.5,2.3,4.9,4.5l0.4,0.6L631.3,310.9
			C631.3,310.9,631.4,310.9,631.3,310.9L631.3,310.9z M620,294.9c-0.6,1.8-1.6,3.5-2.7,4.9v0c-1.2,1.4-2.7,2.7-4.5,3.5
			c-1.6,0.8-3.3,1.2-5.1,1l-0.5,0l-0.1-0.5c-0.2-1.7,0-3.4,0.6-5c0.6-1.9,1.7-3.6,2.8-4.9l0,0c1.2-1.3,2.7-2.5,4.3-3.4
			c1.7-0.9,3.4-1.4,5.1-1.5l0.6,0l0.1,0.6C620.8,291.4,620.6,293.2,620,294.9L620,294.9z"/>
	</g>
<g id="apple_w">
		<path class="c-white" d="M703.4,310.9c-0.6,0.4-6.3,3.9-6.2,11c0.1,8.5,7.3,11.5,7.7,11.7h0l0,0l0.6,0.2l-0.2,0.6c0,0,0,0,0,0.1
			c-0.2,0.6-1.4,4.6-4.3,8.7c-1.3,1.9-2.6,3.7-4.1,5.2c-1.6,1.5-3.4,2.5-5.7,2.5c-2.1,0-3.5-0.6-5-1.2c-1.4-0.6-2.8-1.2-5.1-1.2
			c-2.4,0-3.9,0.6-5.3,1.3c-1.4,0.6-2.7,1.1-4.6,1.2h0c-2.2,0.1-4.1-1-5.8-2.6c-1.6-1.5-3-3.5-4.3-5.4c-2.9-4.2-5.5-10.4-6.2-16.6
			c-0.6-5.1-0.1-10.4,2.4-14.7c1.4-2.4,3.3-4.4,5.6-5.8c2.3-1.4,4.8-2.1,7.5-2.2v0c2.4,0,4.6,0.8,6.5,1.6c1.4,0.5,2.6,1,3.5,1
			c0.8,0,2-0.5,3.4-1c2.4-0.9,5.2-2.1,8.3-1.8c1.3,0.1,3.9,0.4,6.7,1.8c1.7,0.9,3.5,2.3,4.9,4.5l0.4,0.6L703.4,310.9
			C703.4,310.9,703.4,310.9,703.4,310.9L703.4,310.9z M692.1,294.9c-0.6,1.8-1.6,3.5-2.7,4.9v0c-1.2,1.4-2.7,2.7-4.5,3.5
			c-1.6,0.8-3.3,1.2-5.1,1l-0.5,0l-0.1-0.5c-0.2-1.7,0-3.4,0.6-5c0.6-1.9,1.7-3.6,2.8-4.9l0,0c1.2-1.3,2.7-2.5,4.3-3.4
			c1.7-0.9,3.4-1.4,5.1-1.5l0.6,0l0.1,0.6C692.9,291.4,692.6,293.2,692.1,294.9L692.1,294.9z"/>
	</g>

</svg>
